<mxfile host="Electron" agent="Mozilla/5.0 (Macintosh; Intel Mac OS X 10_15_7) AppleWebKit/537.36 (KHTML, like Gecko) draw.io/28.1.2 Chrome/138.0.7204.243 Electron/37.4.0 Safari/537.36" version="28.1.2">
  <diagram name="Page-1" id="JzgE6-jNoz6ZgypwW0o8">
    <mxGraphModel dx="1248" dy="1960" grid="1" gridSize="3" guides="1" tooltips="1" connect="1" arrows="1" fold="1" page="1" pageScale="1" pageWidth="827" pageHeight="1169" math="0" shadow="0">
      <root>
        <mxCell id="0" />
        <mxCell id="1" parent="0" />
        <mxCell id="OIkfR_jMZachc5qM4-tc-1" value="MATCHA Muffins" style="verticalLabelPosition=middle;verticalAlign=middle;html=1;shape=mxgraph.basic.banner;fillStyle=auto;strokeColor=default;align=center;fontFamily=Helvetica;fontSize=16;fontColor=default;fillColor=#FFFFFF;labelPosition=center;fontStyle=1;shadow=1;" parent="1" vertex="1">
          <mxGeometry x="102.35999999999999" y="-1122.04" width="629.92" height="70.87" as="geometry" />
        </mxCell>
        <mxCell id="MHl1cd-Qkk1gGBz24KGn-105" value="" style="endArrow=classic;html=1;rounded=1;fontSize=12;startSize=8;endSize=8;curved=0;" parent="1" edge="1">
          <mxGeometry width="50" height="50" relative="1" as="geometry">
            <mxPoint x="441.48" y="-861" as="sourcePoint" />
            <mxPoint x="732" y="-777" as="targetPoint" />
            <Array as="points">
              <mxPoint x="441" y="-828" />
              <mxPoint x="732" y="-825" />
            </Array>
          </mxGeometry>
        </mxCell>
        <mxCell id="bGUCjfSoPUJQvvFktI7P-100" value="albume" style="edgeLabel;html=1;align=center;verticalAlign=middle;resizable=0;points=[];" vertex="1" connectable="0" parent="MHl1cd-Qkk1gGBz24KGn-105">
          <mxGeometry x="-0.1982" y="1" relative="1" as="geometry">
            <mxPoint as="offset" />
          </mxGeometry>
        </mxCell>
        <mxCell id="bGUCjfSoPUJQvvFktI7P-31" value="" style="group" vertex="1" connectable="0" parent="1">
          <mxGeometry x="123" y="-348" width="159" height="113.52400000000011" as="geometry" />
        </mxCell>
        <mxCell id="bGUCjfSoPUJQvvFktI7P-7" value="cioccolato bianco in pezzi irregolari&lt;div&gt;100g&lt;/div&gt;" style="text;strokeColor=none;fillColor=none;html=1;align=center;verticalAlign=middle;whiteSpace=wrap;rounded=0;fontSize=16;" vertex="1" parent="bGUCjfSoPUJQvvFktI7P-31">
          <mxGeometry width="159" height="69" as="geometry" />
        </mxCell>
        <mxCell id="bGUCjfSoPUJQvvFktI7P-8" value="" style="group" vertex="1" connectable="0" parent="bGUCjfSoPUJQvvFktI7P-31">
          <mxGeometry x="46.003999999999905" y="42.594000000000165" width="67.01999999999998" height="70.92999999999995" as="geometry" />
        </mxCell>
        <mxCell id="MHl1cd-Qkk1gGBz24KGn-2" value="" style="verticalLabelPosition=bottom;verticalAlign=top;html=1;shape=mxgraph.basic.arc;startAngle=0.2547732166712652;endAngle=0.7452267833287348;fillStyle=dots;strokeColor=default;align=center;fontFamily=Helvetica;fontSize=12;fontColor=default;fillColor=#FF0000;" parent="bGUCjfSoPUJQvvFktI7P-8" vertex="1">
          <mxGeometry width="67.02" height="70.93" as="geometry" />
        </mxCell>
        <mxCell id="bGUCjfSoPUJQvvFktI7P-10" value="" style="group" vertex="1" connectable="0" parent="bGUCjfSoPUJQvvFktI7P-8">
          <mxGeometry x="3.330000000000041" y="4" width="60.37" height="62.94" as="geometry" />
        </mxCell>
        <mxCell id="MHl1cd-Qkk1gGBz24KGn-3" value="" style="verticalLabelPosition=bottom;verticalAlign=top;html=1;shape=mxgraph.basic.arc;startAngle=0.2547732166712652;endAngle=0.7452267833287348;fillStyle=dots;strokeColor=default;align=center;fontFamily=Helvetica;fontSize=12;fontColor=default;fillColor=#FF0000;" parent="bGUCjfSoPUJQvvFktI7P-10" vertex="1">
          <mxGeometry width="60.37" height="62.94" as="geometry" />
        </mxCell>
        <mxCell id="MHl1cd-Qkk1gGBz24KGn-4" value="" style="rounded=1;whiteSpace=wrap;html=1;fillStyle=auto;strokeColor=default;align=center;verticalAlign=middle;fontFamily=Helvetica;fontSize=12;fontColor=default;fillColor=#E6E6E6;rotation=15;" parent="bGUCjfSoPUJQvvFktI7P-10" vertex="1">
          <mxGeometry x="18.013000000000034" y="23.62299999999982" width="14.79" height="10.85" as="geometry" />
        </mxCell>
        <mxCell id="MHl1cd-Qkk1gGBz24KGn-5" value="" style="rounded=1;whiteSpace=wrap;html=1;fillStyle=auto;strokeColor=default;align=center;verticalAlign=middle;fontFamily=Helvetica;fontSize=12;fontColor=default;fillColor=#E6E6E6;rotation=-15;" parent="bGUCjfSoPUJQvvFktI7P-10" vertex="1">
          <mxGeometry x="8.932999999999879" y="39.36299999999994" width="13.86" height="10.86" as="geometry" />
        </mxCell>
        <mxCell id="bGUCjfSoPUJQvvFktI7P-5" value="" style="rounded=1;whiteSpace=wrap;html=1;fillStyle=auto;strokeColor=default;align=center;verticalAlign=middle;fontFamily=Helvetica;fontSize=12;fontColor=default;fillColor=#E6E6E6;rotation=15;" vertex="1" parent="bGUCjfSoPUJQvvFktI7P-10">
          <mxGeometry x="32.79811480508897" y="39.36511444615121" width="14.79" height="10.85" as="geometry" />
        </mxCell>
        <mxCell id="bGUCjfSoPUJQvvFktI7P-6" value="" style="rounded=1;whiteSpace=wrap;html=1;fillStyle=auto;strokeColor=default;align=center;verticalAlign=middle;fontFamily=Helvetica;fontSize=12;fontColor=default;fillColor=#E6E6E6;rotation=15;" vertex="1" parent="bGUCjfSoPUJQvvFktI7P-10">
          <mxGeometry x="39.81811480508895" y="23.6251144461512" width="14.79" height="10.85" as="geometry" />
        </mxCell>
        <mxCell id="bGUCjfSoPUJQvvFktI7P-32" value="" style="group" vertex="1" connectable="0" parent="1">
          <mxGeometry x="120.99699999999984" y="-993" width="219.00300000000016" height="133.29999999999995" as="geometry" />
        </mxCell>
        <mxCell id="MHl1cd-Qkk1gGBz24KGn-11" value="" style="endArrow=classic;html=1;rounded=1;fontSize=12;startSize=8;endSize=8;curved=0;" parent="bGUCjfSoPUJQvvFktI7P-32" edge="1">
          <mxGeometry width="50" height="50" relative="1" as="geometry">
            <mxPoint x="63.003000000000156" y="14.120000000000005" as="sourcePoint" />
            <mxPoint x="94.00300000000016" y="65.12" as="targetPoint" />
            <Array as="points">
              <mxPoint x="94.00300000000016" y="14.120000000000005" />
            </Array>
          </mxGeometry>
        </mxCell>
        <mxCell id="MHl1cd-Qkk1gGBz24KGn-16" value="burro&lt;br&gt;330gr" style="text;strokeColor=none;fillColor=none;html=1;align=right;verticalAlign=middle;whiteSpace=wrap;rounded=0;fontSize=16;" parent="bGUCjfSoPUJQvvFktI7P-32" vertex="1">
          <mxGeometry y="1.59699999999998" width="59.06" height="30" as="geometry" />
        </mxCell>
        <mxCell id="MHl1cd-Qkk1gGBz24KGn-104" value="montare fino a che&#xa;non diventa uniforme" style="shape=image;verticalLabelPosition=middle;labelBackgroundColor=default;verticalAlign=middle;aspect=fixed;imageAspect=0;image=data:image/svg+xml,PHN2ZyB4bWxuczp4bGluaz0iaHR0cDovL3d3dy53My5vcmcvMTk5OS94bGluayIgeG1sbnM9Imh0dHA6Ly93d3cudzMub3JnLzIwMDAvc3ZnIiB4bWw6c3BhY2U9InByZXNlcnZlIiBzdHlsZT0iZW5hYmxlLWJhY2tncm91bmQ6bmV3IDAgMCAxMDAwIDEwMDA7IiB2aWV3Qm94PSIwIDAgMTAwMCAxMjUwIiB5PSIwcHgiIHg9IjBweCIgdmVyc2lvbj0iMS4xIj48Zz48cGF0aCBkPSJNNTQ0LjUwNjc3NDksODA0LjM0NDQ4MjRjMC44NTUyMjQ2LDQxLjQyNDU2MDUsMi44OTI1NzgxLDg0LjAxMzI0NDYtMi4xNjMyNjksMTI1LjI0MDQxNzUgICBjLTMuNTA5MjE2MywyOC42MTU1Mzk2LTIxLjUxMjgxNzQsNzAuMTgxMDkxMy01OC4wMzMyNjQyLDU2LjIwNDI4NDcgICBjLTM0LjYxMTE3NTUtMTMuMjQ2MjE1OC0zMi41NTgwNzUtNjQuNTUxNTc0Ny0zMy4zODA2NzYzLTk0LjMyNjQ3NzEgICBjLTEuMTk2OTYwNC00My4zMjQwOTY3LDAuMzUyODQ0Mi04Ni42ODA2NjQxLDIuMDE1ODY5MS0xMjkuOTcxNjE4NyAgIGMxLjU5MjgwNC00MS40NjI4Mjk2LDQuNjY2NzQ4LTgyLjgwNzY3ODIsOC41NjY1ODk0LTEyNC4xMTM4MzA2YzEuNzkwMTAwMS0xOC45NjAyMDUxLDIuNDc2NTMyLTQxLjE1Mzc0NzYsMTAuODgyMDE5LTU4LjUyOTExMzggICBjNy40OTU5NDEyLTE1LjQ5NTIzOTMsOC42NTk3NTk1LTM1LjAwMzA1MTgtMC40OTAxNDI4LTQ5Ljg5ODc0MjcgICBjLTQyLjAzNzEzOTktNjguNDM0NzIyOS04Ni4yMzM1MjA1LTEzNC45NjUwODc5LTExNy4xODczMTY5LTIwOS40Nzc4MTM3ICAgYy0xNC45OTg1MzUyLTM2LjEwNDg1ODQtMjguNDM3MzQ3NC03My45NDk2MTU1LTMwLjA0ODIxNzgtMTEzLjM3NDg0NzQgICBjLTEuMTY4ODIzMi0yOC42MDY0MzAxLDMuNTU5ODQ1LTU3LjUwODQ1MzQsMTQuMTkyMDQ3MS04NC4xMTI2Nzg1ICAgYzIzLjA5Mjg2NS01Ny43ODM1NjkzLDcyLjQ5MjQ5MjctOTcuMDYyMjEwMSwxMzMuNTY2MDA5NS0xMDcuODQ2ODI0NiAgIEM1NDAuMDk1MjE0OCwyLjE4ODAwNzgsNjA2LjY2MzI2OSwzMC4xMDc3NDIzLDY0NC4zMDYyNzQ0LDg4LjE4NTA0MzMgICBjMTguNTU0MDc3MSwyOC42MjYwNjgxLDI5LjA3MjAyMTUsNjMuNDU1MDQ3NiwzMC45MzM1MzI3LDk3LjQ0NTM1ODMgICBjMi4xNDgwMTAzLDM5LjIyMTA2OTMtOS4wMjQzNTMsNzcuMzAwNDc2MS0yMy4wMjcyMjE3LDExMy41MDE2NDc5ICAgYy0yOC42MjU3OTM1LDc0LjAwNjA0MjUtNjguOTMxODIzNywxNDMuNjg0MzI2Mi0xMTIuODgyMjAyMSwyMDkuNTU5MzU2NyAgIGMtMTAuNzU5MDMzMiwxNi4xMjYyODE3LTIxLjcyMTEzMDQsMzEuMjExMDU5Ni0xOC45OTU5NzE3LDUxLjY1MzA3NjIgICBjMS4yMDg2NzkyLDkuMDY3MjYwNyw1LjQ0MTUyODMsMTYuODY5ODczLDguMTQwMDc1NywyNS40NzU4OTExYzMuMDA5NjQzNiw5LjU5ODI2NjYsMy45NTUyMDAyLDE5LjY0OTM1Myw0Ljg5ODYyMDYsMjkuNjE2MzMzICAgYzMuOTgxNTY3NCw0Mi4wNjY0MDYyLDYuOTcwODg2Miw4NC4yMzU3Nzg4LDguOTYxMzAzNywxMjYuNDQyOTkzMiAgIEM1NDMuMzE1OTE4LDc2Mi42OTEzNDUyLDU0NC4wNDU0MTAyLDc4My41MTQ4OTI2LDU0NC41MDY3NzQ5LDgwNC4zNDQ0ODI0eiBNNDYzLjIzMjgxODYsNDkwLjY4NjEyNjcgICBjMi4wNzQwMzU2LTYuODc2MTU5Ny02LjY3MTUwODgtMTkuOTA0NTQxLTkuMjI0Mzk1OC0yNi4xOTA5NDg1Yy0zLjgwMTE0NzUtOS4zNjAxNjg1LTcuNTM2MjU0OS0xOC43NDcyODM5LTExLjE3NDEzMzMtMjguMTcyMTE5MSAgIGMtNy4yNTk5MTgyLTE4LjgwODQ3MTctMTQuMTM0MTU1My0zNy43NzIxNTU4LTIwLjM1MTM0ODktNTYuOTUyMjcwNSAgIGMtMTIuODQ2NTU3Ni0zOS42MzE3NDQ0LTIyLjgzNjQ4NjgtODAuMjI1NzY5LTI3LjkwMjE2MDYtMTIxLjYxOTc1MSAgIGMtOC4wMTg3NjgzLTY1LjUyNTIyMjgtNi43NzY3MDI5LTE0Ny40OTkyNTIzLDQxLjc5NzY2ODUtMTk4LjQ1NzMyMTIgICBjMjEuMDk3MjktMjIuMTMyNjE0MSw0OS41NDM3MDEyLTM1Ljk2MDg5OTQsODAuNTQwODAyLTMxLjIyMDQzMDQgICBjMzAuNjM2NDc0Niw0LjY4NTMxOTksNTUuMzc5Njk5NywyMy44OTk0ODQ2LDcyLjUxNTY4Niw0OS4wMjcxMTQ5ICAgYzQwLjkxNjg3MDEsNTkuOTk5Mzg5NiwzMy45Nzg2Mzc3LDEzOC4xOTM1MjcyLDE4LjkwNTc2MTcsMjA1LjQ5ODgwOTggICBjLTguMTU0NjAyMSwzNi40MTI3NTAyLTE4Ljg0OTM2NTIsNzIuMTg4MzI0LTMxLjYzNzkzOTUsMTA3LjIzNjkwOCAgIGMtNi4zNTcwNTU3LDE3LjQyMjI3MTctMTMuMjAwNTAwNSwzNC42NjQ5NzgtMjAuNDEyMzUzNSw1MS43NTAzOTY3Yy0zLjcyMDUyLDguODE0MjctNy41Mzk5NzgsMTcuNTg2NTE3My0xMS40NDE5NTU2LDI2LjMyMTk2MDQgICBjLTIuNzA5MTA2NCw2LjA2NTA2MzUtOC44MTk2NDExLDE0LjU1MTU0NDItOC4yODYzMTU5LDIxLjQ1OTk5MTUgICBjMjYuMTk5MzQwOC00MC4wODAyNjEyLDUwLjgyMjQ0ODctODEuMTk4NTQ3NCw3Mi4zMTYwNC0xMjQuMDE4MDY2NCAgIGMyMC44MDgyMjc1LTQxLjQ1NDI1NDIsNDEuMjU1Nzk4My04NS42NTYwOTc0LDUwLjA4OTQ3NzUtMTMxLjQ1NTMyMjMgICBjMTQuNTM1Mjc4My03NS4zNTk0NjY2LTE3LjI1NzE0MTEtMTU4LjUwMTEyOTItODcuNTA1NjE1Mi0xOTQuNDgxNDE0OCAgIEM1MTIuNjUxNTUwMyw5LjI5MTc0NzEsNDMzLjcyMzA4MzUsMjQuNjE0OTA2MywzODcuMjc1MDU0OSw3MC42MDc3NTc2ICAgYy01MC42MTAyOTA1LDUwLjExNDI1NzgtNTkuNDA2OTUxOSwxMjUuODgyODQzLTM5LjcxMDYzMjMsMTkxLjcyOTAwMzkgICBDMzcyLjE0NTE0MTYsMzQ0LjUxMTg0MDgsNDE3LjUyMTk0MjEsNDE4Ljg2NjgyMTMsNDYzLjIzMjgxODYsNDkwLjY4NjEyNjd6IE00NzguMjEyNTI0NCw0ODkuMDkzMTcwMiAgIGMwLjIzMTc4MS0wLjE2MzkwOTksMC40NjM1NjItMC4zMjc3NTg4LDAuNjk1MzczNS0wLjQ5MTY2ODdjLTExLjg2MzczOS03MC4zMzAyMzA3LTI0Ljc2MjYzNDMtMTQwLjQzMzgwNzQtMjkuODIxNzQ2OC0yMTEuNjc3MjQ2MSAgIGMtMi4yMjEwNjkzLTMxLjI3NzU1NzQtMy4yMjAxODQzLTYyLjY5NTExNDEtMi40ODUyNi05NC4wNDg1ODRjMC43MDAxOTUzLTI5Ljg3MjIzODIsMi4zODgxNTMxLTYxLjY1ODA4MTEsMTIuMDY3MTY5Mi05MC4xNzgyNzYxICAgYzcuNDI2ODc5OS0yMS44ODQwMjU2LDI0LjY5NTYxNzctNDUuODUzMjUyNCw1MC45MjA1MzIyLTQwLjcxOTMxNDYgICBjMjYuODk1NDE2Myw1LjI2NTE5MzksMzcuNDU3NDg5LDM1Ljk0ODMzMzcsNDIuNzU2NDM5Miw1OS4yNTU3MjJjNy4wMTY5Njc4LDMwLjg2NDE1ODYsNy40MTgyNzM5LDYzLjA4NjI1MDMsNy4xMTA1OTU3LDk0LjU5NTYwMzkgICBjLTAuMzA4ODk4OSwzMS42Mjk5NDM4LTIuMzU4MDkzMyw2My4yMjc5MzU4LTUuNzMzMzk4NCw5NC42NzQ1MyAgIGMtNi43NzQzNTMsNjMuMTEzNDMzOC0xOS4wNDc2Njg1LDEyNS4zMTE2NzYtMzIuODg1NDM3LDE4Ny4yMDI2NjcyICAgYzEwLjQ4MTg3MjYtMTYuNzEyMDY2NywxNy41Mjg1NjQ1LTM2LjI1NTM0MDYsMjUuMTYwNTgzNS01NC4zOTA4OTk3ICAgYzcuNTI5NDgtMTcuODkxNzU0MiwxNC42NDI1NzgxLTM1Ljk2MTAyOTEsMjEuMTg4MTEwNC01NC4yMzY1NDE3ICAgYzEzLjA5OTY3MDQtMzYuNTc0Njc2NSwyMy45MDA4Nzg5LTc0LjAwMzQ0ODUsMzEuMjUwMjQ0MS0xMTIuMTY5NzM4OCAgIGMxMi4wNzc3NTg4LTYyLjcyMjE4MzIsMTcuNTcxNzc3My0xMzcuMTcwNTkzMy0yNS43Mzg0MDMzLTE4OS45MzcxMTg1ICAgYy0xOC44NzQ4MTY5LTIyLjk5NTgwNzYtNDUuNzI5MzA5MS0zOS42NDQ2NzYyLTc2LjQyNzQyOTItMzYuMTIxNzYxMyAgIGMtMjguNTc4MjE2NiwzLjI3OTYxMzUtNTEuNzIzODE1OSwyNC43MjE2OTExLTY2LjQwOTI3MTIsNDguMjU3MDc2MyAgIGMtMTYuMDMxNTg1NywyNS42OTI4NjM1LTIyLjA5NzYyNTcsNTYuMjQ0ODQyNS0yNC43Mzc0ODc4LDg2LjAyNDg1NjYgICBjLTMuMjE3ODY1LDM2LjMwMDUwNjYsMC4wMzA4MjI4LDcyLjgzNDgwODMsNi4zNjAwMTU5LDEwOC42MjgwMjEyICAgQzQyNC4xNTkzNjI4LDM1NS40NDc1NzA4LDQ1MC44Nzk3MzAyLDQyMi4wMjM5ODY4LDQ3OC4yMTI1MjQ0LDQ4OS4wOTMxNzAyeiBNNTA3LjM5NDI4NzEsNDg4LjAwOTU4MjUgICBjMC40MTMwODU5LTAuODAwNjU5MiwwLjk5NDA0OTEtMS41MTk4MzY0LDEuMTcwNTkzMy0yLjMyNzM2MjFjOS4zOTY4NTA2LTQyLjk5NDI5MzIsMTguNTE4MjQ5NS04Ni4wNDc3NiwyNC45ODE2ODk1LTEyOS42MDE2ODQ2ICAgYzUuOTM2NzA2NS00MC4wMDQ0MjUsMTAuNjA5MzE0LTgwLjE1Njc5OTMsMTIuMjM5NTAyLTEyMC41OTc4ODUxICAgYzEuNjE0MTM1Ny00MC4wMzk4NDA3LDIuMTczMDk1Ny04MC4wNzQwNTA5LTUuNzMyMjk5OC0xMTkuNjM2NzU2OSAgIGMtMy4wNDM3MDEyLTE1LjIzMjYxMjYtNy40NDI0NDM4LTMwLjEwODYzNDktMTguMzk3MzM4OS00MS45NDcwMDYyYy0zLjc1MjE5NzMtNC4wNTQ3MDI4LTcuNzA2NDIwOS03Ljk4MTQyMjQtMTQuMjYyMTQ2LTguNjIxOTAyNSAgIEM1MDcuMzk0Mjg3MSwyMDYuMzg2MDMyMSw1MDcuMzk0Mjg3MSwzNDcuMTYwNDYxNCw1MDcuMzk0Mjg3MSw0ODguMDA5NTgyNXogTTQ5My4yMDAzMTc0LDQ5My4xNTIwMzg2ICAgYzAuMzQzMjYxNy0wLjExNzM0MDEsMC42ODY0MzE5LTAuMjM0NjQ5NywxLjAyOTYwMjEtMC4zNTE5ODk3YzAtMTQyLjA1NDc0ODUsMC0yODQuMTA5NDk3MSwwLTQyNi42MDg0OSAgIGMtMTEuNTA0MDg5NCwyLjE3NzA3MDYtMTkuMDQ0NDMzNiwxOS40NjQ1MDgxLTIyLjU3NTgzNjIsMjkuMDc0MDczOCAgIGMtNS4zMDMwMzk2LDE0LjQzMDM4OTQtNy45NTcwMzEyLDI5Ljg1MTA1OS05LjQ5Njg4NzIsNDUuMDk5MzM0NyAgIEM0NTAuMjcxOTQyMSwyNTguMDU3OTUyOSw0NzEuMTY5NjQ3MiwzNzcuODg1ODAzMiw0OTMuMjAwMzE3NCw0OTMuMTUyMDM4NnogTTQ5Mi40MTgwMjk4LDU2NS43MjU5NTIxICAgYy0xMS41MDQxODA5LDguNDk4NTk2Mi0xNS4wMTA4NjQzLDIzLjUzNTU4MzUtMTYuNzA2MzU5OSwzNy4wMDY3NzQ5ICAgYy0yLjA0MjMyNzksMTYuMjI2ODA2Ni0yLjYzNTY1MDYsMzIuNjk1OTIyOS0zLjA2ODgxNzEsNDkuMDMxMTg5ICAgYy0wLjg3NTM5NjcsMzMuMDEyMzkwMS0yLjE3NzI0NjEsNjYuMDYyOTI3Mi0xLjg3NjE1OTcsOTkuMDgzMTkwOSAgIGMwLjYwMTgwNjYsNjUuOTkzNDY5MiwyLjQ0OTc5ODYsMTMxLjk0Nzk5OCw0Ljk0MDMwNzYsMTk3Ljg5MTk2NzggICBDNDc5LjczODg2MTEsODIxLjQ1MzU1MjIsNDg2Ljg4NDg1NzIsNjk0LjI2NDQ2NTMsNDkyLjQxODAyOTgsNTY1LjcyNTk1MjF6Ii8+PC9nPjx0ZXh0IGZvbnQtZmFtaWx5PSInSGVsdmV0aWNhIE5ldWUnLCBIZWx2ZXRpY2EsIEFyaWFsLVVuaWNvZGUsIEFyaWFsLCBTYW5zLXNlcmlmIiBmb250LXdlaWdodD0iYm9sZCIgZm9udC1zaXplPSI1cHgiIGZpbGw9IiMwMDAwMDAiIHk9IjEwMTUiIHg9IjAiPkNyZWF0ZWQgYnkgQnJhZDwvdGV4dD48dGV4dCBmb250LWZhbWlseT0iJ0hlbHZldGljYSBOZXVlJywgSGVsdmV0aWNhLCBBcmlhbC1Vbmljb2RlLCBBcmlhbCwgU2Fucy1zZXJpZiIgZm9udC13ZWlnaHQ9ImJvbGQiIGZvbnQtc2l6ZT0iNXB4IiBmaWxsPSIjMDAwMDAwIiB5PSIxMDIwIiB4PSIwIj5mcm9tIHRoZSBOb3VuIFByb2plY3Q8L3RleHQ+PC9zdmc+;align=right;labelPosition=left;" parent="bGUCjfSoPUJQvvFktI7P-32" vertex="1">
          <mxGeometry x="9.003000000000185" y="58.5" width="59.84" height="74.8" as="geometry" />
        </mxCell>
        <mxCell id="B5AM4SCg36jv7hFeiET2-1" value="" style="endArrow=classic;html=1;rounded=1;fontSize=12;startSize=8;endSize=8;curved=0;" parent="bGUCjfSoPUJQvvFktI7P-32" edge="1">
          <mxGeometry width="50" height="50" relative="1" as="geometry">
            <mxPoint x="139.0029999999997" y="14.120000000000005" as="sourcePoint" />
            <mxPoint x="108.0029999999997" y="65.12" as="targetPoint" />
            <Array as="points">
              <mxPoint x="108.0029999999997" y="14.120000000000005" />
            </Array>
          </mxGeometry>
        </mxCell>
        <mxCell id="B5AM4SCg36jv7hFeiET2-2" value="zucchero&lt;div&gt;300gr&lt;/div&gt;" style="text;strokeColor=none;fillColor=none;html=1;align=left;verticalAlign=middle;whiteSpace=wrap;rounded=0;fontSize=16;" parent="bGUCjfSoPUJQvvFktI7P-32" vertex="1">
          <mxGeometry x="141.00300000000016" width="78" height="30" as="geometry" />
        </mxCell>
        <mxCell id="bGUCjfSoPUJQvvFktI7P-11" value="" style="group" vertex="1" connectable="0" parent="bGUCjfSoPUJQvvFktI7P-32">
          <mxGeometry x="57.003000000000156" y="61.5" width="95" height="51" as="geometry" />
        </mxCell>
        <mxCell id="bGUCjfSoPUJQvvFktI7P-12" value="" style="group" vertex="1" connectable="0" parent="bGUCjfSoPUJQvvFktI7P-11">
          <mxGeometry width="95" height="51" as="geometry" />
        </mxCell>
        <mxCell id="bGUCjfSoPUJQvvFktI7P-13" value="" style="endArrow=none;html=1;rounded=1;shadow=0;curved=0;strokeWidth=1.1811;" edge="1" parent="bGUCjfSoPUJQvvFktI7P-12">
          <mxGeometry width="50" height="50" relative="1" as="geometry">
            <mxPoint x="95" as="sourcePoint" />
            <mxPoint as="targetPoint" />
            <Array as="points">
              <mxPoint x="95" y="51" />
              <mxPoint x="48" y="51" />
              <mxPoint y="51" />
            </Array>
          </mxGeometry>
        </mxCell>
        <mxCell id="bGUCjfSoPUJQvvFktI7P-14" value="" style="endArrow=none;html=1;rounded=1;shadow=0;curved=0;strokeWidth=1.1811;" edge="1" parent="bGUCjfSoPUJQvvFktI7P-12">
          <mxGeometry width="50" height="50" relative="1" as="geometry">
            <mxPoint x="91" as="sourcePoint" />
            <mxPoint x="4" as="targetPoint" />
            <Array as="points">
              <mxPoint x="91" y="47" />
              <mxPoint x="4" y="47" />
            </Array>
          </mxGeometry>
        </mxCell>
        <mxCell id="bGUCjfSoPUJQvvFktI7P-15" value="" style="group" vertex="1" connectable="0" parent="bGUCjfSoPUJQvvFktI7P-11">
          <mxGeometry x="7.757000000000062" y="15.743000000000166" width="77.70599999999999" height="22.744000000000028" as="geometry" />
        </mxCell>
        <mxCell id="bGUCjfSoPUJQvvFktI7P-16" value="" style="group" vertex="1" connectable="0" parent="bGUCjfSoPUJQvvFktI7P-15">
          <mxGeometry x="0.12600000000000477" width="77.57999999999998" height="8.870000000000005" as="geometry" />
        </mxCell>
        <mxCell id="bGUCjfSoPUJQvvFktI7P-17" value="" style="pointerEvents=1;verticalLabelPosition=bottom;shadow=0;dashed=0;align=center;html=1;verticalAlign=top;shape=mxgraph.electrical.waveforms.sine_wave;fillStyle=dots;strokeColor=default;fontFamily=Helvetica;fontSize=12;fontColor=default;fillColor=#FF0000;" vertex="1" parent="bGUCjfSoPUJQvvFktI7P-16">
          <mxGeometry y="0.47999999999996135" width="19.68" height="7.87" as="geometry" />
        </mxCell>
        <mxCell id="bGUCjfSoPUJQvvFktI7P-18" value="" style="pointerEvents=1;verticalLabelPosition=bottom;shadow=0;dashed=0;align=center;html=1;verticalAlign=top;shape=mxgraph.electrical.waveforms.sine_wave;fillStyle=dots;strokeColor=default;fontFamily=Helvetica;fontSize=12;fontColor=default;fillColor=#FF0000;" vertex="1" parent="bGUCjfSoPUJQvvFktI7P-16">
          <mxGeometry x="39.359999999999985" width="19.78" height="8.87" as="geometry" />
        </mxCell>
        <mxCell id="bGUCjfSoPUJQvvFktI7P-19" value="" style="pointerEvents=1;verticalLabelPosition=bottom;shadow=0;dashed=0;align=center;html=1;verticalAlign=top;shape=mxgraph.electrical.waveforms.sine_wave;fillStyle=dots;strokeColor=default;fontFamily=Helvetica;fontSize=12;fontColor=default;fillColor=#FF0000;" vertex="1" parent="bGUCjfSoPUJQvvFktI7P-16">
          <mxGeometry x="19.679999999999993" y="0.47999999999996135" width="19.74" height="7.9" as="geometry" />
        </mxCell>
        <mxCell id="bGUCjfSoPUJQvvFktI7P-20" value="" style="pointerEvents=1;verticalLabelPosition=bottom;shadow=0;dashed=0;align=center;html=1;verticalAlign=top;shape=mxgraph.electrical.waveforms.sine_wave;fillStyle=dots;strokeColor=default;fontFamily=Helvetica;fontSize=12;fontColor=default;fillColor=#FF0000;" vertex="1" parent="bGUCjfSoPUJQvvFktI7P-16">
          <mxGeometry x="59.04999999999998" y="1" width="18.53" height="6.9" as="geometry" />
        </mxCell>
        <mxCell id="bGUCjfSoPUJQvvFktI7P-21" value="" style="group" vertex="1" connectable="0" parent="bGUCjfSoPUJQvvFktI7P-15">
          <mxGeometry x="0.06300000000000239" y="6.937000000000012" width="77.57999999999998" height="8.870000000000005" as="geometry" />
        </mxCell>
        <mxCell id="bGUCjfSoPUJQvvFktI7P-22" value="" style="pointerEvents=1;verticalLabelPosition=bottom;shadow=0;dashed=0;align=center;html=1;verticalAlign=top;shape=mxgraph.electrical.waveforms.sine_wave;fillStyle=dots;strokeColor=default;fontFamily=Helvetica;fontSize=12;fontColor=default;fillColor=#FF0000;" vertex="1" parent="bGUCjfSoPUJQvvFktI7P-21">
          <mxGeometry y="0.47999999999996135" width="19.68" height="7.87" as="geometry" />
        </mxCell>
        <mxCell id="bGUCjfSoPUJQvvFktI7P-23" value="" style="pointerEvents=1;verticalLabelPosition=bottom;shadow=0;dashed=0;align=center;html=1;verticalAlign=top;shape=mxgraph.electrical.waveforms.sine_wave;fillStyle=dots;strokeColor=default;fontFamily=Helvetica;fontSize=12;fontColor=default;fillColor=#FF0000;" vertex="1" parent="bGUCjfSoPUJQvvFktI7P-21">
          <mxGeometry x="39.359999999999985" width="19.78" height="8.87" as="geometry" />
        </mxCell>
        <mxCell id="bGUCjfSoPUJQvvFktI7P-24" value="" style="pointerEvents=1;verticalLabelPosition=bottom;shadow=0;dashed=0;align=center;html=1;verticalAlign=top;shape=mxgraph.electrical.waveforms.sine_wave;fillStyle=dots;strokeColor=default;fontFamily=Helvetica;fontSize=12;fontColor=default;fillColor=#FF0000;" vertex="1" parent="bGUCjfSoPUJQvvFktI7P-21">
          <mxGeometry x="19.679999999999993" y="0.47999999999996135" width="19.74" height="7.9" as="geometry" />
        </mxCell>
        <mxCell id="bGUCjfSoPUJQvvFktI7P-25" value="" style="pointerEvents=1;verticalLabelPosition=bottom;shadow=0;dashed=0;align=center;html=1;verticalAlign=top;shape=mxgraph.electrical.waveforms.sine_wave;fillStyle=dots;strokeColor=default;fontFamily=Helvetica;fontSize=12;fontColor=default;fillColor=#FF0000;" vertex="1" parent="bGUCjfSoPUJQvvFktI7P-21">
          <mxGeometry x="59.04999999999998" y="1" width="18.53" height="6.9" as="geometry" />
        </mxCell>
        <mxCell id="bGUCjfSoPUJQvvFktI7P-26" value="" style="group" vertex="1" connectable="0" parent="bGUCjfSoPUJQvvFktI7P-15">
          <mxGeometry y="13.874000000000024" width="77.57999999999998" height="8.870000000000005" as="geometry" />
        </mxCell>
        <mxCell id="bGUCjfSoPUJQvvFktI7P-27" value="" style="pointerEvents=1;verticalLabelPosition=bottom;shadow=0;dashed=0;align=center;html=1;verticalAlign=top;shape=mxgraph.electrical.waveforms.sine_wave;fillStyle=dots;strokeColor=default;fontFamily=Helvetica;fontSize=12;fontColor=default;fillColor=#FF0000;" vertex="1" parent="bGUCjfSoPUJQvvFktI7P-26">
          <mxGeometry y="0.47999999999996135" width="19.68" height="7.87" as="geometry" />
        </mxCell>
        <mxCell id="bGUCjfSoPUJQvvFktI7P-28" value="" style="pointerEvents=1;verticalLabelPosition=bottom;shadow=0;dashed=0;align=center;html=1;verticalAlign=top;shape=mxgraph.electrical.waveforms.sine_wave;fillStyle=dots;strokeColor=default;fontFamily=Helvetica;fontSize=12;fontColor=default;fillColor=#FF0000;" vertex="1" parent="bGUCjfSoPUJQvvFktI7P-26">
          <mxGeometry x="39.359999999999985" width="19.78" height="8.87" as="geometry" />
        </mxCell>
        <mxCell id="bGUCjfSoPUJQvvFktI7P-29" value="" style="pointerEvents=1;verticalLabelPosition=bottom;shadow=0;dashed=0;align=center;html=1;verticalAlign=top;shape=mxgraph.electrical.waveforms.sine_wave;fillStyle=dots;strokeColor=default;fontFamily=Helvetica;fontSize=12;fontColor=default;fillColor=#FF0000;" vertex="1" parent="bGUCjfSoPUJQvvFktI7P-26">
          <mxGeometry x="19.679999999999993" y="0.47999999999996135" width="19.74" height="7.9" as="geometry" />
        </mxCell>
        <mxCell id="bGUCjfSoPUJQvvFktI7P-30" value="" style="pointerEvents=1;verticalLabelPosition=bottom;shadow=0;dashed=0;align=center;html=1;verticalAlign=top;shape=mxgraph.electrical.waveforms.sine_wave;fillStyle=dots;strokeColor=default;fontFamily=Helvetica;fontSize=12;fontColor=default;fillColor=#FF0000;" vertex="1" parent="bGUCjfSoPUJQvvFktI7P-26">
          <mxGeometry x="59.04999999999998" y="1" width="18.53" height="6.9" as="geometry" />
        </mxCell>
        <mxCell id="bGUCjfSoPUJQvvFktI7P-33" value="" style="group" vertex="1" connectable="0" parent="1">
          <mxGeometry x="302" y="-696" width="374" height="130.75400000000013" as="geometry" />
        </mxCell>
        <mxCell id="MHl1cd-Qkk1gGBz24KGn-49" value="" style="endArrow=classic;html=1;rounded=1;fontSize=12;startSize=8;endSize=8;curved=0;" parent="bGUCjfSoPUJQvvFktI7P-33" edge="1">
          <mxGeometry width="50" height="50" relative="1" as="geometry">
            <mxPoint x="212" y="14.75" as="sourcePoint" />
            <mxPoint x="149" y="91.75" as="targetPoint" />
            <Array as="points">
              <mxPoint x="149" y="14.75" />
            </Array>
          </mxGeometry>
        </mxCell>
        <mxCell id="MHl1cd-Qkk1gGBz24KGn-50" value="farina 00&lt;div&gt;255gr&lt;/div&gt;" style="text;strokeColor=none;fillColor=none;html=1;align=left;verticalAlign=middle;whiteSpace=wrap;rounded=0;fontSize=16;" parent="bGUCjfSoPUJQvvFktI7P-33" vertex="1">
          <mxGeometry x="214.9999999999999" width="121.46" height="30" as="geometry" />
        </mxCell>
        <mxCell id="MHl1cd-Qkk1gGBz24KGn-77" value="" style="group" parent="bGUCjfSoPUJQvvFktI7P-33" vertex="1" connectable="0">
          <mxGeometry x="104.00400000000013" y="79.75400000000013" width="95" height="51" as="geometry" />
        </mxCell>
        <mxCell id="MHl1cd-Qkk1gGBz24KGn-78" value="" style="group" parent="MHl1cd-Qkk1gGBz24KGn-77" vertex="1" connectable="0">
          <mxGeometry width="95" height="51" as="geometry" />
        </mxCell>
        <mxCell id="MHl1cd-Qkk1gGBz24KGn-79" value="" style="endArrow=none;html=1;rounded=1;shadow=0;curved=0;strokeWidth=1.1811;" parent="MHl1cd-Qkk1gGBz24KGn-78" edge="1">
          <mxGeometry width="50" height="50" relative="1" as="geometry">
            <mxPoint x="95" as="sourcePoint" />
            <mxPoint as="targetPoint" />
            <Array as="points">
              <mxPoint x="95" y="51" />
              <mxPoint x="48" y="51" />
              <mxPoint y="51" />
            </Array>
          </mxGeometry>
        </mxCell>
        <mxCell id="MHl1cd-Qkk1gGBz24KGn-80" value="" style="endArrow=none;html=1;rounded=1;shadow=0;curved=0;strokeWidth=1.1811;" parent="MHl1cd-Qkk1gGBz24KGn-78" edge="1">
          <mxGeometry width="50" height="50" relative="1" as="geometry">
            <mxPoint x="91" as="sourcePoint" />
            <mxPoint x="4" as="targetPoint" />
            <Array as="points">
              <mxPoint x="91" y="47" />
              <mxPoint x="4" y="47" />
            </Array>
          </mxGeometry>
        </mxCell>
        <mxCell id="MHl1cd-Qkk1gGBz24KGn-81" value="" style="group" parent="MHl1cd-Qkk1gGBz24KGn-77" vertex="1" connectable="0">
          <mxGeometry x="7.757000000000062" y="15.743000000000166" width="77.70599999999999" height="22.744000000000028" as="geometry" />
        </mxCell>
        <mxCell id="MHl1cd-Qkk1gGBz24KGn-82" value="" style="group" parent="MHl1cd-Qkk1gGBz24KGn-81" vertex="1" connectable="0">
          <mxGeometry x="0.12600000000000477" width="77.57999999999998" height="8.870000000000005" as="geometry" />
        </mxCell>
        <mxCell id="MHl1cd-Qkk1gGBz24KGn-83" value="" style="pointerEvents=1;verticalLabelPosition=bottom;shadow=0;dashed=0;align=center;html=1;verticalAlign=top;shape=mxgraph.electrical.waveforms.sine_wave;fillStyle=dots;strokeColor=default;fontFamily=Helvetica;fontSize=12;fontColor=default;fillColor=#FF0000;" parent="MHl1cd-Qkk1gGBz24KGn-82" vertex="1">
          <mxGeometry y="0.47999999999996135" width="19.68" height="7.87" as="geometry" />
        </mxCell>
        <mxCell id="MHl1cd-Qkk1gGBz24KGn-84" value="" style="pointerEvents=1;verticalLabelPosition=bottom;shadow=0;dashed=0;align=center;html=1;verticalAlign=top;shape=mxgraph.electrical.waveforms.sine_wave;fillStyle=dots;strokeColor=default;fontFamily=Helvetica;fontSize=12;fontColor=default;fillColor=#FF0000;" parent="MHl1cd-Qkk1gGBz24KGn-82" vertex="1">
          <mxGeometry x="39.359999999999985" width="19.78" height="8.87" as="geometry" />
        </mxCell>
        <mxCell id="MHl1cd-Qkk1gGBz24KGn-85" value="" style="pointerEvents=1;verticalLabelPosition=bottom;shadow=0;dashed=0;align=center;html=1;verticalAlign=top;shape=mxgraph.electrical.waveforms.sine_wave;fillStyle=dots;strokeColor=default;fontFamily=Helvetica;fontSize=12;fontColor=default;fillColor=#FF0000;" parent="MHl1cd-Qkk1gGBz24KGn-82" vertex="1">
          <mxGeometry x="19.679999999999993" y="0.47999999999996135" width="19.74" height="7.9" as="geometry" />
        </mxCell>
        <mxCell id="MHl1cd-Qkk1gGBz24KGn-86" value="" style="pointerEvents=1;verticalLabelPosition=bottom;shadow=0;dashed=0;align=center;html=1;verticalAlign=top;shape=mxgraph.electrical.waveforms.sine_wave;fillStyle=dots;strokeColor=default;fontFamily=Helvetica;fontSize=12;fontColor=default;fillColor=#FF0000;" parent="MHl1cd-Qkk1gGBz24KGn-82" vertex="1">
          <mxGeometry x="59.04999999999998" y="1" width="18.53" height="6.9" as="geometry" />
        </mxCell>
        <mxCell id="MHl1cd-Qkk1gGBz24KGn-87" value="" style="group" parent="MHl1cd-Qkk1gGBz24KGn-81" vertex="1" connectable="0">
          <mxGeometry x="0.06300000000000239" y="6.937000000000012" width="77.57999999999998" height="8.870000000000005" as="geometry" />
        </mxCell>
        <mxCell id="MHl1cd-Qkk1gGBz24KGn-88" value="" style="pointerEvents=1;verticalLabelPosition=bottom;shadow=0;dashed=0;align=center;html=1;verticalAlign=top;shape=mxgraph.electrical.waveforms.sine_wave;fillStyle=dots;strokeColor=default;fontFamily=Helvetica;fontSize=12;fontColor=default;fillColor=#FF0000;" parent="MHl1cd-Qkk1gGBz24KGn-87" vertex="1">
          <mxGeometry y="0.47999999999996135" width="19.68" height="7.87" as="geometry" />
        </mxCell>
        <mxCell id="MHl1cd-Qkk1gGBz24KGn-89" value="" style="pointerEvents=1;verticalLabelPosition=bottom;shadow=0;dashed=0;align=center;html=1;verticalAlign=top;shape=mxgraph.electrical.waveforms.sine_wave;fillStyle=dots;strokeColor=default;fontFamily=Helvetica;fontSize=12;fontColor=default;fillColor=#FF0000;" parent="MHl1cd-Qkk1gGBz24KGn-87" vertex="1">
          <mxGeometry x="39.359999999999985" width="19.78" height="8.87" as="geometry" />
        </mxCell>
        <mxCell id="MHl1cd-Qkk1gGBz24KGn-90" value="" style="pointerEvents=1;verticalLabelPosition=bottom;shadow=0;dashed=0;align=center;html=1;verticalAlign=top;shape=mxgraph.electrical.waveforms.sine_wave;fillStyle=dots;strokeColor=default;fontFamily=Helvetica;fontSize=12;fontColor=default;fillColor=#FF0000;" parent="MHl1cd-Qkk1gGBz24KGn-87" vertex="1">
          <mxGeometry x="19.679999999999993" y="0.47999999999996135" width="19.74" height="7.9" as="geometry" />
        </mxCell>
        <mxCell id="MHl1cd-Qkk1gGBz24KGn-91" value="" style="pointerEvents=1;verticalLabelPosition=bottom;shadow=0;dashed=0;align=center;html=1;verticalAlign=top;shape=mxgraph.electrical.waveforms.sine_wave;fillStyle=dots;strokeColor=default;fontFamily=Helvetica;fontSize=12;fontColor=default;fillColor=#FF0000;" parent="MHl1cd-Qkk1gGBz24KGn-87" vertex="1">
          <mxGeometry x="59.04999999999998" y="1" width="18.53" height="6.9" as="geometry" />
        </mxCell>
        <mxCell id="MHl1cd-Qkk1gGBz24KGn-92" value="" style="group" parent="MHl1cd-Qkk1gGBz24KGn-81" vertex="1" connectable="0">
          <mxGeometry y="13.874000000000024" width="77.57999999999998" height="8.870000000000005" as="geometry" />
        </mxCell>
        <mxCell id="MHl1cd-Qkk1gGBz24KGn-93" value="" style="pointerEvents=1;verticalLabelPosition=bottom;shadow=0;dashed=0;align=center;html=1;verticalAlign=top;shape=mxgraph.electrical.waveforms.sine_wave;fillStyle=dots;strokeColor=default;fontFamily=Helvetica;fontSize=12;fontColor=default;fillColor=#FF0000;" parent="MHl1cd-Qkk1gGBz24KGn-92" vertex="1">
          <mxGeometry y="0.47999999999996135" width="19.68" height="7.87" as="geometry" />
        </mxCell>
        <mxCell id="MHl1cd-Qkk1gGBz24KGn-94" value="" style="pointerEvents=1;verticalLabelPosition=bottom;shadow=0;dashed=0;align=center;html=1;verticalAlign=top;shape=mxgraph.electrical.waveforms.sine_wave;fillStyle=dots;strokeColor=default;fontFamily=Helvetica;fontSize=12;fontColor=default;fillColor=#FF0000;" parent="MHl1cd-Qkk1gGBz24KGn-92" vertex="1">
          <mxGeometry x="39.359999999999985" width="19.78" height="8.87" as="geometry" />
        </mxCell>
        <mxCell id="MHl1cd-Qkk1gGBz24KGn-95" value="" style="pointerEvents=1;verticalLabelPosition=bottom;shadow=0;dashed=0;align=center;html=1;verticalAlign=top;shape=mxgraph.electrical.waveforms.sine_wave;fillStyle=dots;strokeColor=default;fontFamily=Helvetica;fontSize=12;fontColor=default;fillColor=#FF0000;" parent="MHl1cd-Qkk1gGBz24KGn-92" vertex="1">
          <mxGeometry x="19.679999999999993" y="0.47999999999996135" width="19.74" height="7.9" as="geometry" />
        </mxCell>
        <mxCell id="MHl1cd-Qkk1gGBz24KGn-96" value="" style="pointerEvents=1;verticalLabelPosition=bottom;shadow=0;dashed=0;align=center;html=1;verticalAlign=top;shape=mxgraph.electrical.waveforms.sine_wave;fillStyle=dots;strokeColor=default;fontFamily=Helvetica;fontSize=12;fontColor=default;fillColor=#FF0000;" parent="MHl1cd-Qkk1gGBz24KGn-92" vertex="1">
          <mxGeometry x="59.04999999999998" y="1" width="18.53" height="6.9" as="geometry" />
        </mxCell>
        <mxCell id="bGUCjfSoPUJQvvFktI7P-1" value="té macha polvere&lt;div&gt;20gr&lt;/div&gt;" style="text;strokeColor=none;fillColor=none;html=1;align=left;verticalAlign=middle;whiteSpace=wrap;rounded=0;fontSize=16;" vertex="1" parent="bGUCjfSoPUJQvvFktI7P-33">
          <mxGeometry x="215" y="43.75" width="159" height="30" as="geometry" />
        </mxCell>
        <mxCell id="bGUCjfSoPUJQvvFktI7P-2" value="" style="endArrow=classic;html=1;rounded=1;fontSize=12;startSize=8;endSize=8;curved=0;" edge="1" parent="bGUCjfSoPUJQvvFktI7P-33">
          <mxGeometry width="50" height="50" relative="1" as="geometry">
            <mxPoint x="215" y="49.75" as="sourcePoint" />
            <mxPoint x="164" y="91.75" as="targetPoint" />
            <Array as="points">
              <mxPoint x="164" y="49.75" />
            </Array>
          </mxGeometry>
        </mxCell>
        <mxCell id="bGUCjfSoPUJQvvFktI7P-3" value="" style="endArrow=classic;html=1;rounded=1;fontSize=12;startSize=8;endSize=8;curved=0;" edge="1" parent="bGUCjfSoPUJQvvFktI7P-33">
          <mxGeometry width="50" height="50" relative="1" as="geometry">
            <mxPoint x="116" y="37.75" as="sourcePoint" />
            <mxPoint x="134" y="91.75" as="targetPoint" />
            <Array as="points">
              <mxPoint x="134" y="37.75" />
            </Array>
          </mxGeometry>
        </mxCell>
        <mxCell id="bGUCjfSoPUJQvvFktI7P-4" value="Lievito&lt;div&gt;2 cucchiaini&lt;/div&gt;" style="text;strokeColor=none;fillColor=none;html=1;align=right;verticalAlign=middle;whiteSpace=wrap;rounded=0;fontSize=16;" vertex="1" parent="bGUCjfSoPUJQvvFktI7P-33">
          <mxGeometry y="19.75" width="117" height="30" as="geometry" />
        </mxCell>
        <mxCell id="B5AM4SCg36jv7hFeiET2-5" value="" style="ellipse;whiteSpace=wrap;html=1;rotation=90;fillColor=#FFFFFF;" parent="1" vertex="1">
          <mxGeometry x="440.99999999999994" y="-945" width="24" height="18" as="geometry" />
        </mxCell>
        <mxCell id="B5AM4SCg36jv7hFeiET2-6" value="" style="ellipse;whiteSpace=wrap;html=1;rotation=90;fillColor=#FFFFFF;" parent="1" vertex="1">
          <mxGeometry x="416.99999999999994" y="-945" width="24" height="18" as="geometry" />
        </mxCell>
        <mxCell id="B5AM4SCg36jv7hFeiET2-7" value="" style="ellipse;whiteSpace=wrap;html=1;rotation=90;fillColor=#FFFFFF;" parent="1" vertex="1">
          <mxGeometry x="392.99999999999994" y="-945" width="24" height="18" as="geometry" />
        </mxCell>
        <mxCell id="bGUCjfSoPUJQvvFktI7P-54" value="" style="ellipse;whiteSpace=wrap;html=1;rotation=90;fillColor=#FFFFFF;" vertex="1" parent="1">
          <mxGeometry x="393" y="-912.57" width="24" height="18" as="geometry" />
        </mxCell>
        <mxCell id="bGUCjfSoPUJQvvFktI7P-55" value="" style="ellipse;whiteSpace=wrap;html=1;rotation=90;fillColor=#FFFFFF;" vertex="1" parent="1">
          <mxGeometry x="417" y="-912.57" width="24" height="18" as="geometry" />
        </mxCell>
        <mxCell id="bGUCjfSoPUJQvvFktI7P-56" value="" style="ellipse;whiteSpace=wrap;html=1;rotation=90;fillColor=#FFFFFF;" vertex="1" parent="1">
          <mxGeometry x="441" y="-912" width="24" height="18" as="geometry" />
        </mxCell>
        <mxCell id="bGUCjfSoPUJQvvFktI7P-57" value="" style="ellipse;whiteSpace=wrap;html=1;rotation=90;fillColor=#FFFFFF;" vertex="1" parent="1">
          <mxGeometry x="417" y="-981" width="24" height="18" as="geometry" />
        </mxCell>
        <mxCell id="bGUCjfSoPUJQvvFktI7P-59" value="7 uova" style="text;strokeColor=none;fillColor=none;html=1;align=center;verticalAlign=middle;whiteSpace=wrap;rounded=0;fontSize=16;" vertex="1" parent="1">
          <mxGeometry x="384" y="-891" width="90" height="30" as="geometry" />
        </mxCell>
        <mxCell id="bGUCjfSoPUJQvvFktI7P-79" value="tuorli" style="endArrow=classic;html=1;rounded=1;fontSize=12;startSize=8;endSize=8;curved=0;" edge="1" parent="1">
          <mxGeometry width="50" height="50" relative="1" as="geometry">
            <mxPoint x="419.48" y="-861" as="sourcePoint" />
            <mxPoint x="315" y="-780" as="targetPoint" />
            <Array as="points">
              <mxPoint x="419" y="-828" />
              <mxPoint x="315" y="-828" />
            </Array>
          </mxGeometry>
        </mxCell>
        <mxCell id="bGUCjfSoPUJQvvFktI7P-80" value="" style="group" vertex="1" connectable="0" parent="1">
          <mxGeometry x="252" y="-774" width="95" height="51" as="geometry" />
        </mxCell>
        <mxCell id="bGUCjfSoPUJQvvFktI7P-81" value="" style="group" vertex="1" connectable="0" parent="bGUCjfSoPUJQvvFktI7P-80">
          <mxGeometry width="95" height="51" as="geometry" />
        </mxCell>
        <mxCell id="bGUCjfSoPUJQvvFktI7P-82" value="" style="endArrow=none;html=1;rounded=1;shadow=0;curved=0;strokeWidth=1.1811;" edge="1" parent="bGUCjfSoPUJQvvFktI7P-81">
          <mxGeometry width="50" height="50" relative="1" as="geometry">
            <mxPoint x="95" as="sourcePoint" />
            <mxPoint as="targetPoint" />
            <Array as="points">
              <mxPoint x="95" y="51" />
              <mxPoint x="48" y="51" />
              <mxPoint y="51" />
            </Array>
          </mxGeometry>
        </mxCell>
        <mxCell id="bGUCjfSoPUJQvvFktI7P-83" value="" style="endArrow=none;html=1;rounded=1;shadow=0;curved=0;strokeWidth=1.1811;" edge="1" parent="bGUCjfSoPUJQvvFktI7P-81">
          <mxGeometry width="50" height="50" relative="1" as="geometry">
            <mxPoint x="91" as="sourcePoint" />
            <mxPoint x="4" as="targetPoint" />
            <Array as="points">
              <mxPoint x="91" y="47" />
              <mxPoint x="4" y="47" />
            </Array>
          </mxGeometry>
        </mxCell>
        <mxCell id="bGUCjfSoPUJQvvFktI7P-84" value="" style="group" vertex="1" connectable="0" parent="bGUCjfSoPUJQvvFktI7P-80">
          <mxGeometry x="7.757000000000062" y="15.743000000000166" width="77.70599999999999" height="22.744000000000028" as="geometry" />
        </mxCell>
        <mxCell id="bGUCjfSoPUJQvvFktI7P-85" value="" style="group" vertex="1" connectable="0" parent="bGUCjfSoPUJQvvFktI7P-84">
          <mxGeometry x="0.12600000000000477" width="77.57999999999998" height="8.870000000000005" as="geometry" />
        </mxCell>
        <mxCell id="bGUCjfSoPUJQvvFktI7P-86" value="" style="pointerEvents=1;verticalLabelPosition=bottom;shadow=0;dashed=0;align=center;html=1;verticalAlign=top;shape=mxgraph.electrical.waveforms.sine_wave;fillStyle=dots;strokeColor=default;fontFamily=Helvetica;fontSize=12;fontColor=default;fillColor=#FF0000;" vertex="1" parent="bGUCjfSoPUJQvvFktI7P-85">
          <mxGeometry y="0.47999999999996135" width="19.68" height="7.87" as="geometry" />
        </mxCell>
        <mxCell id="bGUCjfSoPUJQvvFktI7P-87" value="" style="pointerEvents=1;verticalLabelPosition=bottom;shadow=0;dashed=0;align=center;html=1;verticalAlign=top;shape=mxgraph.electrical.waveforms.sine_wave;fillStyle=dots;strokeColor=default;fontFamily=Helvetica;fontSize=12;fontColor=default;fillColor=#FF0000;" vertex="1" parent="bGUCjfSoPUJQvvFktI7P-85">
          <mxGeometry x="39.359999999999985" width="19.78" height="8.87" as="geometry" />
        </mxCell>
        <mxCell id="bGUCjfSoPUJQvvFktI7P-88" value="" style="pointerEvents=1;verticalLabelPosition=bottom;shadow=0;dashed=0;align=center;html=1;verticalAlign=top;shape=mxgraph.electrical.waveforms.sine_wave;fillStyle=dots;strokeColor=default;fontFamily=Helvetica;fontSize=12;fontColor=default;fillColor=#FF0000;" vertex="1" parent="bGUCjfSoPUJQvvFktI7P-85">
          <mxGeometry x="19.679999999999993" y="0.47999999999996135" width="19.74" height="7.9" as="geometry" />
        </mxCell>
        <mxCell id="bGUCjfSoPUJQvvFktI7P-89" value="" style="pointerEvents=1;verticalLabelPosition=bottom;shadow=0;dashed=0;align=center;html=1;verticalAlign=top;shape=mxgraph.electrical.waveforms.sine_wave;fillStyle=dots;strokeColor=default;fontFamily=Helvetica;fontSize=12;fontColor=default;fillColor=#FF0000;" vertex="1" parent="bGUCjfSoPUJQvvFktI7P-85">
          <mxGeometry x="59.04999999999998" y="1" width="18.53" height="6.9" as="geometry" />
        </mxCell>
        <mxCell id="bGUCjfSoPUJQvvFktI7P-90" value="" style="group" vertex="1" connectable="0" parent="bGUCjfSoPUJQvvFktI7P-84">
          <mxGeometry x="0.06300000000000239" y="6.937000000000012" width="77.57999999999998" height="8.870000000000005" as="geometry" />
        </mxCell>
        <mxCell id="bGUCjfSoPUJQvvFktI7P-91" value="" style="pointerEvents=1;verticalLabelPosition=bottom;shadow=0;dashed=0;align=center;html=1;verticalAlign=top;shape=mxgraph.electrical.waveforms.sine_wave;fillStyle=dots;strokeColor=default;fontFamily=Helvetica;fontSize=12;fontColor=default;fillColor=#FF0000;" vertex="1" parent="bGUCjfSoPUJQvvFktI7P-90">
          <mxGeometry y="0.47999999999996135" width="19.68" height="7.87" as="geometry" />
        </mxCell>
        <mxCell id="bGUCjfSoPUJQvvFktI7P-92" value="" style="pointerEvents=1;verticalLabelPosition=bottom;shadow=0;dashed=0;align=center;html=1;verticalAlign=top;shape=mxgraph.electrical.waveforms.sine_wave;fillStyle=dots;strokeColor=default;fontFamily=Helvetica;fontSize=12;fontColor=default;fillColor=#FF0000;" vertex="1" parent="bGUCjfSoPUJQvvFktI7P-90">
          <mxGeometry x="39.359999999999985" width="19.78" height="8.87" as="geometry" />
        </mxCell>
        <mxCell id="bGUCjfSoPUJQvvFktI7P-93" value="" style="pointerEvents=1;verticalLabelPosition=bottom;shadow=0;dashed=0;align=center;html=1;verticalAlign=top;shape=mxgraph.electrical.waveforms.sine_wave;fillStyle=dots;strokeColor=default;fontFamily=Helvetica;fontSize=12;fontColor=default;fillColor=#FF0000;" vertex="1" parent="bGUCjfSoPUJQvvFktI7P-90">
          <mxGeometry x="19.679999999999993" y="0.47999999999996135" width="19.74" height="7.9" as="geometry" />
        </mxCell>
        <mxCell id="bGUCjfSoPUJQvvFktI7P-94" value="" style="pointerEvents=1;verticalLabelPosition=bottom;shadow=0;dashed=0;align=center;html=1;verticalAlign=top;shape=mxgraph.electrical.waveforms.sine_wave;fillStyle=dots;strokeColor=default;fontFamily=Helvetica;fontSize=12;fontColor=default;fillColor=#FF0000;" vertex="1" parent="bGUCjfSoPUJQvvFktI7P-90">
          <mxGeometry x="59.04999999999998" y="1" width="18.53" height="6.9" as="geometry" />
        </mxCell>
        <mxCell id="bGUCjfSoPUJQvvFktI7P-95" value="" style="group" vertex="1" connectable="0" parent="bGUCjfSoPUJQvvFktI7P-84">
          <mxGeometry y="13.874000000000024" width="77.57999999999998" height="8.870000000000005" as="geometry" />
        </mxCell>
        <mxCell id="bGUCjfSoPUJQvvFktI7P-96" value="" style="pointerEvents=1;verticalLabelPosition=bottom;shadow=0;dashed=0;align=center;html=1;verticalAlign=top;shape=mxgraph.electrical.waveforms.sine_wave;fillStyle=dots;strokeColor=default;fontFamily=Helvetica;fontSize=12;fontColor=default;fillColor=#FF0000;" vertex="1" parent="bGUCjfSoPUJQvvFktI7P-95">
          <mxGeometry y="0.47999999999996135" width="19.68" height="7.87" as="geometry" />
        </mxCell>
        <mxCell id="bGUCjfSoPUJQvvFktI7P-97" value="" style="pointerEvents=1;verticalLabelPosition=bottom;shadow=0;dashed=0;align=center;html=1;verticalAlign=top;shape=mxgraph.electrical.waveforms.sine_wave;fillStyle=dots;strokeColor=default;fontFamily=Helvetica;fontSize=12;fontColor=default;fillColor=#FF0000;" vertex="1" parent="bGUCjfSoPUJQvvFktI7P-95">
          <mxGeometry x="39.359999999999985" width="19.78" height="8.87" as="geometry" />
        </mxCell>
        <mxCell id="bGUCjfSoPUJQvvFktI7P-98" value="" style="pointerEvents=1;verticalLabelPosition=bottom;shadow=0;dashed=0;align=center;html=1;verticalAlign=top;shape=mxgraph.electrical.waveforms.sine_wave;fillStyle=dots;strokeColor=default;fontFamily=Helvetica;fontSize=12;fontColor=default;fillColor=#FF0000;" vertex="1" parent="bGUCjfSoPUJQvvFktI7P-95">
          <mxGeometry x="19.679999999999993" y="0.47999999999996135" width="19.74" height="7.9" as="geometry" />
        </mxCell>
        <mxCell id="bGUCjfSoPUJQvvFktI7P-99" value="" style="pointerEvents=1;verticalLabelPosition=bottom;shadow=0;dashed=0;align=center;html=1;verticalAlign=top;shape=mxgraph.electrical.waveforms.sine_wave;fillStyle=dots;strokeColor=default;fontFamily=Helvetica;fontSize=12;fontColor=default;fillColor=#FF0000;" vertex="1" parent="bGUCjfSoPUJQvvFktI7P-95">
          <mxGeometry x="59.04999999999998" y="1" width="18.53" height="6.9" as="geometry" />
        </mxCell>
        <mxCell id="bGUCjfSoPUJQvvFktI7P-101" value="montare fino a che&#xa;non diventa uniforme" style="shape=image;verticalLabelPosition=middle;labelBackgroundColor=default;verticalAlign=middle;aspect=fixed;imageAspect=0;image=data:image/svg+xml,PHN2ZyB4bWxuczp4bGluaz0iaHR0cDovL3d3dy53My5vcmcvMTk5OS94bGluayIgeG1sbnM9Imh0dHA6Ly93d3cudzMub3JnLzIwMDAvc3ZnIiB4bWw6c3BhY2U9InByZXNlcnZlIiBzdHlsZT0iZW5hYmxlLWJhY2tncm91bmQ6bmV3IDAgMCAxMDAwIDEwMDA7IiB2aWV3Qm94PSIwIDAgMTAwMCAxMjUwIiB5PSIwcHgiIHg9IjBweCIgdmVyc2lvbj0iMS4xIj48Zz48cGF0aCBkPSJNNTQ0LjUwNjc3NDksODA0LjM0NDQ4MjRjMC44NTUyMjQ2LDQxLjQyNDU2MDUsMi44OTI1NzgxLDg0LjAxMzI0NDYtMi4xNjMyNjksMTI1LjI0MDQxNzUgICBjLTMuNTA5MjE2MywyOC42MTU1Mzk2LTIxLjUxMjgxNzQsNzAuMTgxMDkxMy01OC4wMzMyNjQyLDU2LjIwNDI4NDcgICBjLTM0LjYxMTE3NTUtMTMuMjQ2MjE1OC0zMi41NTgwNzUtNjQuNTUxNTc0Ny0zMy4zODA2NzYzLTk0LjMyNjQ3NzEgICBjLTEuMTk2OTYwNC00My4zMjQwOTY3LDAuMzUyODQ0Mi04Ni42ODA2NjQxLDIuMDE1ODY5MS0xMjkuOTcxNjE4NyAgIGMxLjU5MjgwNC00MS40NjI4Mjk2LDQuNjY2NzQ4LTgyLjgwNzY3ODIsOC41NjY1ODk0LTEyNC4xMTM4MzA2YzEuNzkwMTAwMS0xOC45NjAyMDUxLDIuNDc2NTMyLTQxLjE1Mzc0NzYsMTAuODgyMDE5LTU4LjUyOTExMzggICBjNy40OTU5NDEyLTE1LjQ5NTIzOTMsOC42NTk3NTk1LTM1LjAwMzA1MTgtMC40OTAxNDI4LTQ5Ljg5ODc0MjcgICBjLTQyLjAzNzEzOTktNjguNDM0NzIyOS04Ni4yMzM1MjA1LTEzNC45NjUwODc5LTExNy4xODczMTY5LTIwOS40Nzc4MTM3ICAgYy0xNC45OTg1MzUyLTM2LjEwNDg1ODQtMjguNDM3MzQ3NC03My45NDk2MTU1LTMwLjA0ODIxNzgtMTEzLjM3NDg0NzQgICBjLTEuMTY4ODIzMi0yOC42MDY0MzAxLDMuNTU5ODQ1LTU3LjUwODQ1MzQsMTQuMTkyMDQ3MS04NC4xMTI2Nzg1ICAgYzIzLjA5Mjg2NS01Ny43ODM1NjkzLDcyLjQ5MjQ5MjctOTcuMDYyMjEwMSwxMzMuNTY2MDA5NS0xMDcuODQ2ODI0NiAgIEM1NDAuMDk1MjE0OCwyLjE4ODAwNzgsNjA2LjY2MzI2OSwzMC4xMDc3NDIzLDY0NC4zMDYyNzQ0LDg4LjE4NTA0MzMgICBjMTguNTU0MDc3MSwyOC42MjYwNjgxLDI5LjA3MjAyMTUsNjMuNDU1MDQ3NiwzMC45MzM1MzI3LDk3LjQ0NTM1ODMgICBjMi4xNDgwMTAzLDM5LjIyMTA2OTMtOS4wMjQzNTMsNzcuMzAwNDc2MS0yMy4wMjcyMjE3LDExMy41MDE2NDc5ICAgYy0yOC42MjU3OTM1LDc0LjAwNjA0MjUtNjguOTMxODIzNywxNDMuNjg0MzI2Mi0xMTIuODgyMjAyMSwyMDkuNTU5MzU2NyAgIGMtMTAuNzU5MDMzMiwxNi4xMjYyODE3LTIxLjcyMTEzMDQsMzEuMjExMDU5Ni0xOC45OTU5NzE3LDUxLjY1MzA3NjIgICBjMS4yMDg2NzkyLDkuMDY3MjYwNyw1LjQ0MTUyODMsMTYuODY5ODczLDguMTQwMDc1NywyNS40NzU4OTExYzMuMDA5NjQzNiw5LjU5ODI2NjYsMy45NTUyMDAyLDE5LjY0OTM1Myw0Ljg5ODYyMDYsMjkuNjE2MzMzICAgYzMuOTgxNTY3NCw0Mi4wNjY0MDYyLDYuOTcwODg2Miw4NC4yMzU3Nzg4LDguOTYxMzAzNywxMjYuNDQyOTkzMiAgIEM1NDMuMzE1OTE4LDc2Mi42OTEzNDUyLDU0NC4wNDU0MTAyLDc4My41MTQ4OTI2LDU0NC41MDY3NzQ5LDgwNC4zNDQ0ODI0eiBNNDYzLjIzMjgxODYsNDkwLjY4NjEyNjcgICBjMi4wNzQwMzU2LTYuODc2MTU5Ny02LjY3MTUwODgtMTkuOTA0NTQxLTkuMjI0Mzk1OC0yNi4xOTA5NDg1Yy0zLjgwMTE0NzUtOS4zNjAxNjg1LTcuNTM2MjU0OS0xOC43NDcyODM5LTExLjE3NDEzMzMtMjguMTcyMTE5MSAgIGMtNy4yNTk5MTgyLTE4LjgwODQ3MTctMTQuMTM0MTU1My0zNy43NzIxNTU4LTIwLjM1MTM0ODktNTYuOTUyMjcwNSAgIGMtMTIuODQ2NTU3Ni0zOS42MzE3NDQ0LTIyLjgzNjQ4NjgtODAuMjI1NzY5LTI3LjkwMjE2MDYtMTIxLjYxOTc1MSAgIGMtOC4wMTg3NjgzLTY1LjUyNTIyMjgtNi43NzY3MDI5LTE0Ny40OTkyNTIzLDQxLjc5NzY2ODUtMTk4LjQ1NzMyMTIgICBjMjEuMDk3MjktMjIuMTMyNjE0MSw0OS41NDM3MDEyLTM1Ljk2MDg5OTQsODAuNTQwODAyLTMxLjIyMDQzMDQgICBjMzAuNjM2NDc0Niw0LjY4NTMxOTksNTUuMzc5Njk5NywyMy44OTk0ODQ2LDcyLjUxNTY4Niw0OS4wMjcxMTQ5ICAgYzQwLjkxNjg3MDEsNTkuOTk5Mzg5NiwzMy45Nzg2Mzc3LDEzOC4xOTM1MjcyLDE4LjkwNTc2MTcsMjA1LjQ5ODgwOTggICBjLTguMTU0NjAyMSwzNi40MTI3NTAyLTE4Ljg0OTM2NTIsNzIuMTg4MzI0LTMxLjYzNzkzOTUsMTA3LjIzNjkwOCAgIGMtNi4zNTcwNTU3LDE3LjQyMjI3MTctMTMuMjAwNTAwNSwzNC42NjQ5NzgtMjAuNDEyMzUzNSw1MS43NTAzOTY3Yy0zLjcyMDUyLDguODE0MjctNy41Mzk5NzgsMTcuNTg2NTE3My0xMS40NDE5NTU2LDI2LjMyMTk2MDQgICBjLTIuNzA5MTA2NCw2LjA2NTA2MzUtOC44MTk2NDExLDE0LjU1MTU0NDItOC4yODYzMTU5LDIxLjQ1OTk5MTUgICBjMjYuMTk5MzQwOC00MC4wODAyNjEyLDUwLjgyMjQ0ODctODEuMTk4NTQ3NCw3Mi4zMTYwNC0xMjQuMDE4MDY2NCAgIGMyMC44MDgyMjc1LTQxLjQ1NDI1NDIsNDEuMjU1Nzk4My04NS42NTYwOTc0LDUwLjA4OTQ3NzUtMTMxLjQ1NTMyMjMgICBjMTQuNTM1Mjc4My03NS4zNTk0NjY2LTE3LjI1NzE0MTEtMTU4LjUwMTEyOTItODcuNTA1NjE1Mi0xOTQuNDgxNDE0OCAgIEM1MTIuNjUxNTUwMyw5LjI5MTc0NzEsNDMzLjcyMzA4MzUsMjQuNjE0OTA2MywzODcuMjc1MDU0OSw3MC42MDc3NTc2ICAgYy01MC42MTAyOTA1LDUwLjExNDI1NzgtNTkuNDA2OTUxOSwxMjUuODgyODQzLTM5LjcxMDYzMjMsMTkxLjcyOTAwMzkgICBDMzcyLjE0NTE0MTYsMzQ0LjUxMTg0MDgsNDE3LjUyMTk0MjEsNDE4Ljg2NjgyMTMsNDYzLjIzMjgxODYsNDkwLjY4NjEyNjd6IE00NzguMjEyNTI0NCw0ODkuMDkzMTcwMiAgIGMwLjIzMTc4MS0wLjE2MzkwOTksMC40NjM1NjItMC4zMjc3NTg4LDAuNjk1MzczNS0wLjQ5MTY2ODdjLTExLjg2MzczOS03MC4zMzAyMzA3LTI0Ljc2MjYzNDMtMTQwLjQzMzgwNzQtMjkuODIxNzQ2OC0yMTEuNjc3MjQ2MSAgIGMtMi4yMjEwNjkzLTMxLjI3NzU1NzQtMy4yMjAxODQzLTYyLjY5NTExNDEtMi40ODUyNi05NC4wNDg1ODRjMC43MDAxOTUzLTI5Ljg3MjIzODIsMi4zODgxNTMxLTYxLjY1ODA4MTEsMTIuMDY3MTY5Mi05MC4xNzgyNzYxICAgYzcuNDI2ODc5OS0yMS44ODQwMjU2LDI0LjY5NTYxNzctNDUuODUzMjUyNCw1MC45MjA1MzIyLTQwLjcxOTMxNDYgICBjMjYuODk1NDE2Myw1LjI2NTE5MzksMzcuNDU3NDg5LDM1Ljk0ODMzMzcsNDIuNzU2NDM5Miw1OS4yNTU3MjJjNy4wMTY5Njc4LDMwLjg2NDE1ODYsNy40MTgyNzM5LDYzLjA4NjI1MDMsNy4xMTA1OTU3LDk0LjU5NTYwMzkgICBjLTAuMzA4ODk4OSwzMS42Mjk5NDM4LTIuMzU4MDkzMyw2My4yMjc5MzU4LTUuNzMzMzk4NCw5NC42NzQ1MyAgIGMtNi43NzQzNTMsNjMuMTEzNDMzOC0xOS4wNDc2Njg1LDEyNS4zMTE2NzYtMzIuODg1NDM3LDE4Ny4yMDI2NjcyICAgYzEwLjQ4MTg3MjYtMTYuNzEyMDY2NywxNy41Mjg1NjQ1LTM2LjI1NTM0MDYsMjUuMTYwNTgzNS01NC4zOTA4OTk3ICAgYzcuNTI5NDgtMTcuODkxNzU0MiwxNC42NDI1NzgxLTM1Ljk2MTAyOTEsMjEuMTg4MTEwNC01NC4yMzY1NDE3ICAgYzEzLjA5OTY3MDQtMzYuNTc0Njc2NSwyMy45MDA4Nzg5LTc0LjAwMzQ0ODUsMzEuMjUwMjQ0MS0xMTIuMTY5NzM4OCAgIGMxMi4wNzc3NTg4LTYyLjcyMjE4MzIsMTcuNTcxNzc3My0xMzcuMTcwNTkzMy0yNS43Mzg0MDMzLTE4OS45MzcxMTg1ICAgYy0xOC44NzQ4MTY5LTIyLjk5NTgwNzYtNDUuNzI5MzA5MS0zOS42NDQ2NzYyLTc2LjQyNzQyOTItMzYuMTIxNzYxMyAgIGMtMjguNTc4MjE2NiwzLjI3OTYxMzUtNTEuNzIzODE1OSwyNC43MjE2OTExLTY2LjQwOTI3MTIsNDguMjU3MDc2MyAgIGMtMTYuMDMxNTg1NywyNS42OTI4NjM1LTIyLjA5NzYyNTcsNTYuMjQ0ODQyNS0yNC43Mzc0ODc4LDg2LjAyNDg1NjYgICBjLTMuMjE3ODY1LDM2LjMwMDUwNjYsMC4wMzA4MjI4LDcyLjgzNDgwODMsNi4zNjAwMTU5LDEwOC42MjgwMjEyICAgQzQyNC4xNTkzNjI4LDM1NS40NDc1NzA4LDQ1MC44Nzk3MzAyLDQyMi4wMjM5ODY4LDQ3OC4yMTI1MjQ0LDQ4OS4wOTMxNzAyeiBNNTA3LjM5NDI4NzEsNDg4LjAwOTU4MjUgICBjMC40MTMwODU5LTAuODAwNjU5MiwwLjk5NDA0OTEtMS41MTk4MzY0LDEuMTcwNTkzMy0yLjMyNzM2MjFjOS4zOTY4NTA2LTQyLjk5NDI5MzIsMTguNTE4MjQ5NS04Ni4wNDc3NiwyNC45ODE2ODk1LTEyOS42MDE2ODQ2ICAgYzUuOTM2NzA2NS00MC4wMDQ0MjUsMTAuNjA5MzE0LTgwLjE1Njc5OTMsMTIuMjM5NTAyLTEyMC41OTc4ODUxICAgYzEuNjE0MTM1Ny00MC4wMzk4NDA3LDIuMTczMDk1Ny04MC4wNzQwNTA5LTUuNzMyMjk5OC0xMTkuNjM2NzU2OSAgIGMtMy4wNDM3MDEyLTE1LjIzMjYxMjYtNy40NDI0NDM4LTMwLjEwODYzNDktMTguMzk3MzM4OS00MS45NDcwMDYyYy0zLjc1MjE5NzMtNC4wNTQ3MDI4LTcuNzA2NDIwOS03Ljk4MTQyMjQtMTQuMjYyMTQ2LTguNjIxOTAyNSAgIEM1MDcuMzk0Mjg3MSwyMDYuMzg2MDMyMSw1MDcuMzk0Mjg3MSwzNDcuMTYwNDYxNCw1MDcuMzk0Mjg3MSw0ODguMDA5NTgyNXogTTQ5My4yMDAzMTc0LDQ5My4xNTIwMzg2ICAgYzAuMzQzMjYxNy0wLjExNzM0MDEsMC42ODY0MzE5LTAuMjM0NjQ5NywxLjAyOTYwMjEtMC4zNTE5ODk3YzAtMTQyLjA1NDc0ODUsMC0yODQuMTA5NDk3MSwwLTQyNi42MDg0OSAgIGMtMTEuNTA0MDg5NCwyLjE3NzA3MDYtMTkuMDQ0NDMzNiwxOS40NjQ1MDgxLTIyLjU3NTgzNjIsMjkuMDc0MDczOCAgIGMtNS4zMDMwMzk2LDE0LjQzMDM4OTQtNy45NTcwMzEyLDI5Ljg1MTA1OS05LjQ5Njg4NzIsNDUuMDk5MzM0NyAgIEM0NTAuMjcxOTQyMSwyNTguMDU3OTUyOSw0NzEuMTY5NjQ3MiwzNzcuODg1ODAzMiw0OTMuMjAwMzE3NCw0OTMuMTUyMDM4NnogTTQ5Mi40MTgwMjk4LDU2NS43MjU5NTIxICAgYy0xMS41MDQxODA5LDguNDk4NTk2Mi0xNS4wMTA4NjQzLDIzLjUzNTU4MzUtMTYuNzA2MzU5OSwzNy4wMDY3NzQ5ICAgYy0yLjA0MjMyNzksMTYuMjI2ODA2Ni0yLjYzNTY1MDYsMzIuNjk1OTIyOS0zLjA2ODgxNzEsNDkuMDMxMTg5ICAgYy0wLjg3NTM5NjcsMzMuMDEyMzkwMS0yLjE3NzI0NjEsNjYuMDYyOTI3Mi0xLjg3NjE1OTcsOTkuMDgzMTkwOSAgIGMwLjYwMTgwNjYsNjUuOTkzNDY5MiwyLjQ0OTc5ODYsMTMxLjk0Nzk5OCw0Ljk0MDMwNzYsMTk3Ljg5MTk2NzggICBDNDc5LjczODg2MTEsODIxLjQ1MzU1MjIsNDg2Ljg4NDg1NzIsNjk0LjI2NDQ2NTMsNDkyLjQxODAyOTgsNTY1LjcyNTk1MjF6Ii8+PC9nPjx0ZXh0IGZvbnQtZmFtaWx5PSInSGVsdmV0aWNhIE5ldWUnLCBIZWx2ZXRpY2EsIEFyaWFsLVVuaWNvZGUsIEFyaWFsLCBTYW5zLXNlcmlmIiBmb250LXdlaWdodD0iYm9sZCIgZm9udC1zaXplPSI1cHgiIGZpbGw9IiMwMDAwMDAiIHk9IjEwMTUiIHg9IjAiPkNyZWF0ZWQgYnkgQnJhZDwvdGV4dD48dGV4dCBmb250LWZhbWlseT0iJ0hlbHZldGljYSBOZXVlJywgSGVsdmV0aWNhLCBBcmlhbC1Vbmljb2RlLCBBcmlhbCwgU2Fucy1zZXJpZiIgZm9udC13ZWlnaHQ9ImJvbGQiIGZvbnQtc2l6ZT0iNXB4IiBmaWxsPSIjMDAwMDAwIiB5PSIxMDIwIiB4PSIwIj5mcm9tIHRoZSBOb3VuIFByb2plY3Q8L3RleHQ+PC9zdmc+;align=right;labelPosition=left;" vertex="1" parent="1">
          <mxGeometry x="204" y="-780" width="59.84" height="74.8" as="geometry" />
        </mxCell>
        <mxCell id="bGUCjfSoPUJQvvFktI7P-102" value="" style="endArrow=classic;html=1;rounded=1;fontSize=12;startSize=8;endSize=8;curved=0;" edge="1" parent="1">
          <mxGeometry width="50" height="50" relative="1" as="geometry">
            <mxPoint x="225" y="-870" as="sourcePoint" />
            <mxPoint x="285" y="-780" as="targetPoint" />
            <Array as="points">
              <mxPoint x="225" y="-828" />
              <mxPoint x="285" y="-828" />
            </Array>
          </mxGeometry>
        </mxCell>
        <mxCell id="bGUCjfSoPUJQvvFktI7P-125" value="" style="endArrow=classic;html=1;rounded=1;fontSize=12;startSize=8;endSize=8;curved=0;" edge="1" parent="1">
          <mxGeometry width="50" height="50" relative="1" as="geometry">
            <mxPoint x="453" y="-561" as="sourcePoint" />
            <mxPoint x="315" y="-477" as="targetPoint" />
            <Array as="points">
              <mxPoint x="453" y="-528" />
              <mxPoint x="315" y="-528" />
            </Array>
          </mxGeometry>
        </mxCell>
        <mxCell id="bGUCjfSoPUJQvvFktI7P-126" value="" style="endArrow=classic;html=1;rounded=1;fontSize=12;startSize=8;endSize=8;curved=0;" edge="1" parent="1">
          <mxGeometry width="50" height="50" relative="1" as="geometry">
            <mxPoint x="297" y="-714" as="sourcePoint" />
            <mxPoint x="297" y="-477" as="targetPoint" />
            <Array as="points" />
          </mxGeometry>
        </mxCell>
        <mxCell id="bGUCjfSoPUJQvvFktI7P-58" value="" style="group" vertex="1" connectable="0" parent="1">
          <mxGeometry x="687.0040000000001" y="-777.0959999999999" width="95" height="51" as="geometry" />
        </mxCell>
        <mxCell id="MHl1cd-Qkk1gGBz24KGn-59" value="" style="endArrow=none;html=1;rounded=1;shadow=0;curved=0;strokeWidth=1.1811;" parent="bGUCjfSoPUJQvvFktI7P-58" edge="1">
          <mxGeometry width="50" height="50" relative="1" as="geometry">
            <mxPoint x="95" as="sourcePoint" />
            <mxPoint as="targetPoint" />
            <Array as="points">
              <mxPoint x="95" y="51" />
              <mxPoint x="48" y="51" />
              <mxPoint y="51" />
            </Array>
          </mxGeometry>
        </mxCell>
        <mxCell id="MHl1cd-Qkk1gGBz24KGn-60" value="" style="endArrow=none;html=1;rounded=1;shadow=0;curved=0;strokeWidth=1.1811;" parent="bGUCjfSoPUJQvvFktI7P-58" edge="1">
          <mxGeometry width="50" height="50" relative="1" as="geometry">
            <mxPoint x="91" as="sourcePoint" />
            <mxPoint x="4" as="targetPoint" />
            <Array as="points">
              <mxPoint x="91" y="47" />
              <mxPoint x="4" y="47" />
            </Array>
          </mxGeometry>
        </mxCell>
        <mxCell id="bGUCjfSoPUJQvvFktI7P-60" value="montare a neve&#xa;i tuorli" style="shape=image;verticalLabelPosition=middle;labelBackgroundColor=default;verticalAlign=middle;aspect=fixed;imageAspect=0;image=data:image/svg+xml,PHN2ZyB4bWxuczp4bGluaz0iaHR0cDovL3d3dy53My5vcmcvMTk5OS94bGluayIgeG1sbnM9Imh0dHA6Ly93d3cudzMub3JnLzIwMDAvc3ZnIiB4bWw6c3BhY2U9InByZXNlcnZlIiBzdHlsZT0iZW5hYmxlLWJhY2tncm91bmQ6bmV3IDAgMCAxMDAwIDEwMDA7IiB2aWV3Qm94PSIwIDAgMTAwMCAxMjUwIiB5PSIwcHgiIHg9IjBweCIgdmVyc2lvbj0iMS4xIj48Zz48cGF0aCBkPSJNNTQ0LjUwNjc3NDksODA0LjM0NDQ4MjRjMC44NTUyMjQ2LDQxLjQyNDU2MDUsMi44OTI1NzgxLDg0LjAxMzI0NDYtMi4xNjMyNjksMTI1LjI0MDQxNzUgICBjLTMuNTA5MjE2MywyOC42MTU1Mzk2LTIxLjUxMjgxNzQsNzAuMTgxMDkxMy01OC4wMzMyNjQyLDU2LjIwNDI4NDcgICBjLTM0LjYxMTE3NTUtMTMuMjQ2MjE1OC0zMi41NTgwNzUtNjQuNTUxNTc0Ny0zMy4zODA2NzYzLTk0LjMyNjQ3NzEgICBjLTEuMTk2OTYwNC00My4zMjQwOTY3LDAuMzUyODQ0Mi04Ni42ODA2NjQxLDIuMDE1ODY5MS0xMjkuOTcxNjE4NyAgIGMxLjU5MjgwNC00MS40NjI4Mjk2LDQuNjY2NzQ4LTgyLjgwNzY3ODIsOC41NjY1ODk0LTEyNC4xMTM4MzA2YzEuNzkwMTAwMS0xOC45NjAyMDUxLDIuNDc2NTMyLTQxLjE1Mzc0NzYsMTAuODgyMDE5LTU4LjUyOTExMzggICBjNy40OTU5NDEyLTE1LjQ5NTIzOTMsOC42NTk3NTk1LTM1LjAwMzA1MTgtMC40OTAxNDI4LTQ5Ljg5ODc0MjcgICBjLTQyLjAzNzEzOTktNjguNDM0NzIyOS04Ni4yMzM1MjA1LTEzNC45NjUwODc5LTExNy4xODczMTY5LTIwOS40Nzc4MTM3ICAgYy0xNC45OTg1MzUyLTM2LjEwNDg1ODQtMjguNDM3MzQ3NC03My45NDk2MTU1LTMwLjA0ODIxNzgtMTEzLjM3NDg0NzQgICBjLTEuMTY4ODIzMi0yOC42MDY0MzAxLDMuNTU5ODQ1LTU3LjUwODQ1MzQsMTQuMTkyMDQ3MS04NC4xMTI2Nzg1ICAgYzIzLjA5Mjg2NS01Ny43ODM1NjkzLDcyLjQ5MjQ5MjctOTcuMDYyMjEwMSwxMzMuNTY2MDA5NS0xMDcuODQ2ODI0NiAgIEM1NDAuMDk1MjE0OCwyLjE4ODAwNzgsNjA2LjY2MzI2OSwzMC4xMDc3NDIzLDY0NC4zMDYyNzQ0LDg4LjE4NTA0MzMgICBjMTguNTU0MDc3MSwyOC42MjYwNjgxLDI5LjA3MjAyMTUsNjMuNDU1MDQ3NiwzMC45MzM1MzI3LDk3LjQ0NTM1ODMgICBjMi4xNDgwMTAzLDM5LjIyMTA2OTMtOS4wMjQzNTMsNzcuMzAwNDc2MS0yMy4wMjcyMjE3LDExMy41MDE2NDc5ICAgYy0yOC42MjU3OTM1LDc0LjAwNjA0MjUtNjguOTMxODIzNywxNDMuNjg0MzI2Mi0xMTIuODgyMjAyMSwyMDkuNTU5MzU2NyAgIGMtMTAuNzU5MDMzMiwxNi4xMjYyODE3LTIxLjcyMTEzMDQsMzEuMjExMDU5Ni0xOC45OTU5NzE3LDUxLjY1MzA3NjIgICBjMS4yMDg2NzkyLDkuMDY3MjYwNyw1LjQ0MTUyODMsMTYuODY5ODczLDguMTQwMDc1NywyNS40NzU4OTExYzMuMDA5NjQzNiw5LjU5ODI2NjYsMy45NTUyMDAyLDE5LjY0OTM1Myw0Ljg5ODYyMDYsMjkuNjE2MzMzICAgYzMuOTgxNTY3NCw0Mi4wNjY0MDYyLDYuOTcwODg2Miw4NC4yMzU3Nzg4LDguOTYxMzAzNywxMjYuNDQyOTkzMiAgIEM1NDMuMzE1OTE4LDc2Mi42OTEzNDUyLDU0NC4wNDU0MTAyLDc4My41MTQ4OTI2LDU0NC41MDY3NzQ5LDgwNC4zNDQ0ODI0eiBNNDYzLjIzMjgxODYsNDkwLjY4NjEyNjcgICBjMi4wNzQwMzU2LTYuODc2MTU5Ny02LjY3MTUwODgtMTkuOTA0NTQxLTkuMjI0Mzk1OC0yNi4xOTA5NDg1Yy0zLjgwMTE0NzUtOS4zNjAxNjg1LTcuNTM2MjU0OS0xOC43NDcyODM5LTExLjE3NDEzMzMtMjguMTcyMTE5MSAgIGMtNy4yNTk5MTgyLTE4LjgwODQ3MTctMTQuMTM0MTU1My0zNy43NzIxNTU4LTIwLjM1MTM0ODktNTYuOTUyMjcwNSAgIGMtMTIuODQ2NTU3Ni0zOS42MzE3NDQ0LTIyLjgzNjQ4NjgtODAuMjI1NzY5LTI3LjkwMjE2MDYtMTIxLjYxOTc1MSAgIGMtOC4wMTg3NjgzLTY1LjUyNTIyMjgtNi43NzY3MDI5LTE0Ny40OTkyNTIzLDQxLjc5NzY2ODUtMTk4LjQ1NzMyMTIgICBjMjEuMDk3MjktMjIuMTMyNjE0MSw0OS41NDM3MDEyLTM1Ljk2MDg5OTQsODAuNTQwODAyLTMxLjIyMDQzMDQgICBjMzAuNjM2NDc0Niw0LjY4NTMxOTksNTUuMzc5Njk5NywyMy44OTk0ODQ2LDcyLjUxNTY4Niw0OS4wMjcxMTQ5ICAgYzQwLjkxNjg3MDEsNTkuOTk5Mzg5NiwzMy45Nzg2Mzc3LDEzOC4xOTM1MjcyLDE4LjkwNTc2MTcsMjA1LjQ5ODgwOTggICBjLTguMTU0NjAyMSwzNi40MTI3NTAyLTE4Ljg0OTM2NTIsNzIuMTg4MzI0LTMxLjYzNzkzOTUsMTA3LjIzNjkwOCAgIGMtNi4zNTcwNTU3LDE3LjQyMjI3MTctMTMuMjAwNTAwNSwzNC42NjQ5NzgtMjAuNDEyMzUzNSw1MS43NTAzOTY3Yy0zLjcyMDUyLDguODE0MjctNy41Mzk5NzgsMTcuNTg2NTE3My0xMS40NDE5NTU2LDI2LjMyMTk2MDQgICBjLTIuNzA5MTA2NCw2LjA2NTA2MzUtOC44MTk2NDExLDE0LjU1MTU0NDItOC4yODYzMTU5LDIxLjQ1OTk5MTUgICBjMjYuMTk5MzQwOC00MC4wODAyNjEyLDUwLjgyMjQ0ODctODEuMTk4NTQ3NCw3Mi4zMTYwNC0xMjQuMDE4MDY2NCAgIGMyMC44MDgyMjc1LTQxLjQ1NDI1NDIsNDEuMjU1Nzk4My04NS42NTYwOTc0LDUwLjA4OTQ3NzUtMTMxLjQ1NTMyMjMgICBjMTQuNTM1Mjc4My03NS4zNTk0NjY2LTE3LjI1NzE0MTEtMTU4LjUwMTEyOTItODcuNTA1NjE1Mi0xOTQuNDgxNDE0OCAgIEM1MTIuNjUxNTUwMyw5LjI5MTc0NzEsNDMzLjcyMzA4MzUsMjQuNjE0OTA2MywzODcuMjc1MDU0OSw3MC42MDc3NTc2ICAgYy01MC42MTAyOTA1LDUwLjExNDI1NzgtNTkuNDA2OTUxOSwxMjUuODgyODQzLTM5LjcxMDYzMjMsMTkxLjcyOTAwMzkgICBDMzcyLjE0NTE0MTYsMzQ0LjUxMTg0MDgsNDE3LjUyMTk0MjEsNDE4Ljg2NjgyMTMsNDYzLjIzMjgxODYsNDkwLjY4NjEyNjd6IE00NzguMjEyNTI0NCw0ODkuMDkzMTcwMiAgIGMwLjIzMTc4MS0wLjE2MzkwOTksMC40NjM1NjItMC4zMjc3NTg4LDAuNjk1MzczNS0wLjQ5MTY2ODdjLTExLjg2MzczOS03MC4zMzAyMzA3LTI0Ljc2MjYzNDMtMTQwLjQzMzgwNzQtMjkuODIxNzQ2OC0yMTEuNjc3MjQ2MSAgIGMtMi4yMjEwNjkzLTMxLjI3NzU1NzQtMy4yMjAxODQzLTYyLjY5NTExNDEtMi40ODUyNi05NC4wNDg1ODRjMC43MDAxOTUzLTI5Ljg3MjIzODIsMi4zODgxNTMxLTYxLjY1ODA4MTEsMTIuMDY3MTY5Mi05MC4xNzgyNzYxICAgYzcuNDI2ODc5OS0yMS44ODQwMjU2LDI0LjY5NTYxNzctNDUuODUzMjUyNCw1MC45MjA1MzIyLTQwLjcxOTMxNDYgICBjMjYuODk1NDE2Myw1LjI2NTE5MzksMzcuNDU3NDg5LDM1Ljk0ODMzMzcsNDIuNzU2NDM5Miw1OS4yNTU3MjJjNy4wMTY5Njc4LDMwLjg2NDE1ODYsNy40MTgyNzM5LDYzLjA4NjI1MDMsNy4xMTA1OTU3LDk0LjU5NTYwMzkgICBjLTAuMzA4ODk4OSwzMS42Mjk5NDM4LTIuMzU4MDkzMyw2My4yMjc5MzU4LTUuNzMzMzk4NCw5NC42NzQ1MyAgIGMtNi43NzQzNTMsNjMuMTEzNDMzOC0xOS4wNDc2Njg1LDEyNS4zMTE2NzYtMzIuODg1NDM3LDE4Ny4yMDI2NjcyICAgYzEwLjQ4MTg3MjYtMTYuNzEyMDY2NywxNy41Mjg1NjQ1LTM2LjI1NTM0MDYsMjUuMTYwNTgzNS01NC4zOTA4OTk3ICAgYzcuNTI5NDgtMTcuODkxNzU0MiwxNC42NDI1NzgxLTM1Ljk2MTAyOTEsMjEuMTg4MTEwNC01NC4yMzY1NDE3ICAgYzEzLjA5OTY3MDQtMzYuNTc0Njc2NSwyMy45MDA4Nzg5LTc0LjAwMzQ0ODUsMzEuMjUwMjQ0MS0xMTIuMTY5NzM4OCAgIGMxMi4wNzc3NTg4LTYyLjcyMjE4MzIsMTcuNTcxNzc3My0xMzcuMTcwNTkzMy0yNS43Mzg0MDMzLTE4OS45MzcxMTg1ICAgYy0xOC44NzQ4MTY5LTIyLjk5NTgwNzYtNDUuNzI5MzA5MS0zOS42NDQ2NzYyLTc2LjQyNzQyOTItMzYuMTIxNzYxMyAgIGMtMjguNTc4MjE2NiwzLjI3OTYxMzUtNTEuNzIzODE1OSwyNC43MjE2OTExLTY2LjQwOTI3MTIsNDguMjU3MDc2MyAgIGMtMTYuMDMxNTg1NywyNS42OTI4NjM1LTIyLjA5NzYyNTcsNTYuMjQ0ODQyNS0yNC43Mzc0ODc4LDg2LjAyNDg1NjYgICBjLTMuMjE3ODY1LDM2LjMwMDUwNjYsMC4wMzA4MjI4LDcyLjgzNDgwODMsNi4zNjAwMTU5LDEwOC42MjgwMjEyICAgQzQyNC4xNTkzNjI4LDM1NS40NDc1NzA4LDQ1MC44Nzk3MzAyLDQyMi4wMjM5ODY4LDQ3OC4yMTI1MjQ0LDQ4OS4wOTMxNzAyeiBNNTA3LjM5NDI4NzEsNDg4LjAwOTU4MjUgICBjMC40MTMwODU5LTAuODAwNjU5MiwwLjk5NDA0OTEtMS41MTk4MzY0LDEuMTcwNTkzMy0yLjMyNzM2MjFjOS4zOTY4NTA2LTQyLjk5NDI5MzIsMTguNTE4MjQ5NS04Ni4wNDc3NiwyNC45ODE2ODk1LTEyOS42MDE2ODQ2ICAgYzUuOTM2NzA2NS00MC4wMDQ0MjUsMTAuNjA5MzE0LTgwLjE1Njc5OTMsMTIuMjM5NTAyLTEyMC41OTc4ODUxICAgYzEuNjE0MTM1Ny00MC4wMzk4NDA3LDIuMTczMDk1Ny04MC4wNzQwNTA5LTUuNzMyMjk5OC0xMTkuNjM2NzU2OSAgIGMtMy4wNDM3MDEyLTE1LjIzMjYxMjYtNy40NDI0NDM4LTMwLjEwODYzNDktMTguMzk3MzM4OS00MS45NDcwMDYyYy0zLjc1MjE5NzMtNC4wNTQ3MDI4LTcuNzA2NDIwOS03Ljk4MTQyMjQtMTQuMjYyMTQ2LTguNjIxOTAyNSAgIEM1MDcuMzk0Mjg3MSwyMDYuMzg2MDMyMSw1MDcuMzk0Mjg3MSwzNDcuMTYwNDYxNCw1MDcuMzk0Mjg3MSw0ODguMDA5NTgyNXogTTQ5My4yMDAzMTc0LDQ5My4xNTIwMzg2ICAgYzAuMzQzMjYxNy0wLjExNzM0MDEsMC42ODY0MzE5LTAuMjM0NjQ5NywxLjAyOTYwMjEtMC4zNTE5ODk3YzAtMTQyLjA1NDc0ODUsMC0yODQuMTA5NDk3MSwwLTQyNi42MDg0OSAgIGMtMTEuNTA0MDg5NCwyLjE3NzA3MDYtMTkuMDQ0NDMzNiwxOS40NjQ1MDgxLTIyLjU3NTgzNjIsMjkuMDc0MDczOCAgIGMtNS4zMDMwMzk2LDE0LjQzMDM4OTQtNy45NTcwMzEyLDI5Ljg1MTA1OS05LjQ5Njg4NzIsNDUuMDk5MzM0NyAgIEM0NTAuMjcxOTQyMSwyNTguMDU3OTUyOSw0NzEuMTY5NjQ3MiwzNzcuODg1ODAzMiw0OTMuMjAwMzE3NCw0OTMuMTUyMDM4NnogTTQ5Mi40MTgwMjk4LDU2NS43MjU5NTIxICAgYy0xMS41MDQxODA5LDguNDk4NTk2Mi0xNS4wMTA4NjQzLDIzLjUzNTU4MzUtMTYuNzA2MzU5OSwzNy4wMDY3NzQ5ICAgYy0yLjA0MjMyNzksMTYuMjI2ODA2Ni0yLjYzNTY1MDYsMzIuNjk1OTIyOS0zLjA2ODgxNzEsNDkuMDMxMTg5ICAgYy0wLjg3NTM5NjcsMzMuMDEyMzkwMS0yLjE3NzI0NjEsNjYuMDYyOTI3Mi0xLjg3NjE1OTcsOTkuMDgzMTkwOSAgIGMwLjYwMTgwNjYsNjUuOTkzNDY5MiwyLjQ0OTc5ODYsMTMxLjk0Nzk5OCw0Ljk0MDMwNzYsMTk3Ljg5MTk2NzggICBDNDc5LjczODg2MTEsODIxLjQ1MzU1MjIsNDg2Ljg4NDg1NzIsNjk0LjI2NDQ2NTMsNDkyLjQxODAyOTgsNTY1LjcyNTk1MjF6Ii8+PC9nPjx0ZXh0IGZvbnQtZmFtaWx5PSInSGVsdmV0aWNhIE5ldWUnLCBIZWx2ZXRpY2EsIEFyaWFsLVVuaWNvZGUsIEFyaWFsLCBTYW5zLXNlcmlmIiBmb250LXdlaWdodD0iYm9sZCIgZm9udC1zaXplPSI1cHgiIGZpbGw9IiMwMDAwMDAiIHk9IjEwMTUiIHg9IjAiPkNyZWF0ZWQgYnkgQnJhZDwvdGV4dD48dGV4dCBmb250LWZhbWlseT0iJ0hlbHZldGljYSBOZXVlJywgSGVsdmV0aWNhLCBBcmlhbC1Vbmljb2RlLCBBcmlhbCwgU2Fucy1zZXJpZiIgZm9udC13ZWlnaHQ9ImJvbGQiIGZvbnQtc2l6ZT0iNXB4IiBmaWxsPSIjMDAwMDAwIiB5PSIxMDIwIiB4PSIwIj5mcm9tIHRoZSBOb3VuIFByb2plY3Q8L3RleHQ+PC9zdmc+;align=right;labelPosition=left;" vertex="1" parent="1">
          <mxGeometry x="642" y="-785.9" width="59.84" height="74.8" as="geometry" />
        </mxCell>
        <mxCell id="bGUCjfSoPUJQvvFktI7P-63" value="" style="group" vertex="1" connectable="0" parent="1">
          <mxGeometry x="708" y="-771.1" width="56.00999999999999" height="33.22999999999996" as="geometry" />
        </mxCell>
        <mxCell id="bGUCjfSoPUJQvvFktI7P-64" value="" style="group" vertex="1" connectable="0" parent="bGUCjfSoPUJQvvFktI7P-63">
          <mxGeometry width="56.00999999999999" height="33.22999999999999" as="geometry" />
        </mxCell>
        <mxCell id="bGUCjfSoPUJQvvFktI7P-65" value="" style="group;fillColor=none;container=0;fillStyle=dots;" vertex="1" connectable="0" parent="bGUCjfSoPUJQvvFktI7P-64">
          <mxGeometry width="56.01" height="33.23" as="geometry" />
        </mxCell>
        <mxCell id="bGUCjfSoPUJQvvFktI7P-66" value="" style="verticalLabelPosition=bottom;verticalAlign=top;html=1;shape=mxgraph.basic.arc;startAngle=0.5228132783035719;endAngle=0.931180165086578;fillStyle=auto;fillColor=#66FFB3;" vertex="1" parent="bGUCjfSoPUJQvvFktI7P-64">
          <mxGeometry y="10.029958878139894" width="23.170383608225663" height="23.16066798628343" as="geometry" />
        </mxCell>
        <mxCell id="bGUCjfSoPUJQvvFktI7P-67" value="" style="verticalLabelPosition=bottom;verticalAlign=top;html=1;shape=mxgraph.basic.arc;startAngle=0.7768001258780505;endAngle=0.08146438747349113;" vertex="1" parent="bGUCjfSoPUJQvvFktI7P-64">
          <mxGeometry x="6.389999999999986" y="1.8200000000000216" width="25.11" height="23.16" as="geometry" />
        </mxCell>
        <mxCell id="bGUCjfSoPUJQvvFktI7P-68" value="" style="verticalLabelPosition=bottom;verticalAlign=top;html=1;shape=mxgraph.basic.arc;startAngle=0.8805625920328525;endAngle=0.23557103081184777;fillColor=#97D077;" vertex="1" parent="bGUCjfSoPUJQvvFktI7P-64">
          <mxGeometry x="20.981709172592673" width="23.170383608225663" height="23.16066798628343" as="geometry" />
        </mxCell>
        <mxCell id="bGUCjfSoPUJQvvFktI7P-69" value="" style="verticalLabelPosition=bottom;verticalAlign=top;html=1;shape=mxgraph.basic.arc;startAngle=0.9911671385559326;endAngle=0.5054236362483322;" vertex="1" parent="bGUCjfSoPUJQvvFktI7P-64">
          <mxGeometry x="32.839616391774314" y="10.03019048481977" width="23.170383608225663" height="23.16066798628343" as="geometry" />
        </mxCell>
        <mxCell id="bGUCjfSoPUJQvvFktI7P-70" value="" style="endArrow=none;html=1;rounded=0;" edge="1" parent="bGUCjfSoPUJQvvFktI7P-64">
          <mxGeometry width="50" height="50" relative="1" as="geometry">
            <mxPoint x="9.863875299403048" y="33.150000000000034" as="sourcePoint" />
            <mxPoint x="44.156043039577014" y="33.150000000000034" as="targetPoint" />
          </mxGeometry>
        </mxCell>
        <mxCell id="bGUCjfSoPUJQvvFktI7P-71" value="" style="group" vertex="1" connectable="0" parent="bGUCjfSoPUJQvvFktI7P-63">
          <mxGeometry x="8.740000000000009" y="7.755000000000109" width="39.37500000000017" height="22.93199999999996" as="geometry" />
        </mxCell>
        <mxCell id="bGUCjfSoPUJQvvFktI7P-72" value="" style="ellipse;whiteSpace=wrap;html=1;fillStyle=auto;strokeColor=none;align=center;verticalAlign=middle;fontFamily=Helvetica;fontSize=12;fontColor=default;fillColor=#999999;" vertex="1" parent="bGUCjfSoPUJQvvFktI7P-71">
          <mxGeometry y="10.784999999999968" width="3.95" height="4.09" as="geometry" />
        </mxCell>
        <mxCell id="bGUCjfSoPUJQvvFktI7P-73" value="" style="ellipse;whiteSpace=wrap;html=1;fillStyle=auto;strokeColor=none;align=center;verticalAlign=middle;fontFamily=Helvetica;fontSize=12;fontColor=default;fillColor=#999999;" vertex="1" parent="bGUCjfSoPUJQvvFktI7P-71">
          <mxGeometry x="7.867000000000019" y="18.841999999999985" width="3.95" height="4.09" as="geometry" />
        </mxCell>
        <mxCell id="bGUCjfSoPUJQvvFktI7P-74" value="" style="ellipse;whiteSpace=wrap;html=1;fillStyle=auto;strokeColor=none;align=center;verticalAlign=middle;fontFamily=Helvetica;fontSize=12;fontColor=default;fillColor=#999999;" vertex="1" parent="bGUCjfSoPUJQvvFktI7P-71">
          <mxGeometry x="15.744000000000085" y="7.868999999999971" width="3.95" height="4.09" as="geometry" />
        </mxCell>
        <mxCell id="bGUCjfSoPUJQvvFktI7P-75" value="" style="ellipse;whiteSpace=wrap;html=1;fillStyle=auto;strokeColor=none;align=center;verticalAlign=middle;fontFamily=Helvetica;fontSize=12;fontColor=default;fillColor=#999999;" vertex="1" parent="bGUCjfSoPUJQvvFktI7P-71">
          <mxGeometry x="23.62100000000015" y="14.875999999999976" width="3.95" height="4.09" as="geometry" />
        </mxCell>
        <mxCell id="bGUCjfSoPUJQvvFktI7P-76" value="" style="ellipse;whiteSpace=wrap;html=1;fillStyle=auto;strokeColor=none;align=center;verticalAlign=middle;fontFamily=Helvetica;fontSize=12;fontColor=default;fillColor=#999999;" vertex="1" parent="bGUCjfSoPUJQvvFktI7P-71">
          <mxGeometry x="27.568000000000154" y="3.782999999999987" width="3.95" height="4.09" as="geometry" />
        </mxCell>
        <mxCell id="bGUCjfSoPUJQvvFktI7P-77" value="" style="ellipse;whiteSpace=wrap;html=1;fillStyle=auto;strokeColor=none;align=center;verticalAlign=middle;fontFamily=Helvetica;fontSize=12;fontColor=default;fillColor=#999999;" vertex="1" parent="bGUCjfSoPUJQvvFktI7P-71">
          <mxGeometry x="7.865000000000123" width="3.95" height="4.09" as="geometry" />
        </mxCell>
        <mxCell id="bGUCjfSoPUJQvvFktI7P-78" value="" style="ellipse;whiteSpace=wrap;html=1;fillStyle=auto;strokeColor=none;align=center;verticalAlign=middle;fontFamily=Helvetica;fontSize=12;fontColor=default;fillColor=#999999;" vertex="1" parent="bGUCjfSoPUJQvvFktI7P-71">
          <mxGeometry x="35.425000000000125" y="11.95999999999998" width="3.95" height="4.09" as="geometry" />
        </mxCell>
        <mxCell id="bGUCjfSoPUJQvvFktI7P-128" value="" style="group" vertex="1" connectable="0" parent="1">
          <mxGeometry x="216" y="-498" width="141" height="74.80000000000001" as="geometry" />
        </mxCell>
        <mxCell id="bGUCjfSoPUJQvvFktI7P-103" value="" style="group" vertex="1" connectable="0" parent="bGUCjfSoPUJQvvFktI7P-128">
          <mxGeometry x="46" y="10" width="95" height="51" as="geometry" />
        </mxCell>
        <mxCell id="bGUCjfSoPUJQvvFktI7P-104" value="" style="group" vertex="1" connectable="0" parent="bGUCjfSoPUJQvvFktI7P-103">
          <mxGeometry width="95" height="51" as="geometry" />
        </mxCell>
        <mxCell id="bGUCjfSoPUJQvvFktI7P-105" value="" style="endArrow=none;html=1;rounded=1;shadow=0;curved=0;strokeWidth=1.1811;" edge="1" parent="bGUCjfSoPUJQvvFktI7P-104">
          <mxGeometry width="50" height="50" relative="1" as="geometry">
            <mxPoint x="95" as="sourcePoint" />
            <mxPoint as="targetPoint" />
            <Array as="points">
              <mxPoint x="95" y="51" />
              <mxPoint x="48" y="51" />
              <mxPoint y="51" />
            </Array>
          </mxGeometry>
        </mxCell>
        <mxCell id="bGUCjfSoPUJQvvFktI7P-106" value="" style="endArrow=none;html=1;rounded=1;shadow=0;curved=0;strokeWidth=1.1811;" edge="1" parent="bGUCjfSoPUJQvvFktI7P-104">
          <mxGeometry width="50" height="50" relative="1" as="geometry">
            <mxPoint x="91" as="sourcePoint" />
            <mxPoint x="4" as="targetPoint" />
            <Array as="points">
              <mxPoint x="91" y="47" />
              <mxPoint x="4" y="47" />
            </Array>
          </mxGeometry>
        </mxCell>
        <mxCell id="bGUCjfSoPUJQvvFktI7P-107" value="" style="group" vertex="1" connectable="0" parent="bGUCjfSoPUJQvvFktI7P-103">
          <mxGeometry x="7.757000000000062" y="15.743000000000166" width="77.70599999999999" height="22.744000000000028" as="geometry" />
        </mxCell>
        <mxCell id="bGUCjfSoPUJQvvFktI7P-108" value="" style="group" vertex="1" connectable="0" parent="bGUCjfSoPUJQvvFktI7P-107">
          <mxGeometry x="0.12600000000000477" width="77.57999999999998" height="8.870000000000005" as="geometry" />
        </mxCell>
        <mxCell id="bGUCjfSoPUJQvvFktI7P-109" value="" style="pointerEvents=1;verticalLabelPosition=bottom;shadow=0;dashed=0;align=center;html=1;verticalAlign=top;shape=mxgraph.electrical.waveforms.sine_wave;fillStyle=dots;strokeColor=default;fontFamily=Helvetica;fontSize=12;fontColor=default;fillColor=#FF0000;" vertex="1" parent="bGUCjfSoPUJQvvFktI7P-108">
          <mxGeometry y="0.47999999999996135" width="19.68" height="7.87" as="geometry" />
        </mxCell>
        <mxCell id="bGUCjfSoPUJQvvFktI7P-110" value="" style="pointerEvents=1;verticalLabelPosition=bottom;shadow=0;dashed=0;align=center;html=1;verticalAlign=top;shape=mxgraph.electrical.waveforms.sine_wave;fillStyle=dots;strokeColor=default;fontFamily=Helvetica;fontSize=12;fontColor=default;fillColor=#FF0000;" vertex="1" parent="bGUCjfSoPUJQvvFktI7P-108">
          <mxGeometry x="39.359999999999985" width="19.78" height="8.87" as="geometry" />
        </mxCell>
        <mxCell id="bGUCjfSoPUJQvvFktI7P-111" value="" style="pointerEvents=1;verticalLabelPosition=bottom;shadow=0;dashed=0;align=center;html=1;verticalAlign=top;shape=mxgraph.electrical.waveforms.sine_wave;fillStyle=dots;strokeColor=default;fontFamily=Helvetica;fontSize=12;fontColor=default;fillColor=#FF0000;" vertex="1" parent="bGUCjfSoPUJQvvFktI7P-108">
          <mxGeometry x="19.679999999999993" y="0.47999999999996135" width="19.74" height="7.9" as="geometry" />
        </mxCell>
        <mxCell id="bGUCjfSoPUJQvvFktI7P-112" value="" style="pointerEvents=1;verticalLabelPosition=bottom;shadow=0;dashed=0;align=center;html=1;verticalAlign=top;shape=mxgraph.electrical.waveforms.sine_wave;fillStyle=dots;strokeColor=default;fontFamily=Helvetica;fontSize=12;fontColor=default;fillColor=#FF0000;" vertex="1" parent="bGUCjfSoPUJQvvFktI7P-108">
          <mxGeometry x="59.04999999999998" y="1" width="18.53" height="6.9" as="geometry" />
        </mxCell>
        <mxCell id="bGUCjfSoPUJQvvFktI7P-113" value="" style="group" vertex="1" connectable="0" parent="bGUCjfSoPUJQvvFktI7P-107">
          <mxGeometry x="0.06300000000000239" y="6.937000000000012" width="77.57999999999998" height="8.870000000000005" as="geometry" />
        </mxCell>
        <mxCell id="bGUCjfSoPUJQvvFktI7P-114" value="" style="pointerEvents=1;verticalLabelPosition=bottom;shadow=0;dashed=0;align=center;html=1;verticalAlign=top;shape=mxgraph.electrical.waveforms.sine_wave;fillStyle=dots;strokeColor=default;fontFamily=Helvetica;fontSize=12;fontColor=default;fillColor=#FF0000;" vertex="1" parent="bGUCjfSoPUJQvvFktI7P-113">
          <mxGeometry y="0.47999999999996135" width="19.68" height="7.87" as="geometry" />
        </mxCell>
        <mxCell id="bGUCjfSoPUJQvvFktI7P-115" value="" style="pointerEvents=1;verticalLabelPosition=bottom;shadow=0;dashed=0;align=center;html=1;verticalAlign=top;shape=mxgraph.electrical.waveforms.sine_wave;fillStyle=dots;strokeColor=default;fontFamily=Helvetica;fontSize=12;fontColor=default;fillColor=#FF0000;" vertex="1" parent="bGUCjfSoPUJQvvFktI7P-113">
          <mxGeometry x="39.359999999999985" width="19.78" height="8.87" as="geometry" />
        </mxCell>
        <mxCell id="bGUCjfSoPUJQvvFktI7P-116" value="" style="pointerEvents=1;verticalLabelPosition=bottom;shadow=0;dashed=0;align=center;html=1;verticalAlign=top;shape=mxgraph.electrical.waveforms.sine_wave;fillStyle=dots;strokeColor=default;fontFamily=Helvetica;fontSize=12;fontColor=default;fillColor=#FF0000;" vertex="1" parent="bGUCjfSoPUJQvvFktI7P-113">
          <mxGeometry x="19.679999999999993" y="0.47999999999996135" width="19.74" height="7.9" as="geometry" />
        </mxCell>
        <mxCell id="bGUCjfSoPUJQvvFktI7P-117" value="" style="pointerEvents=1;verticalLabelPosition=bottom;shadow=0;dashed=0;align=center;html=1;verticalAlign=top;shape=mxgraph.electrical.waveforms.sine_wave;fillStyle=dots;strokeColor=default;fontFamily=Helvetica;fontSize=12;fontColor=default;fillColor=#FF0000;" vertex="1" parent="bGUCjfSoPUJQvvFktI7P-113">
          <mxGeometry x="59.04999999999998" y="1" width="18.53" height="6.9" as="geometry" />
        </mxCell>
        <mxCell id="bGUCjfSoPUJQvvFktI7P-118" value="" style="group" vertex="1" connectable="0" parent="bGUCjfSoPUJQvvFktI7P-107">
          <mxGeometry y="13.874000000000024" width="77.57999999999998" height="8.870000000000005" as="geometry" />
        </mxCell>
        <mxCell id="bGUCjfSoPUJQvvFktI7P-119" value="" style="pointerEvents=1;verticalLabelPosition=bottom;shadow=0;dashed=0;align=center;html=1;verticalAlign=top;shape=mxgraph.electrical.waveforms.sine_wave;fillStyle=dots;strokeColor=default;fontFamily=Helvetica;fontSize=12;fontColor=default;fillColor=#FF0000;" vertex="1" parent="bGUCjfSoPUJQvvFktI7P-118">
          <mxGeometry y="0.47999999999996135" width="19.68" height="7.87" as="geometry" />
        </mxCell>
        <mxCell id="bGUCjfSoPUJQvvFktI7P-120" value="" style="pointerEvents=1;verticalLabelPosition=bottom;shadow=0;dashed=0;align=center;html=1;verticalAlign=top;shape=mxgraph.electrical.waveforms.sine_wave;fillStyle=dots;strokeColor=default;fontFamily=Helvetica;fontSize=12;fontColor=default;fillColor=#FF0000;" vertex="1" parent="bGUCjfSoPUJQvvFktI7P-118">
          <mxGeometry x="39.359999999999985" width="19.78" height="8.87" as="geometry" />
        </mxCell>
        <mxCell id="bGUCjfSoPUJQvvFktI7P-121" value="" style="pointerEvents=1;verticalLabelPosition=bottom;shadow=0;dashed=0;align=center;html=1;verticalAlign=top;shape=mxgraph.electrical.waveforms.sine_wave;fillStyle=dots;strokeColor=default;fontFamily=Helvetica;fontSize=12;fontColor=default;fillColor=#FF0000;" vertex="1" parent="bGUCjfSoPUJQvvFktI7P-118">
          <mxGeometry x="19.679999999999993" y="0.47999999999996135" width="19.74" height="7.9" as="geometry" />
        </mxCell>
        <mxCell id="bGUCjfSoPUJQvvFktI7P-122" value="" style="pointerEvents=1;verticalLabelPosition=bottom;shadow=0;dashed=0;align=center;html=1;verticalAlign=top;shape=mxgraph.electrical.waveforms.sine_wave;fillStyle=dots;strokeColor=default;fontFamily=Helvetica;fontSize=12;fontColor=default;fillColor=#FF0000;" vertex="1" parent="bGUCjfSoPUJQvvFktI7P-118">
          <mxGeometry x="59.04999999999998" y="1" width="18.53" height="6.9" as="geometry" />
        </mxCell>
        <mxCell id="bGUCjfSoPUJQvvFktI7P-123" value="montare fino a che&#xa;non diventa uniforme" style="shape=image;verticalLabelPosition=middle;labelBackgroundColor=default;verticalAlign=middle;aspect=fixed;imageAspect=0;image=data:image/svg+xml,PHN2ZyB4bWxuczp4bGluaz0iaHR0cDovL3d3dy53My5vcmcvMTk5OS94bGluayIgeG1sbnM9Imh0dHA6Ly93d3cudzMub3JnLzIwMDAvc3ZnIiB4bWw6c3BhY2U9InByZXNlcnZlIiBzdHlsZT0iZW5hYmxlLWJhY2tncm91bmQ6bmV3IDAgMCAxMDAwIDEwMDA7IiB2aWV3Qm94PSIwIDAgMTAwMCAxMjUwIiB5PSIwcHgiIHg9IjBweCIgdmVyc2lvbj0iMS4xIj48Zz48cGF0aCBkPSJNNTQ0LjUwNjc3NDksODA0LjM0NDQ4MjRjMC44NTUyMjQ2LDQxLjQyNDU2MDUsMi44OTI1NzgxLDg0LjAxMzI0NDYtMi4xNjMyNjksMTI1LjI0MDQxNzUgICBjLTMuNTA5MjE2MywyOC42MTU1Mzk2LTIxLjUxMjgxNzQsNzAuMTgxMDkxMy01OC4wMzMyNjQyLDU2LjIwNDI4NDcgICBjLTM0LjYxMTE3NTUtMTMuMjQ2MjE1OC0zMi41NTgwNzUtNjQuNTUxNTc0Ny0zMy4zODA2NzYzLTk0LjMyNjQ3NzEgICBjLTEuMTk2OTYwNC00My4zMjQwOTY3LDAuMzUyODQ0Mi04Ni42ODA2NjQxLDIuMDE1ODY5MS0xMjkuOTcxNjE4NyAgIGMxLjU5MjgwNC00MS40NjI4Mjk2LDQuNjY2NzQ4LTgyLjgwNzY3ODIsOC41NjY1ODk0LTEyNC4xMTM4MzA2YzEuNzkwMTAwMS0xOC45NjAyMDUxLDIuNDc2NTMyLTQxLjE1Mzc0NzYsMTAuODgyMDE5LTU4LjUyOTExMzggICBjNy40OTU5NDEyLTE1LjQ5NTIzOTMsOC42NTk3NTk1LTM1LjAwMzA1MTgtMC40OTAxNDI4LTQ5Ljg5ODc0MjcgICBjLTQyLjAzNzEzOTktNjguNDM0NzIyOS04Ni4yMzM1MjA1LTEzNC45NjUwODc5LTExNy4xODczMTY5LTIwOS40Nzc4MTM3ICAgYy0xNC45OTg1MzUyLTM2LjEwNDg1ODQtMjguNDM3MzQ3NC03My45NDk2MTU1LTMwLjA0ODIxNzgtMTEzLjM3NDg0NzQgICBjLTEuMTY4ODIzMi0yOC42MDY0MzAxLDMuNTU5ODQ1LTU3LjUwODQ1MzQsMTQuMTkyMDQ3MS04NC4xMTI2Nzg1ICAgYzIzLjA5Mjg2NS01Ny43ODM1NjkzLDcyLjQ5MjQ5MjctOTcuMDYyMjEwMSwxMzMuNTY2MDA5NS0xMDcuODQ2ODI0NiAgIEM1NDAuMDk1MjE0OCwyLjE4ODAwNzgsNjA2LjY2MzI2OSwzMC4xMDc3NDIzLDY0NC4zMDYyNzQ0LDg4LjE4NTA0MzMgICBjMTguNTU0MDc3MSwyOC42MjYwNjgxLDI5LjA3MjAyMTUsNjMuNDU1MDQ3NiwzMC45MzM1MzI3LDk3LjQ0NTM1ODMgICBjMi4xNDgwMTAzLDM5LjIyMTA2OTMtOS4wMjQzNTMsNzcuMzAwNDc2MS0yMy4wMjcyMjE3LDExMy41MDE2NDc5ICAgYy0yOC42MjU3OTM1LDc0LjAwNjA0MjUtNjguOTMxODIzNywxNDMuNjg0MzI2Mi0xMTIuODgyMjAyMSwyMDkuNTU5MzU2NyAgIGMtMTAuNzU5MDMzMiwxNi4xMjYyODE3LTIxLjcyMTEzMDQsMzEuMjExMDU5Ni0xOC45OTU5NzE3LDUxLjY1MzA3NjIgICBjMS4yMDg2NzkyLDkuMDY3MjYwNyw1LjQ0MTUyODMsMTYuODY5ODczLDguMTQwMDc1NywyNS40NzU4OTExYzMuMDA5NjQzNiw5LjU5ODI2NjYsMy45NTUyMDAyLDE5LjY0OTM1Myw0Ljg5ODYyMDYsMjkuNjE2MzMzICAgYzMuOTgxNTY3NCw0Mi4wNjY0MDYyLDYuOTcwODg2Miw4NC4yMzU3Nzg4LDguOTYxMzAzNywxMjYuNDQyOTkzMiAgIEM1NDMuMzE1OTE4LDc2Mi42OTEzNDUyLDU0NC4wNDU0MTAyLDc4My41MTQ4OTI2LDU0NC41MDY3NzQ5LDgwNC4zNDQ0ODI0eiBNNDYzLjIzMjgxODYsNDkwLjY4NjEyNjcgICBjMi4wNzQwMzU2LTYuODc2MTU5Ny02LjY3MTUwODgtMTkuOTA0NTQxLTkuMjI0Mzk1OC0yNi4xOTA5NDg1Yy0zLjgwMTE0NzUtOS4zNjAxNjg1LTcuNTM2MjU0OS0xOC43NDcyODM5LTExLjE3NDEzMzMtMjguMTcyMTE5MSAgIGMtNy4yNTk5MTgyLTE4LjgwODQ3MTctMTQuMTM0MTU1My0zNy43NzIxNTU4LTIwLjM1MTM0ODktNTYuOTUyMjcwNSAgIGMtMTIuODQ2NTU3Ni0zOS42MzE3NDQ0LTIyLjgzNjQ4NjgtODAuMjI1NzY5LTI3LjkwMjE2MDYtMTIxLjYxOTc1MSAgIGMtOC4wMTg3NjgzLTY1LjUyNTIyMjgtNi43NzY3MDI5LTE0Ny40OTkyNTIzLDQxLjc5NzY2ODUtMTk4LjQ1NzMyMTIgICBjMjEuMDk3MjktMjIuMTMyNjE0MSw0OS41NDM3MDEyLTM1Ljk2MDg5OTQsODAuNTQwODAyLTMxLjIyMDQzMDQgICBjMzAuNjM2NDc0Niw0LjY4NTMxOTksNTUuMzc5Njk5NywyMy44OTk0ODQ2LDcyLjUxNTY4Niw0OS4wMjcxMTQ5ICAgYzQwLjkxNjg3MDEsNTkuOTk5Mzg5NiwzMy45Nzg2Mzc3LDEzOC4xOTM1MjcyLDE4LjkwNTc2MTcsMjA1LjQ5ODgwOTggICBjLTguMTU0NjAyMSwzNi40MTI3NTAyLTE4Ljg0OTM2NTIsNzIuMTg4MzI0LTMxLjYzNzkzOTUsMTA3LjIzNjkwOCAgIGMtNi4zNTcwNTU3LDE3LjQyMjI3MTctMTMuMjAwNTAwNSwzNC42NjQ5NzgtMjAuNDEyMzUzNSw1MS43NTAzOTY3Yy0zLjcyMDUyLDguODE0MjctNy41Mzk5NzgsMTcuNTg2NTE3My0xMS40NDE5NTU2LDI2LjMyMTk2MDQgICBjLTIuNzA5MTA2NCw2LjA2NTA2MzUtOC44MTk2NDExLDE0LjU1MTU0NDItOC4yODYzMTU5LDIxLjQ1OTk5MTUgICBjMjYuMTk5MzQwOC00MC4wODAyNjEyLDUwLjgyMjQ0ODctODEuMTk4NTQ3NCw3Mi4zMTYwNC0xMjQuMDE4MDY2NCAgIGMyMC44MDgyMjc1LTQxLjQ1NDI1NDIsNDEuMjU1Nzk4My04NS42NTYwOTc0LDUwLjA4OTQ3NzUtMTMxLjQ1NTMyMjMgICBjMTQuNTM1Mjc4My03NS4zNTk0NjY2LTE3LjI1NzE0MTEtMTU4LjUwMTEyOTItODcuNTA1NjE1Mi0xOTQuNDgxNDE0OCAgIEM1MTIuNjUxNTUwMyw5LjI5MTc0NzEsNDMzLjcyMzA4MzUsMjQuNjE0OTA2MywzODcuMjc1MDU0OSw3MC42MDc3NTc2ICAgYy01MC42MTAyOTA1LDUwLjExNDI1NzgtNTkuNDA2OTUxOSwxMjUuODgyODQzLTM5LjcxMDYzMjMsMTkxLjcyOTAwMzkgICBDMzcyLjE0NTE0MTYsMzQ0LjUxMTg0MDgsNDE3LjUyMTk0MjEsNDE4Ljg2NjgyMTMsNDYzLjIzMjgxODYsNDkwLjY4NjEyNjd6IE00NzguMjEyNTI0NCw0ODkuMDkzMTcwMiAgIGMwLjIzMTc4MS0wLjE2MzkwOTksMC40NjM1NjItMC4zMjc3NTg4LDAuNjk1MzczNS0wLjQ5MTY2ODdjLTExLjg2MzczOS03MC4zMzAyMzA3LTI0Ljc2MjYzNDMtMTQwLjQzMzgwNzQtMjkuODIxNzQ2OC0yMTEuNjc3MjQ2MSAgIGMtMi4yMjEwNjkzLTMxLjI3NzU1NzQtMy4yMjAxODQzLTYyLjY5NTExNDEtMi40ODUyNi05NC4wNDg1ODRjMC43MDAxOTUzLTI5Ljg3MjIzODIsMi4zODgxNTMxLTYxLjY1ODA4MTEsMTIuMDY3MTY5Mi05MC4xNzgyNzYxICAgYzcuNDI2ODc5OS0yMS44ODQwMjU2LDI0LjY5NTYxNzctNDUuODUzMjUyNCw1MC45MjA1MzIyLTQwLjcxOTMxNDYgICBjMjYuODk1NDE2Myw1LjI2NTE5MzksMzcuNDU3NDg5LDM1Ljk0ODMzMzcsNDIuNzU2NDM5Miw1OS4yNTU3MjJjNy4wMTY5Njc4LDMwLjg2NDE1ODYsNy40MTgyNzM5LDYzLjA4NjI1MDMsNy4xMTA1OTU3LDk0LjU5NTYwMzkgICBjLTAuMzA4ODk4OSwzMS42Mjk5NDM4LTIuMzU4MDkzMyw2My4yMjc5MzU4LTUuNzMzMzk4NCw5NC42NzQ1MyAgIGMtNi43NzQzNTMsNjMuMTEzNDMzOC0xOS4wNDc2Njg1LDEyNS4zMTE2NzYtMzIuODg1NDM3LDE4Ny4yMDI2NjcyICAgYzEwLjQ4MTg3MjYtMTYuNzEyMDY2NywxNy41Mjg1NjQ1LTM2LjI1NTM0MDYsMjUuMTYwNTgzNS01NC4zOTA4OTk3ICAgYzcuNTI5NDgtMTcuODkxNzU0MiwxNC42NDI1NzgxLTM1Ljk2MTAyOTEsMjEuMTg4MTEwNC01NC4yMzY1NDE3ICAgYzEzLjA5OTY3MDQtMzYuNTc0Njc2NSwyMy45MDA4Nzg5LTc0LjAwMzQ0ODUsMzEuMjUwMjQ0MS0xMTIuMTY5NzM4OCAgIGMxMi4wNzc3NTg4LTYyLjcyMjE4MzIsMTcuNTcxNzc3My0xMzcuMTcwNTkzMy0yNS43Mzg0MDMzLTE4OS45MzcxMTg1ICAgYy0xOC44NzQ4MTY5LTIyLjk5NTgwNzYtNDUuNzI5MzA5MS0zOS42NDQ2NzYyLTc2LjQyNzQyOTItMzYuMTIxNzYxMyAgIGMtMjguNTc4MjE2NiwzLjI3OTYxMzUtNTEuNzIzODE1OSwyNC43MjE2OTExLTY2LjQwOTI3MTIsNDguMjU3MDc2MyAgIGMtMTYuMDMxNTg1NywyNS42OTI4NjM1LTIyLjA5NzYyNTcsNTYuMjQ0ODQyNS0yNC43Mzc0ODc4LDg2LjAyNDg1NjYgICBjLTMuMjE3ODY1LDM2LjMwMDUwNjYsMC4wMzA4MjI4LDcyLjgzNDgwODMsNi4zNjAwMTU5LDEwOC42MjgwMjEyICAgQzQyNC4xNTkzNjI4LDM1NS40NDc1NzA4LDQ1MC44Nzk3MzAyLDQyMi4wMjM5ODY4LDQ3OC4yMTI1MjQ0LDQ4OS4wOTMxNzAyeiBNNTA3LjM5NDI4NzEsNDg4LjAwOTU4MjUgICBjMC40MTMwODU5LTAuODAwNjU5MiwwLjk5NDA0OTEtMS41MTk4MzY0LDEuMTcwNTkzMy0yLjMyNzM2MjFjOS4zOTY4NTA2LTQyLjk5NDI5MzIsMTguNTE4MjQ5NS04Ni4wNDc3NiwyNC45ODE2ODk1LTEyOS42MDE2ODQ2ICAgYzUuOTM2NzA2NS00MC4wMDQ0MjUsMTAuNjA5MzE0LTgwLjE1Njc5OTMsMTIuMjM5NTAyLTEyMC41OTc4ODUxICAgYzEuNjE0MTM1Ny00MC4wMzk4NDA3LDIuMTczMDk1Ny04MC4wNzQwNTA5LTUuNzMyMjk5OC0xMTkuNjM2NzU2OSAgIGMtMy4wNDM3MDEyLTE1LjIzMjYxMjYtNy40NDI0NDM4LTMwLjEwODYzNDktMTguMzk3MzM4OS00MS45NDcwMDYyYy0zLjc1MjE5NzMtNC4wNTQ3MDI4LTcuNzA2NDIwOS03Ljk4MTQyMjQtMTQuMjYyMTQ2LTguNjIxOTAyNSAgIEM1MDcuMzk0Mjg3MSwyMDYuMzg2MDMyMSw1MDcuMzk0Mjg3MSwzNDcuMTYwNDYxNCw1MDcuMzk0Mjg3MSw0ODguMDA5NTgyNXogTTQ5My4yMDAzMTc0LDQ5My4xNTIwMzg2ICAgYzAuMzQzMjYxNy0wLjExNzM0MDEsMC42ODY0MzE5LTAuMjM0NjQ5NywxLjAyOTYwMjEtMC4zNTE5ODk3YzAtMTQyLjA1NDc0ODUsMC0yODQuMTA5NDk3MSwwLTQyNi42MDg0OSAgIGMtMTEuNTA0MDg5NCwyLjE3NzA3MDYtMTkuMDQ0NDMzNiwxOS40NjQ1MDgxLTIyLjU3NTgzNjIsMjkuMDc0MDczOCAgIGMtNS4zMDMwMzk2LDE0LjQzMDM4OTQtNy45NTcwMzEyLDI5Ljg1MTA1OS05LjQ5Njg4NzIsNDUuMDk5MzM0NyAgIEM0NTAuMjcxOTQyMSwyNTguMDU3OTUyOSw0NzEuMTY5NjQ3MiwzNzcuODg1ODAzMiw0OTMuMjAwMzE3NCw0OTMuMTUyMDM4NnogTTQ5Mi40MTgwMjk4LDU2NS43MjU5NTIxICAgYy0xMS41MDQxODA5LDguNDk4NTk2Mi0xNS4wMTA4NjQzLDIzLjUzNTU4MzUtMTYuNzA2MzU5OSwzNy4wMDY3NzQ5ICAgYy0yLjA0MjMyNzksMTYuMjI2ODA2Ni0yLjYzNTY1MDYsMzIuNjk1OTIyOS0zLjA2ODgxNzEsNDkuMDMxMTg5ICAgYy0wLjg3NTM5NjcsMzMuMDEyMzkwMS0yLjE3NzI0NjEsNjYuMDYyOTI3Mi0xLjg3NjE1OTcsOTkuMDgzMTkwOSAgIGMwLjYwMTgwNjYsNjUuOTkzNDY5MiwyLjQ0OTc5ODYsMTMxLjk0Nzk5OCw0Ljk0MDMwNzYsMTk3Ljg5MTk2NzggICBDNDc5LjczODg2MTEsODIxLjQ1MzU1MjIsNDg2Ljg4NDg1NzIsNjk0LjI2NDQ2NTMsNDkyLjQxODAyOTgsNTY1LjcyNTk1MjF6Ii8+PC9nPjx0ZXh0IGZvbnQtZmFtaWx5PSInSGVsdmV0aWNhIE5ldWUnLCBIZWx2ZXRpY2EsIEFyaWFsLVVuaWNvZGUsIEFyaWFsLCBTYW5zLXNlcmlmIiBmb250LXdlaWdodD0iYm9sZCIgZm9udC1zaXplPSI1cHgiIGZpbGw9IiMwMDAwMDAiIHk9IjEwMTUiIHg9IjAiPkNyZWF0ZWQgYnkgQnJhZDwvdGV4dD48dGV4dCBmb250LWZhbWlseT0iJ0hlbHZldGljYSBOZXVlJywgSGVsdmV0aWNhLCBBcmlhbC1Vbmljb2RlLCBBcmlhbCwgU2Fucy1zZXJpZiIgZm9udC13ZWlnaHQ9ImJvbGQiIGZvbnQtc2l6ZT0iNXB4IiBmaWxsPSIjMDAwMDAwIiB5PSIxMDIwIiB4PSIwIj5mcm9tIHRoZSBOb3VuIFByb2plY3Q8L3RleHQ+PC9zdmc+;align=right;labelPosition=left;" vertex="1" parent="bGUCjfSoPUJQvvFktI7P-128">
          <mxGeometry width="59.84" height="74.8" as="geometry" />
        </mxCell>
        <mxCell id="bGUCjfSoPUJQvvFktI7P-151" value="" style="endArrow=classic;html=1;rounded=1;fontSize=12;startSize=8;endSize=8;curved=0;" edge="1" parent="1">
          <mxGeometry width="50" height="50" relative="1" as="geometry">
            <mxPoint x="732.76" y="-720" as="sourcePoint" />
            <mxPoint x="534" y="-345" as="targetPoint" />
            <Array as="points">
              <mxPoint x="732" y="-390" />
              <mxPoint x="534" y="-390" />
            </Array>
          </mxGeometry>
        </mxCell>
        <mxCell id="bGUCjfSoPUJQvvFktI7P-154" value="" style="endArrow=classic;html=1;rounded=1;fontSize=12;startSize=8;endSize=8;curved=0;" edge="1" parent="1">
          <mxGeometry width="50" height="50" relative="1" as="geometry">
            <mxPoint x="309" y="-432" as="sourcePoint" />
            <mxPoint x="513" y="-345" as="targetPoint" />
            <Array as="points">
              <mxPoint x="309" y="-390" />
              <mxPoint x="513" y="-390" />
            </Array>
          </mxGeometry>
        </mxCell>
        <mxCell id="bGUCjfSoPUJQvvFktI7P-130" value="" style="group" vertex="1" connectable="0" parent="1">
          <mxGeometry x="479" y="-353" width="95" height="51" as="geometry" />
        </mxCell>
        <mxCell id="bGUCjfSoPUJQvvFktI7P-131" value="" style="group" vertex="1" connectable="0" parent="bGUCjfSoPUJQvvFktI7P-130">
          <mxGeometry width="95" height="51" as="geometry" />
        </mxCell>
        <mxCell id="bGUCjfSoPUJQvvFktI7P-132" value="" style="endArrow=none;html=1;rounded=1;shadow=0;curved=0;strokeWidth=1.1811;" edge="1" parent="bGUCjfSoPUJQvvFktI7P-131">
          <mxGeometry width="50" height="50" relative="1" as="geometry">
            <mxPoint x="95" as="sourcePoint" />
            <mxPoint as="targetPoint" />
            <Array as="points">
              <mxPoint x="95" y="51" />
              <mxPoint x="48" y="51" />
              <mxPoint y="51" />
            </Array>
          </mxGeometry>
        </mxCell>
        <mxCell id="bGUCjfSoPUJQvvFktI7P-133" value="" style="endArrow=none;html=1;rounded=1;shadow=0;curved=0;strokeWidth=1.1811;" edge="1" parent="bGUCjfSoPUJQvvFktI7P-131">
          <mxGeometry width="50" height="50" relative="1" as="geometry">
            <mxPoint x="91" as="sourcePoint" />
            <mxPoint x="4" as="targetPoint" />
            <Array as="points">
              <mxPoint x="91" y="47" />
              <mxPoint x="4" y="47" />
            </Array>
          </mxGeometry>
        </mxCell>
        <mxCell id="bGUCjfSoPUJQvvFktI7P-134" value="" style="group" vertex="1" connectable="0" parent="bGUCjfSoPUJQvvFktI7P-130">
          <mxGeometry x="7.757000000000062" y="15.743000000000166" width="77.70599999999999" height="22.744000000000028" as="geometry" />
        </mxCell>
        <mxCell id="bGUCjfSoPUJQvvFktI7P-135" value="" style="group" vertex="1" connectable="0" parent="bGUCjfSoPUJQvvFktI7P-134">
          <mxGeometry x="0.12600000000000477" width="77.57999999999998" height="8.870000000000005" as="geometry" />
        </mxCell>
        <mxCell id="bGUCjfSoPUJQvvFktI7P-136" value="" style="pointerEvents=1;verticalLabelPosition=bottom;shadow=0;dashed=0;align=center;html=1;verticalAlign=top;shape=mxgraph.electrical.waveforms.sine_wave;fillStyle=dots;strokeColor=default;fontFamily=Helvetica;fontSize=12;fontColor=default;fillColor=#FF0000;" vertex="1" parent="bGUCjfSoPUJQvvFktI7P-135">
          <mxGeometry y="0.47999999999996135" width="19.68" height="7.87" as="geometry" />
        </mxCell>
        <mxCell id="bGUCjfSoPUJQvvFktI7P-137" value="" style="pointerEvents=1;verticalLabelPosition=bottom;shadow=0;dashed=0;align=center;html=1;verticalAlign=top;shape=mxgraph.electrical.waveforms.sine_wave;fillStyle=dots;strokeColor=default;fontFamily=Helvetica;fontSize=12;fontColor=default;fillColor=#FF0000;" vertex="1" parent="bGUCjfSoPUJQvvFktI7P-135">
          <mxGeometry x="39.359999999999985" width="19.78" height="8.87" as="geometry" />
        </mxCell>
        <mxCell id="bGUCjfSoPUJQvvFktI7P-138" value="" style="pointerEvents=1;verticalLabelPosition=bottom;shadow=0;dashed=0;align=center;html=1;verticalAlign=top;shape=mxgraph.electrical.waveforms.sine_wave;fillStyle=dots;strokeColor=default;fontFamily=Helvetica;fontSize=12;fontColor=default;fillColor=#FF0000;" vertex="1" parent="bGUCjfSoPUJQvvFktI7P-135">
          <mxGeometry x="19.679999999999993" y="0.47999999999996135" width="19.74" height="7.9" as="geometry" />
        </mxCell>
        <mxCell id="bGUCjfSoPUJQvvFktI7P-139" value="" style="pointerEvents=1;verticalLabelPosition=bottom;shadow=0;dashed=0;align=center;html=1;verticalAlign=top;shape=mxgraph.electrical.waveforms.sine_wave;fillStyle=dots;strokeColor=default;fontFamily=Helvetica;fontSize=12;fontColor=default;fillColor=#FF0000;" vertex="1" parent="bGUCjfSoPUJQvvFktI7P-135">
          <mxGeometry x="59.04999999999998" y="1" width="18.53" height="6.9" as="geometry" />
        </mxCell>
        <mxCell id="bGUCjfSoPUJQvvFktI7P-140" value="" style="group" vertex="1" connectable="0" parent="bGUCjfSoPUJQvvFktI7P-134">
          <mxGeometry x="0.06300000000000239" y="6.937000000000012" width="77.57999999999998" height="8.870000000000005" as="geometry" />
        </mxCell>
        <mxCell id="bGUCjfSoPUJQvvFktI7P-141" value="" style="pointerEvents=1;verticalLabelPosition=bottom;shadow=0;dashed=0;align=center;html=1;verticalAlign=top;shape=mxgraph.electrical.waveforms.sine_wave;fillStyle=dots;strokeColor=default;fontFamily=Helvetica;fontSize=12;fontColor=default;fillColor=#FF0000;" vertex="1" parent="bGUCjfSoPUJQvvFktI7P-140">
          <mxGeometry y="0.47999999999996135" width="19.68" height="7.87" as="geometry" />
        </mxCell>
        <mxCell id="bGUCjfSoPUJQvvFktI7P-142" value="" style="pointerEvents=1;verticalLabelPosition=bottom;shadow=0;dashed=0;align=center;html=1;verticalAlign=top;shape=mxgraph.electrical.waveforms.sine_wave;fillStyle=dots;strokeColor=default;fontFamily=Helvetica;fontSize=12;fontColor=default;fillColor=#FF0000;" vertex="1" parent="bGUCjfSoPUJQvvFktI7P-140">
          <mxGeometry x="39.359999999999985" width="19.78" height="8.87" as="geometry" />
        </mxCell>
        <mxCell id="bGUCjfSoPUJQvvFktI7P-143" value="" style="pointerEvents=1;verticalLabelPosition=bottom;shadow=0;dashed=0;align=center;html=1;verticalAlign=top;shape=mxgraph.electrical.waveforms.sine_wave;fillStyle=dots;strokeColor=default;fontFamily=Helvetica;fontSize=12;fontColor=default;fillColor=#FF0000;" vertex="1" parent="bGUCjfSoPUJQvvFktI7P-140">
          <mxGeometry x="19.679999999999993" y="0.47999999999996135" width="19.74" height="7.9" as="geometry" />
        </mxCell>
        <mxCell id="bGUCjfSoPUJQvvFktI7P-144" value="" style="pointerEvents=1;verticalLabelPosition=bottom;shadow=0;dashed=0;align=center;html=1;verticalAlign=top;shape=mxgraph.electrical.waveforms.sine_wave;fillStyle=dots;strokeColor=default;fontFamily=Helvetica;fontSize=12;fontColor=default;fillColor=#FF0000;" vertex="1" parent="bGUCjfSoPUJQvvFktI7P-140">
          <mxGeometry x="59.04999999999998" y="1" width="18.53" height="6.9" as="geometry" />
        </mxCell>
        <mxCell id="bGUCjfSoPUJQvvFktI7P-145" value="" style="group" vertex="1" connectable="0" parent="bGUCjfSoPUJQvvFktI7P-134">
          <mxGeometry y="13.874000000000024" width="77.57999999999998" height="8.870000000000005" as="geometry" />
        </mxCell>
        <mxCell id="bGUCjfSoPUJQvvFktI7P-146" value="" style="pointerEvents=1;verticalLabelPosition=bottom;shadow=0;dashed=0;align=center;html=1;verticalAlign=top;shape=mxgraph.electrical.waveforms.sine_wave;fillStyle=dots;strokeColor=default;fontFamily=Helvetica;fontSize=12;fontColor=default;fillColor=#FF0000;" vertex="1" parent="bGUCjfSoPUJQvvFktI7P-145">
          <mxGeometry y="0.47999999999996135" width="19.68" height="7.87" as="geometry" />
        </mxCell>
        <mxCell id="bGUCjfSoPUJQvvFktI7P-147" value="" style="pointerEvents=1;verticalLabelPosition=bottom;shadow=0;dashed=0;align=center;html=1;verticalAlign=top;shape=mxgraph.electrical.waveforms.sine_wave;fillStyle=dots;strokeColor=default;fontFamily=Helvetica;fontSize=12;fontColor=default;fillColor=#FF0000;" vertex="1" parent="bGUCjfSoPUJQvvFktI7P-145">
          <mxGeometry x="39.359999999999985" width="19.78" height="8.87" as="geometry" />
        </mxCell>
        <mxCell id="bGUCjfSoPUJQvvFktI7P-148" value="" style="pointerEvents=1;verticalLabelPosition=bottom;shadow=0;dashed=0;align=center;html=1;verticalAlign=top;shape=mxgraph.electrical.waveforms.sine_wave;fillStyle=dots;strokeColor=default;fontFamily=Helvetica;fontSize=12;fontColor=default;fillColor=#FF0000;" vertex="1" parent="bGUCjfSoPUJQvvFktI7P-145">
          <mxGeometry x="19.679999999999993" y="0.47999999999996135" width="19.74" height="7.9" as="geometry" />
        </mxCell>
        <mxCell id="bGUCjfSoPUJQvvFktI7P-149" value="" style="pointerEvents=1;verticalLabelPosition=bottom;shadow=0;dashed=0;align=center;html=1;verticalAlign=top;shape=mxgraph.electrical.waveforms.sine_wave;fillStyle=dots;strokeColor=default;fontFamily=Helvetica;fontSize=12;fontColor=default;fillColor=#FF0000;" vertex="1" parent="bGUCjfSoPUJQvvFktI7P-145">
          <mxGeometry x="59.04999999999998" y="1" width="18.53" height="6.9" as="geometry" />
        </mxCell>
        <mxCell id="bGUCjfSoPUJQvvFktI7P-155" value="incorporare&#xa; gli albumi" style="shape=image;verticalLabelPosition=middle;labelBackgroundColor=default;verticalAlign=middle;aspect=fixed;imageAspect=0;image=data:image/png,iVBORw0KGgoAAAANSUhEUgAAArwAAAK8CAYAAAANumxDAAAAAXNSR0IArs4c6QAAAERlWElmTU0AKgAAAAgAAYdpAAQAAAABAAAAGgAAAAAAA6ABAAMAAAABAAEAAKACAAQAAAABAAACvKADAAQAAAABAAACvAAAAADIqViuAABAAElEQVR4AezdB9glRZn2cfiGnINEySBgQkFRMTGCiLAYERVRMYERw65xVUBxTburYs4i7rpmEUyIIKAoEkSMIEgQJAtIHGCA775numae6TmhT+g+Hf51Xc907q7+1cs7zxTV3cssQ0EAAQQQQAABBBBAAAEEEEAAAQQQQAABBBBAAAEEEEAAAQQQQAABBBBAAAEEEEAAAQQQQAABBBBAAAEEEEAAAQQQQAABBBBAAAEEEEAAAQQQQAABBBBAAAEEEEAAAQQQQAABBBBAAAEEEEAAAQQQQAABBBBAAAEEEGikwLKNrDWVRgABBBCYVGA5nWBVxSqKlRUrKVZQeP3yijnZvP+eiKHFBeVe/Xm34g7FzYp/KK5W3KOgIIAAArUSIOGtVXNQGQQQQGAsgf+nozZUbKLYOJvfQNP1FPdRrKtYW7FWFqtr6uR22mW+TniJ4veK0xU/VfxGQUEAAQRmKkDCO1N+Lo4AAggUFnDP69aK7bLYJlveSlMnuu6VrWO5WJX6guJTiuvrWEHqhAAC7Rcg4W1/G3OHCCDQPIE1VOWHZfEQTXdQbK+YZq/snTrfLYrbs/DQBK9z3KVwb62HLHjogocpeJovHvbgoRCrKdybvJHCvc29yk1aeYTiwwqfl4IAAghUJkDCWxk1F0IAAQT6CtxPWx6neKxiF4V7cUf5/exk9BrF5VlcpanH0zquU3h87Q2KG7PwmFsntdMu7mX2vTxcsbviKQoPpYjlF1p4lsJ1oyCAAAKVCIzyC7WSCnERBBBAoAMCHmf7JIWTwt0UXh5WnNReqjhfcZ7iL4qLsvB699DWrayoCj1P8Q6Fh16kcqFm5ir+nlYwRQABBBBAAAEEEGi+wCN0C/5f+uconLwOiju1/WzFZxUvV7jX1w+aNbV42MOHFPGez9Wy3xBBQQABBBBAAAEEEGiwwKNUdyd67oGNyV5+/npt/57iTYpHK9wz2sZykG4qjQe2wcfbeJPcEwIIIIAAAggg0HaBLXWDhyouUOQT27Ts4Qc/UbxRsZOi34Ne2jSwbKSt/6Fw73FTyuGqaHLww2t+II+CAAIIIIAAAgggUHMBvzLsmYoTFLEHMyV2nvrhsS8onqbwWw2GFSfB31Wcrnhgn539ZoSPKD6h8Ht4/SGJuhff1xmKZPP1uleY+iGAQPMFlm3+LXAHCCCAwMwE1tGVX6l4lWLjHrXwWxG+qfiG4mSFX/U1SvGHIp6ncLJ8luLBCie5fsWX37Rwi8Lb/qJo0qu+dlN9T1S42MQ91b4PCgIIIIAAAggggEBNBDZXPTz+9FZF6qlMUydwxymepRhlLO5c7f9khcsmimco3qf4tOKDiucrtlK0pfxRN5LMXtqWm+I+EEAAAQQQQACBpgtsoRv4nOJORUrW0tTvwD1csaliUHHi+mWFP/3r4v/T9lCFE1uf6zeKoxQvVGymaGs5TDeW7L7a1pvkvhBAAAEEEEAAgaYIrK+KflLRK9H168M87MDjeHuVHbVy+7BhZc1/R3Ga4ouKyxQnKf5N8TBFm5Nc3d6i8ljNpYTXD/hREEAAAQQQQAABBGYg4OT07QqPmU3JWZp6DOpcxbCyina4UHFAFj/Q1ONvPX2hwuN0u1hW000ny/maX76LCNwzAggggAACCCAwSwG/TeESRUrK0tSJrnsn88Wv18p/HMJvJPC4XPcC+3g/XOYH3NZWUBZ+Xji5bg4IAggggAACCCCAQDUCW+gyfugsJWJpeq7W7alw8bt2Pe42lqdr4R+KnRX3VRym+JviBsWRitcrPD7XSTBlocDvNUm+O4GCAAIIIIAAAgggUK6AHx7zK8Y83CAlYZ5erXiJIiaqK2nZ43CdBO+hSOUrmrlGcZfCydxBCg9pSGVbzfgVXJSFAqdrkqwfAwoCCCCAAAIIIIBAeQJ+s8IJipR8eepxpX71WL8xtk6Q36i4VfEWhZO3exQ/UqSeYM1SBgj8QtuS+a4D9mMTAggggAACCCCAwAQCHopwvSIlXp665zb/v9g9JGETRSyP1IL39TEe27ujglJcICa8c4sfxp4IIIAAAggggAACRQRW0E5HKmKi66EIRyh6vTHgUVrv4Q1OcrdW+AtqPvbPiv0UaysoowmQ8I7mxd4IIIAAAggggEBhgQ215y8VMdn9q5b9wJnftLCeold5r1beqLhD8U+Fe337vX9XmyhDBEh4hwCxGQEEEEAAAQQQGEfgYTrIH3uIye7XtLxGONkxms8/XLa31l2q8HHu6XXSTJlMgIR3Mj+ORgABBBBAAAEElhJ4htbcpkjJrr+c5vfi5suLteIsxcpZfE5TH+PXjD1F8VTFVgrKZAIkvJP5cTQCCCCAAAIIILCEwMu1dLciJbvXav7xS+yxeGGOZv2xiPTqMR/jpNfDHSjTEyDhnZ4lZ0IAAQQQQACBjgscpvtPia6nfkfu5kNMXp0d417g/Yfsy+bxBEh4x3PjKAQQQAABBBBAYAmB92spJrunanmtJfZYZplHaNnDF1zcu+tj/E7dCxQnKfwWBsr0BUh4p2/KGRFAAAEEEECgYwL5ZNdDFFbqYbC91vk9un4Q7QSFE2Tvu4bCH5jwuF3K9AVIeKdvyhkRQAABBBBAoEMCfoVY7Nn9Xy279zYVJ7n3SQuaHqe4VeFjDlM40aWUK0DCW64vZ0cAAQQQQACBFgu8Qfc2KNn1ra+ocG+ue3Gd/KZXlR2ueUo1AiS81ThzFQQQQAABBBBomcDzdD8ef5sS3v/TfOzZjbf7Di14TO81itsVH1X8QEGpRoCEtxpnroIAAggggAACLRKYq3vxWxVSsnu85uNngvMPq+2R7euhDLsrXF6oiEMdFqzkj1IESHhLYeWkCCCAAAIIINBWgS10Y9cpUrJ7puZXU8TioQ4bZyueqOktipuzyH9ZLduNSYkCJLwl4nJqBBBAAAEEEGiXwKq6nXMVKdm9RPPrKfJlJ63wEIa5inmKfygerjhc8REFpVoBEt5qvbkaAggggAACCDRY4Ouqe0p2PTzhIQPu5dfadpfCPbs7hv0+oHm+pBZAKpgl4a0AmUsggAACCCCAQPMFXqVbSMmup/uFW1pO8y9V/L9sncfmXqjwfh6rmy8kvHmRcpdJeMv15ewIIIAAAggg0AIBv07Mb1dICa97afPlSVrxLYVfP3aawvv+UeF1lNkKkPDO1p+rI4AAAggggEDNBfyqMQ9PSMnurzTvHl2X/EcjjtK69EDbJzW/ksLJ1q4KyuwESHhnZ8+VEUAAAQQQQKABAq9XHVOy67ctbB3q7NeNOSFO5TDNeN8LFCkpdo/vWxSU2QmQ8M7OnisjgAACCCCAQM0F7qv6+aGzlPAekquvx+r+t8Jjdx+nmK+4SHGb4gmKVOI7etM6ptUJkPBWZ82VEEAAAQQQQKBhAl9RfVOye4bm00Np8TaerYUvKi5V+GMUD1W8SPE7Ra/9tZpSsQAJb8XgXA4BBBBAAAEEmiGws6p5j8IJr6cPU/Qrf9IG7/fvYYf/0PxzwzKzsxMg4Z2dPVdGoFMC9HJ0qrm5WQRaIeA3MaSH0o7W/Nl97uoVWn//bNv1YZ+3a365sMwsAggggAACCCCAAAK1EXiiapKGMng8bvpMsCv4WP+RlQdo6teV3ah4kcJfVfOxlHoJ0MNbr/agNggggAACCCBQA4GYIH0wV5+9tOyH15ZTnKlwYry/wuXNCvfybuYFSm0EYnvOrU2tqAgCCCCAAAIIIDAjAb9dIfXu+g0N6/aox8+17nvZft/IbT9Oy8fn1rE4WwES3tn6c3UEEEAAAQQQqJmAk9WU8OZ7d1NVn5btc62mfjVZLOtr4WrFAXEl8zMVIOGdKT8XRwABBBBAAIE6CTxYlUnJrsfmbtCncsdk+/nTwSv22GdvrbtS4Y9OUGYvQMI7+zagBggggAACCCBQEwG/TzclvJ/tU6fHZ/t4WMOFivf32c8fpPCbHiizFyDhnX0bUAMEEEAAAQQQqIHAOqqDe3Wd8Pq9u9srXFZVrLRgbuEfTnS93e/l3Ulxk+IBinzx19VOVGyR38By5QIkvJWTc0EEEEAAAQQQqKPAG1Wp1Lv741wFX5Qt757tEx9Ue47WHZttz0821Ir35FeyXLkACW/l5FwQAQQQQAABBOom4A9MXKBICe/TcxX0u3dfrThZcbci36P7Gq17hKJX8bjg+/bawLrKBEh4K6PmQggggAACCCBQV4FdVbGU7F6u+Tk9KupeXO/ztR7bvGqbPuu9mq9NDsCpYBMJbwXIXAIBBPhlz88AAgjUW+AloXpHad69uPmSkuCP5jdky36ArV/xmF8KAggggAACCCCAAAIzEfBDabco3HvrxHRrRb7sqBXefofi6PxGlmsvQA9v7ZuICiKAAAIIIIBAmQL+QEQaznCy5t2Te39FLN/Vgvd5ssJvZdhXQWmOAAlvc9qKmiKAAAIIIIBACQI/0DlTwntQdv7XabpZNu/Xk3m7k16X1yv8JbVenxz2dkr9BEh469cm1AgBBBBAAAEEKhJYR9e5U+GE1lMvu/hzwaco/P5dfzzC2x+vcHEP8K8V/toapRkCJLzNaCdqiQACCCCAAAIlCLxY50y9u8flzn+Elr+g8CeC/5LbtqmW3cvrd/dS6i9Awlv/NqKGCCCAAAIIIFCSQBzOcGDuGmto2UmtE+K35LZ5cRfFzYpHe4FSawES3lo3D5VDAAEEEEAAgbIEnND6rQtOaO9SrK3IfyDCvb7env/QhFYtKPvqz4sVPpZSXwES3vq2DTVDAAEEEEAAgRIFnq1zO5l1/CS7jocqvCmbj+N7v5yt6zV5lVZ+vdcG1tVGgIS3Nk1BRRBotwBfGWp3+3J3CDRRYJ9Q6e9l85dp6rczvEzhhHh5xb8p3JPbb+jCJ7XtHMV+CgoCCCCAAAIIIIAAArUQ8D/Cr1OkHt4tQq3W0/w1iosU1yqWUxys+JViUHmFNjK0YZDQ7Lb9XJdObT13dtXgyggggAACCCCAQHUCfuAsJUB/6HHZQ7Lt7r1N5auaib3CaX2cbhwXmK+NAAlvbZqCiiDQbgGGNLS7fbk7BJomsGeo8A/DfJp1r67L+gsnC/70MIenhOVes1f0Wsk6BBBAAAEEEEAAAQSqFvilLph6eHfvcXF/WOIqhV9LFpNcj+/dVkFplgA9vM1qL2qLAAIIIIAAAhMKrKXj5yuc8N6mWFERy+Za8LYPKR6n8JCH1OOrWUoDBUh4G9hoVBmBJgowpKGJrUadEWinwFzd1pzs1k7V1O/idVl34WRRj+7XtOxE6T2KFykoCCCAAAIIDBSgd2QgDxsRQKBCgSeEa/00zO+m+TsVHt/r4QxnKlyc+O6uWFbhnl8KAggggAACCCCAAAK1FjhXtXPi6nh4qOnKmr9A4WEOXwjrmW2+gHvqU5vPbf7tcAcIIFBXAYY01LVlqBcC3RLw19MenN3yTZr6gxGp3K6Z/1Q48T0trWSKAAIIIIBAUQES3qJS7IcAAmUKPFYn99AEFye1GyyYW/zHltnsWzVdY/Fq5hBAAAEEEBguQMI73Ig9EECgfIHHhEuconm/oeH1Yd0emv+Fwq8l+0RYzywCCCCAAAJDBUh4hxKxAwIIVCAQE16/i/dixdMUHsvr4Q47KvwhigMVHs/rh9UoCCCAAAIIIIAAAgg0QsC9ufMUfnjJb2NYSeHyRMXfFC9XeFt8kG1VLVOaL8BDa81vQ+4AAQQQQAABBAoI7KJ9nNA6Ts/t77cy+GMU/1Dwf6RyOC1YJOFtQSNyCwg0QYC/QJrQStQRgXYLPCLcnoczrBKWPY73RsUfFfeE9cwigAACCCBQWICEtzAVOyKAQEkCMeH1RyVeo3hQdi0PcVhN4bc47JetY4IAAggggAACCCCAQKME/BBaGtKwjeY3V3jsrl9FloY7PFvz5yk2UVDaI8CQhva0JXeCAAIIIIAAAn0E1tb6lOxeH/Z5n+b/oDhUcU223snw+7N5Ju0QIOFtRztyFwgggAACCCAwQGB3bUsJ70/Cfn5zw9mKuxTfDuvX0ry/uEZphwAJbzvakbtAoPYCjOGtfRNRQQRaLeD366bymzSj6R2KvRW3KdzTm4ofYPOnhikIIIAAAggUFiDhLUzFjgggUIJATHjPyZ3/Vi37gbVHKtzjS0EAAQQQQGAsARLesdg4CAEEpiQQE97f5s65k5b9loZnKNLHKHK7sIgAAggggMBwgeWG78IeCCCAQCkCft/udtmZ3ZvrtzW4bKrYS+GvqXkcr4cwMIxBCBQEEEAAgfEE6OEdz42jEEBgcoEH6hTpd9DvNJ8+LHGZ5v0e3rcrzlBQEEAAAQQQmEgg/WUz0Uk4GAEEEBhDIH1cwofGB9O87GTXZfWFE/5EAAEEEEBgfAES3vHtOBIBBCYTeHA4PJ/w3qJtHrf7AsUBYT9mEUAAAQQQGFmAhHdkMg5AAIEpCQzq4d1M1/DvpycpjlCsq6AggAACCCAwlgAJ71hsHIQAAlMQGJTw3l/n/73iVMU+imcqKAgggAACCIwlwFsaxmLjIAQQmFDAX0zbKDvHtZqmzwdvqXl/eW17hR9kc/mT4rwFc/yBAAIIIIDAGAIkvGOgcQgCCEws4IQ2lZjMXqKVxys8hvcURSrpDQ5pmSkCCCCAAAKFBRjSUJiKHRFAYIoC/RJe9+5+U+GPTaQe3ilellMhgAACCHRRgIS3i63OPSMwe4F+Ca9r9iXFDYp9vUBBAAEEEEBgUgES3kkFOR4BBMYRiAnv+bkT+PfSsoqXKHbObWMRAQQQQACBkQVIeEcm4wAEEJiCwLbhHHEMr1f7wbWzFK9UHKqgIIAAAgggMJEAD61NxMfBCCAwhoD/ob1Vdtxdml6SzXvyHoUT4D8qvqxYT+EE+GIFBQEEEEAAgbEE6OEdi42DEEBgAoFNdOyK2fGXaHp3Nu+JX0/2WcWfvaDyXwq/toyCAAIIIIDA2AIkvGPTcSACCIwpsE047q9hfnnNf17xd4W/tJaKX1FGQQABBBBAYGwBEt6x6TgQAQTGFIgJ74XhHJ/U/MqK0xR7K7ZWUBBAAAEEEJhYgDG8ExNyAgQQGFEgJrKxh/efOs+nsnM9TFN/jY2CAAIIIIDAxAL08E5MyAkQQGBEAT+ElkpMeI/UyscpNlD4y2rXKygIIIAAAghMLEDCOzEhJ0AAgREFtgj7XxLmL9O8E951wzpmEUAAAQQQmFiAhHdiQk6AAAIjCsQe3kuyY1OSe6mWv6VYNlvPBAEEEEAAgYkFSHgnJuQECCAwgsCq2vc+2f7+fPDN2fw7NH20wu/d/YviXgUFAQQQQACBqQiQ8E6FkZMggEBBgS3CfpeE+RM0/x3FAxQXhfXMIoAAAgggMLEACe/EhJwAAQRGENg87HtJmP+R5v+k8KvJSHgDTMtn6clveQNzewjURYCEty4tQT0Q6IbApuE2/xbmH6j5pyn80Yn4nt6wC7MIIIAAAgiMJ8B7eMdz4ygEEBhPICa8l4dTHKR5j919v+KKsJ5ZBBBAAAEEJhagh3diQk6AAAIjCGwS9o0J72e0/sMKP7R2iYKCAAIIIIDA1ARIeKdGyYkQQKCAQL8eXo/fPUaxQ4FzsAsCCCCAAAIjCZDwjsTFzgggMKFAvx5en/bNCt6/OyEwhyOAAAIIIIAAAgjMVuBWXd5P5vvTwcv3qEp8i0OPzaxqmcCpuh//PDjmKigIIIBAKQL08JbCykkRQKCHwBpat0q2/lpN7+qxzzU91rEKAQQQQACBiQRIeCfi42AEEBhBYKOw75VhPs7eHheYRwABBBBAYBoCJLzTUOQcCCBQRKBIwlvkPOyDAAIIIIDASAIkvCNxsTMCCEwgEBPeqyY4D4cigAACCCAwkgAJ70hc7IwAAhMIxIS335CGCU7PoQgggAACCPQWIOHt7cJaBBCYvgAJ7/RNOSMCCCCAQAEBEt4CSOyCAAJTEdgwnIUhDQGDWQQQQACBcgVIeMv15ewIILBYwJ8NToXXjyUJpggggAACpQuQ8JZOzAUQQCATWD9I+D28FAQQQAABBCoRIOGthJmLIICABGIPLwkvPxIIIIAAApUJkPBWRs2FEOi8QEp4/Vnhf3ReAwAEEEAAgcoESHgro+ZCCHRawJ8VXjETuF5TJ70UBBBAAAEEKhEg4a2EmYsg0HmB1LtrCIYzdP7HAQAEEECgWgES3mq9uRoCXRW4T7hxEt6AwSwCCCCAQPkCJLzlG3MFBBBYZpl1AoKHNFAQQAABBBCoTICEtzJqLoRApwXWDXdPwhswmEUAAQQQKF+AhLd8Y66AAAJL9vDyhgZ+IhBAAAEEKhUg4a2Um4sh0FmBJvXw7qBWOlixfGdbixtHAAEEWiZAwtuyBuV2EKipQJMS3t/JcJ7iD4on5TyfqeXXK1bNrWcRAQQQQKDGAsvVuG5UDQEE2iPQtIfWjhb9bYpjFJ9XnKtYQ7GC4kDFWxReP1+xrMKdB4407+mc3HLcR5sWvIvY7yN23JvF3WG916Vt6b3F3p7Wp2PT1Ov9BozTFX9VUBBAAAEEEEAAAQQqFPiRrpWSut0qvO4ol/pX7bxTdoDfG/xVhRPaVO+mTJ0Af12xlqLu5VRVMLnOrXtlqR8CCDRXgB7e5rYdNUegSQJrhsreGObrNOse21MUJys8dMFJ7wcVP1bso3iC4jkK9/y6B3clxcsUByucuL1N4QQ59eSmqVYttc5JXuyZ9byLp3Fbfp+4nN/PdVpf8XTFoQrXe1fFHQoKAggggAACCCCAQMkCf9T5naA5ti75WqOcfq52jv/w307LaVjBLrkTbablvXPrvOhhDk9VHKhwkluH4uT8LsV/1KEyA+rgfyikn4u5A/ZjEwIIIIAAAgggUHuBv6uGKbGJX12bdcWd4P5C8eisIp/S1D24XneGYnVFU8uHVPFbFXH8dN3uhYS3bi1CfRBAAAEEEEBgbIFbdGRKeOv2uq9HqG5+2Ou9Cr+d4d0K99T6wbRvZ/OaNK5sohq7t/rlNa45CW+NG4eqIYAAAggggEBxAQ8ZSMmue09nXTyeePtcJfzu3asVrufGYdvmmr9/WG7arHup/QBbXQsJb11bhnoh0DIB92JQEEAAgTIF6vbA2j91s3spXhxu+nea/062fEBYf6nm/xyWmzZ7lir8oKZVmvoigAAC0xYg4Z22KOdDAIG8wBphxU1hfpazH9HF/TaDjyr8vlyXbRQnK56v8ENfbSgX6yZij3Ub7ol7QAABBEYWIOEdmYwDEEBgRIH44NfNIx5b1u4euuCe3McpvqVYUbGB4hyF387wMIXfvtD0coNuYLWm3wT1RwABBCYVIOGdVJDjEUBgmEBMeP3wWl2K6+LXjPl/+TvpdU+032rgccb/pbhT0fTi9wKnHuym3wv1RwABBMYWIOEdm44DEUCgoEDsYaxDD697ddOr0a7UvIcv+PVkfkDNbzVoU/GHKtp2T21qH+4FAQQqEiDhrQiayyDQYYG69fD+Sm1xpCJ9WOJyzTsJ/oeiTh/FUHUmLh664aSXggACCHRagIS3083PzSNQiUDs4a3DkAb/b/7XKb6oSG9q8CvJrlfsrjhQ0ZbiZJeEty2tyX0ggMDYAiS8Y9NxIAIIFBSIPbx1GNLgal+neIbCY3UPU7j4f/1/SOFeUb+xoQ3F9+KgIIAAAp0W8AvhKQgggECZAquGk9ehhzdV5zzN+H28Jyj8RgYnhk56j1b4rQ1tKPTwtqEVuQcEEJhYgIR3YkJOgAACQwTikAa/BWHWxb/3PKzBxV8i21PxE4WT3NQbeofm21Cc8KZ7asP9cA8IIIDAWAIMaRiLjYMQQGAEgZXDvnX4tPDyqs+/KtKbGk7X/FMVTg7b1glAD68alYIAAgiQ8PIzgAACZQusEi5Qh4T3dtXn/xQ/VOyT1e1kTS9UOBH2ByjaUkh429KS3AcCCEwkQMI7ER8HI4BAAYGY8DrZrEO5UpV4vuJzig8o/LvQyeHPFH6QrS2l7gkvwy3a8pPGfSBQc4G2/e+7mnNTPQQ6KRAT3jr08KZG+ItmdlP8VLGdwl8k+5XCD7HtrDhT0fTihNJJLwUBBBDotAAJb6ebn5tHoBKBOIa3Lj286cb/rJlHK05UpI9OnJ82tmBa9x7eFhBzCwgg0AQBhjQ0oZWoIwLNFqhrD29SvVQzj1dcpdghrWzJ1D28DBtoSWNyGwggML4ACe/4dhyJAALFBOrcw5vu4ArNXK7wxyj2TytbMKWHtwWNyC0ggMDkAiS8kxtyBgQQGCxQ14R3E1X7JYpls+o7OXy7YjPFltm6pk98T/TwNr0VqT8CCEwsQMI7MSEnQACBIQIrhu11+qCDe3T92WM/tLahwsnhXQq/teEGRRuKvxzn+6IggAACnRbgobVONz83j0AlAjHhnVfJFYtf5Ejten+F38jg5DD1ht6o+TYUxvC2oRW5BwQQmFiAHt6JCTkBAggMEYgJb116eNMwBlf9lYrjFJsrVlC0qbh3lx7eNrUo94IAAmMJkPCOxcZBCCAwgkAdE95nqf7rZvfgXtBXKX6tOEzh4Q1tKSS8bWlJ7gMBBCYSIOGdiI+DEUCggEAdE15/XOIbis1C/T3c4mjFIYrYAxx2adwsQxoa12RUGAEEyhAg4S1DlXMigEAUWClbcPJ1Z9www3mP0X2X4leK3bJ6uDf094p3KNryfAM9vFnjMkEAgW4LkPB2u/25ewTKFvDvmJQ81iXZTfd8qmYOVnxPcVC20gmiE3O/raENhYS3Da3IPSCAwMQCJLwTE3ICBBAYIBAfAqvLA2trhvr+QPPPVHxEsUtY35ZZEt62tCT3gQACEwmQ8E7Ex8EIIDBEYPmwfX6Yn+WsPyrxPsU6WSU8nndXxU2KpyjmKNpSGMPblpbkPhBAYCIBEt6J+DgYAQSGCMSEty7DBH6rOv9Q4XfvPier/1manqOYq/iyoi0PrdHDq8akIIAAAiS8/AwggECZAmn8rq9Rlx5e1+XnimcrPJTBCe4qCpc3KP6iOMILLSgkvC1oRG4BAQQmFyDhndyQMyCAQH+B2MNbp4TXNT5b8SjFwxTfV3i8sR+se7fiWMUDFE0vDGloegtSfwQQmIoACe9UGDkJAgj0EYg9vHUZ0hCreqkWHqdYVfGEsOEMzf8pLDd11p9Ldi8vBQEEEOi0AAlvp5ufm0egdIE69/Cmm79BM7sr/qh4YlrZ8OkaWf0Z0tDwhqT6CCAwHQES3uk4chYEEOgtEBPeOvbwplrfopmLFTsq9k8rGzpdS/VOr1gj4W1oI1JtBBCYrgAJ73Q9ORsCCCwpEIc01G0Mb6rpdppZT+H6vV9xmSK+P1iLjSo3qrZbKA5SeEhDnf+hoepREEAAgfIF4l9G5V+NKyCAQNcE4u8YJ191LO7Z/ZFiU4V7RH+haHrxa9ZOULi3uq7/0Gi6MfVHAIEGCdDD26DGoqoINFAg/o6pa8LrNzMcothQsXMDjXtV+e9aua3iCkVd3XvVm3UIIIBAKQLxL6NSLsBJEUCg0wLxd0yd3xbgNzL4M8OHKV7RghZ7uu7hu4qVFAxpaEGDcgsIIDCZQPzLaLIzcTQCCCCwtED8HVPnhNc1d2L4VsXbFI9UNLl8XpW/TfElBQlvk1uSuiOAwFQE4l9GUzkhJ0EAAQSCQPwd04SE119ge7hib0V8w0S4pdrPetzuqxX7KD6qYEiDECgIINBtgfiXUbcluHsEEChDYE44aV0TXr+hYVmFE0P3hl6r8NCGpj7s5a/EvVTxTcXXGnwfqjoFAQQQmI4ACe90HDkLAgj0Foi/Y+qa8M5T1Y9WbKOI//v/3t63VPu1t6qGT1Jsqnimwg/lURBAAIFOC8S/jDoNwc0jgEApAvF3TF0T3pt154crHqh4niLWWYuNKnuqtrsprlI8RvFXRVN7qlV1CgIIIDAdgSb/Yp+OAGdBAIEyBeLvmLomvL5/J4ZHK16p+LbCbzdoYvmZKu1xuy9SuOfa7xQm4RUCBQEEui0Q/zLqtgR3jwACZQh4bGwqdR0ikOroxNCv89pK4XGwTfzamocvvFDxScXLFDa/Q0FBAAEEOi1Awtvp5ufmEei0QEp0t5bCGxV+wO5CxaMUf1Z8TtHE8htV+gWKjygOVPj1ZBQEEECg0wIkvJ1ufm4egU4LbKy7f4PiYsX1in9V3Fdxu+J1io8pHqJoYvGwjJ0Uz1DUtWe9ia7UGQEEGipAwtvQhqPaCDREoM7Jlj+/6//df6LCQxi+pDhe8ViFy1mKcxfMNeMP91j73bup/EUzHqJxY1rBFAEEEOiqAAlvV1ue+0ageoE0hKD6K/e/ose6Xqo4TeHk18vfUWyqaFrxPy7mKj6hiNYMaRAIBQEEEEAAAQQQKEtgN53YiZjjJ2VdZMLz+otq31O4jpsr3qw4RRGTRi02oqyqWp6v+IwidWgcUuOa2zn9fMytcT2pGgIINFwg/UJs+G1QfQQQqKmAk5k6l5VVOX9s4lmK7yr+V/EhhXtJ/XnhphV/dMLjdp+s8D24eEwyBQEEEOi0AAlvp5ufm0egUoE69piuJwE/oOak96cKf473rYpvKH6saGL5kyq9g8LJ71MUfh8vBQEEEOi0wHKdvntuHgEEui7wNwFsoPiAwq8k+5TCrylbUeExvU0t/1TF06vW3ONLQQABBDotQMLb6ebn5hEoXaDuQxoMcITitwo/3OV37zrxbWrZRhW/VOEea5e7FQxpWEDBHwgg0GUBhjR0ufW5dwTKF4gJbx2HNFjACeH+iu0Ub1E0ufh3ul+n5nfwpkLCmySYIoBAZwVIeDvb9Nw4ApUINCHhdSJ+i+K1ilcrjlTUNTlX1QYWv3v3S4pTFY/O9iThzSCYIIBAdwVIeLvb9tw5AlUI3BMuUtffN07K/aDazoqHKjZSfFjRpOK6H5xV+COavlfhB+/WVvDQmhAoCCCAAAIIIIBAWQLuZXRC6TilrItM4bwe++q3Gvj1ZC57Kh62YK45f/xQVf2iYk5WZX8xbj/F9tlyHSf+mUg/H3PrWEHqhAACCCCAAAIIDBNwz2NKaH45bOcZb3+Nru+hDfebcT3GvfzGOvAKxSdzJ9git1ynxZNVmfTzsWudKkZdEECgXQJ1/V+M7VLmbhDoroATyFT8FbA6l5NUuTcp/IqyJhYnu+6Z3lfx7HADdR7SsEKoZ3qzRFjFLAIIIIAAAgggUH+BDVXF1IN3eU2ru57qtbtiq6x+T9B0zWy+iZPNVOmvKvwuYZc638tFql/6+fBbMigIIIAAAggggEDjBDyedL7CSc2dijr+X6VPq15+k4E/x9uW4rdMrJTdTEp863ZvTsTvUfhnwz8jda2nqkZBAAEEEEAAAQQGC1yqzakXz72PdSsPVIX8VbUf1K1iY9THvdVNKf4CXPq5OKcplaaeCCDQTIE69rY0U5JaI4BAP4HzwgYnl3Urf1SF/P5dD2V4QN0qN2J9Vtb+xyseM+Jxs9j9BeGirjMFAQQQQAABBBBorMD7VfPUk3dYje/iparbj2tcv6JVm6sd/bDg4QoPbahj8avS/Nnj9HPx4DpWkjohgAACCCCAAAJFBZ6mHVNic0rRg2a0nxMxf6yh6eVxuoFrFZ+p6Y34HxbpZ+LEmtaRaiGAAAIIIIAAAoUF1tCefmDNCY4fTmrSOFNVt7FlI9X8m4o31+wODlF9UrLrh9b8cRIKAggggAACCCDQeAF/BSwlOW9s/N006wZ2UHWXq0mVn6R6pH/8+OfhszWpF9VAAAEEEEAAAQQmFthPZ0gJr9/H64erKN0SeLJu9zZF+jnww4KrdYuAu0UAAQQQQACBNgu4hzF+ZOA9bb5Z7m0pAQ9j8JfUUrJ7tebThz6W2pkVCCCAAAIIIIBAUwWep4qnhMdjefdo6o1Q78ICm2jP4xSp3T29SvEgBQUBBBBAAAEEEGilQHw636/O2rOVd8lNrSWCdytuVcRk9w9a3lJBQQABBBBAAAEEWivgNzRcrEhJkN/F+l8KJ0iU5gvsqFv4mOImRWrjNP2C1jFmVwgUBBCoXqCuLyWvXoIrIoBAVQLb6EJ+92r8zLB7e7+l+JHiXMXfFe4d9NcgV1SskIXHAi+vmKPwNk/jvBYLf2zBiZiLp349Vpymea+P25ygx235ZW+L232s93G0qfjvDv8jZXOFv57nL7u5t77XuNzztf61ip8oKAgggMBMBEh4Z8LORRHovMAGEviKomvjeFMy7ATYybBLSoo9TevS9rQuHZf29bLDxfum5bTfgg3Z+jTvY/07P/3eT1Nv9z8eYnib/3Hhf0ykqf+h4X94eOoYVi7UDh9QHKXwmG0KAggggAACCCDQSYHn6K49rjMmbMw318M99V9X7KVwAk1BAAEEaiEQ/4VfiwpRCQQQ6KTAI3XX+yh2UWyrcA+wexPdK+kPFdyhcC+hX23laewBjfNOlosW//6L4QSt13Ls+czPr6ljUmKXxq26V9TnSfumHlKtak2x882KKxQXKM5R/DwLtxUFAQQQqJWAfylTEEAAgToKOGF0wlvncokqt3lWwY009Su3BpWUBKep93WC7PC6lHCn7Wk5bT9M+7xU4fJRxacWzC1OsL2YjvV8SrzTfPoHgadx3s4xvC39wyL9I8PL/sdHCs1SEEAAgWYIuOeBggACCNRRoO7Jrs1S0ljULyWVRffP7zcvrLhS8+eFZWYRQAABBPoIuCeAggACCCAwnkBMeKv4P2Ye5pGKe1opCCCAAAIFBEh4CyCxCwIIINBHoOqEN74dwUMNKAgggAACBQRIeAsgsQsCCCDQR6DqhJce3j4NwWoEEEBgkAAJ7yAdtiGAAAL1EqCHt17tQW0QQKAhAiS8DWkoqokAArUUiD28D1YNy/6d6rc1pOK3JlAQQAABBAoIlP3LuUAV2AUBBBBorEB8UO3LuotjSr4TEt6SgTk9Agi0U4DXkrWzXbkrBBCoXmA3XXJLhcfZlvUGhfg72x/coCCAAAIIFBCIvzwL7M4uCCCAAAJBIPbw+ktr3w/bypilh7cMVc6JAAKtF2BIQ+ubmBtEAIGKBDar4Dox4aWHtwJwLoEAAu0QIOFtRztyFwggMBuB2MN7nKrwOUVcF+enUcP4O5uEdxqinAMBBDohEH95duKGuUkEEECgJIFn67zbKV4Qzj/tYWPxd3YTPr0cKJhFAAEEZicw7V/Gs7sTrowAAghULxAT0PN0+ccr4rADvzd3ml9Ei9eLr0Sr/s65IgIIINAgARLeBjUWVUUAgdoJxAT0EVntLg+1jB+KCKvHno1DJOjhHZuRAxFAoGsC8Zd11+6d+0UAAQQmFYgJ6D91sj8o3q1I66ed8Mbf2SS8k7YexyOAQGcE4i/Pztw0N4oAAghMSSD+Dv2jzrm34vmKQ7PzT/v/oqVE2qdnSEOGzAQBBBAYJhB/WQ/bl+0IIIAAAksKxN+h22vTrxTbKn6ucHI67R5eEl6hUhBAAIFRBeIv61GPZX8EEECg6wLxd6hfE3asYm3FSQr3wE474dUpKQgggAACowrEX9ajHsv+CCCAQNcFYo+rx++erDhDsY3CZdpDGhaelT8RQAABBEYSIOEdiYudEUAAgSUEYkLrHt7/VpyiOFXxUAU9vEKgIIAAArMWIOGddQtwfQQQaLJAfOdu+vLZS3RDn1Ecr9i6yTdH3RFAAAEEEEAAAQQQuEUEHqvrWF+xmyKVHTTzLcW6acUUpqfpHOl6T5zC+TgFAggg0AkBeng70czcJAIIlCQQe3iv1zX2UbxH4bG9v1N8UOGkmIIAAgggMEOBOP5shtXg0ggggEAjBWLC6yEN71ScrdhQcZBiRcUdimkV9+5SEEAAAQRGFCDhHRGM3RFAAIEgkBLeNMzgVm17qsJDD65W/FQxzRIT3viGiGleg3MhgAACrRNgSEPrmpQbQgCBCgXS79D52TV31fR2xR6Klyo2UkyzkPBOU5NzIYBAZwTSL+vO3DA3igACCExJYPlwnpTwumf3E4rNFE56X6NYVTGtQsI7LUnOgwACnRJgSEOnmpubRQCBKQr0Snid+B6sOF3h15K9VrG6wkMdplHuCSdhSEPAYBYBBBAYJEDCO0iHbQgggEB/gfj7M/Xweu+rFHsrTlX4gTUnvdMq9PBOS5LzIIBApwQY0tCp5uZmEUBgigL9El5f4k+KFyvc2zvNhDf28PL7W7gUBBBAoIgAvzCLKLEPAgggsLRAHNJw19Kbl7lT6w5QHKbYqcf2cVbFHl5+f48jyDEIINBJAX5hdrLZuWkEEJiCQOzh7ZXwrqZrnKR4iuIjipgga3Gskj5f7IP5/T0WIQchgEAXBfiF2cVW554RQGAaAkUS3nm60C8Vr1D4/byTFoY0TCrI8Qgg0EmB+Au7kwDcNAIIIDCmwArhuH49vOkrax7Te0HYf9zZ2MObPnox7rk4DgEEEOiMAD28nWlqbhQBBKYsEIco9Ep4/Vnh2CPba59RqxTPx+/vUfXYHwEEOivAL8zONj03jgACEwoMS3jj9gkvtehwEt5FFMwggAACxQVIeItbsScCCCAQBWJC26v3towhYwxpiC3APAIIIFBQgIS3IBS7IYAAAjmBmPD6FWT5Erfnt427TMI7rhzHIYBApwVIeDvd/Nw8AghMIBAT2qp6eOMX3XhobYLG41AEEOiWAAlvt9qbu0UAgekJxLc00MM7PVfOhAACCExdgIR36qScEAEEOiLgtzCk0ivhLaMHNvbwljFGON0PUwQQQKBVAiS8rWpObgYBBCoUoIe3QmwuhQACCEwiQMI7iR7HIoBAlwWGJbxl9MDGHt4yepC73J7cOwIItFiAhLfFjcutIYBAqQLDhjTEh9qmVZGY8JaRUE+rnpwHAQQQqJUACW+tmoPKIIBAgwRiD2/6hHCsfhkJaXwtWRnnj/VnHgEEEGiNAAlva5qSG0EAgYoFYsLb66E1engrbhAuhwACCPQTIOHtJ8N6BBBAYLBATHjzPbwr6dA4/GDwmYpvje/7LSOhLl4T9kQAAQQaJEDC26DGoqoIIFArgTiGN5/wrq6aziuhtjGJZkhDCcCcEgEE2ilAwtvOduWuEECgfIFBCe9qunwZCW/s4SXhLb+NuQICCLREgIS3JQ3JbSCAQOUCMeHNj+GtooeXIQ2VNzkXRACBpgqQ8Da15ag3AgjMWsDjdFPJ9+aW1cPLkIYkzhQBBBAYQYCEdwQsdkUAAQSCQOzhzY/hdcKbXxcOHXuWIQ1j03EgAgh0WYCEt8utz70jgMAkAjHhraqHNya8DGmYpPU4FgEEOiVAwtup5uZmEUBgigLDEt6ye3hJeKfYmJwKAQTaLUDC2+725e4QQKA8gTiGN5/cljWGlx7e8tqTMyOAQIsFSHhb3LjcGgIIlCoQE16GNJRKzckRQACByQRIeCfz42gEEOiuwMrh1vMJb1mvJaOHN6AziwACCBQVIOEtKsV+CCCAwJIC9PAu6cESAgggUFsBEt7aNg0VQwCBmgvEhPf2XF0Zw5sDYREBBBCYpQAJ7yz1uTYCCDRZICa8+SENZb2HN37Rjbc0NPmnh7ojgEClAiS8lXJzMQQQaJHAsIQ3nwRP49bjGN4VpnFCzoEAAgh0QYCEtwutzD0igEAZAvGhtfyQhrIeWos9vCS8ZbQq50QAgVYKkPC2slm5KQQQqEAg9vDmE17G8FbQAFwCAQQQKCpAwltUiv0QQACBJQViD29++EIVY3jp4V2yPVhCAAEE+gqQ8PalYQMCCCAwUCAlvHdrrzi21geVlfDG6/DQ2sDmYSMCCCCwWICEd7EFcwgggEBRgRW147LZzvnhDF69qiL/ueFs94kmjOGdiI+DEUCgqwIkvF1tee4bAQQmERg0ftfndQ/vbZNcoM+xJLx9YFiNAAIIDBIg4R2kwzYEEECgt0AazuCt+R5ej629V+GhDtMuJLzTFuV8CCDQCQES3k40MzeJAAJTFhiU8Ho4Qxm9u74FEt4pNySnQwCBbgiQ8HajnblLBBCYrsAq4XT55Nbb8r2+YfeJZmPC63HEFAQQQACBAgIkvAWQ2AUBBBDICcSEN5/cuoc3/5qy3OFjL8YH4Xgt2diMHIgAAl0TIOHtWotzvwggMA2BQUMaqurh9e/vOdO4Gc6BAAIItF2AhLftLcz9IYBAGQKxhzc/pME9vPle32nV4R6daH44GcMaAgazCCCAQD8BEt5+MqxHAAEE+gsM6uEt86E11yiO42VYQ/82YgsCCCCwSICEdxEFMwgggEBhgVn18LqCJLyFm4kdEUAAgYUCJLz8JCCAAAKjC8Qe3l5DGsp6aM01jQ+uMaRh9LbjCAQQ6KAACW8HG51bRgCBiQU8bCGVfMLrZLisMby+JglvkmeKAAIIFBQg4S0IxW4IIIBAEBg2pIEe3oDFLAIIIDBrARLeWbcA10cAgSYKDEp4vY0e3ia2KnVGAIHWCpDwtrZpuTEEEChRYFDCu5qumx/mMM2qMKRhmpqcCwEEOiFAwtuJZuYmEUBgygKDEt4y38Pr24jDJXhobcoNy+kQQKCdAiS87WxX7goBBMoViAnvrblLlf0eXnp4c+AsIoAAAsMESHiHCbEdAQQQWFogvqWhV8LLGN6lzViDAAIIzEyAhHdm9FwYAQQaLDDoPbzu/Y3DDqZ9m/TwTluU8yGAQOsFSHhb38TcIAIIlCBQlx7elUq4N06JAAIItE6AhLd1TcoNIYBABQIx4c2/kcHbGNJQQSNwCQQQQKCoAAlvUSn2QwABBBYLxIS36jG8cbgEb2lY3CbMIYAAAn0FSHj70rABAQQQ6Cswy4Q3juFlSEPfJmIDAgggsFiAhHexBXMIIIBAUYFBCa8fWmNIQ1FJ9kMAAQQqECDhrQCZSyCAQOsEBiW83haHHUz75mMPL0Mapq3L+RBAoJUCJLytbFZuCgEEShTw7800lMCJ7T25a/mVZWX28MZkOtUjVwUWEUAAAQSiAAlv1GAeAQQQGC6wWtgl/8DaCtq2nCImpWH3qczSwzsVRk6CAAJdEiDh7VJrc68IIDANgWHDGXwNeninIc05EEAAgSkJkPBOCZLTIIBAZwRiD+8tubtOyXD+3by53SZajD28DGmYiJKDEUCgKwIkvF1pae4TAQSmJZCSWp+vX8JLD++0tDkPAgggMAUBEt4pIHIKBBDolEDs4c2P4XUyfK8i9sJOGyeOD6aHd9q6nA8BBFopQMLbymblphBAoESBQT28ToadkDrpLauQ8JYly3kRQKC1AiS8rW1abgwBBEoSiAlvvofXH50oc/yub4mEt6SG5bQIINBeARLe9rYtd4YAAuUIxIS31xjemJCWUYN4foY0lCHMORFAoHUCJLyta1JuCAEEShZYPZy/V8Jb5gNrvjQJb2gAZhFAAIEiAiS8RZTYBwEEEFgsEB9a65Xwlj2kISbU9PAubhfmEEAAgb4CJLx9adiAAAII9BQYlvDGhLTnCSZcSQ/vhIAcjgAC3RMg4e1em3PHCCAwmUBMeHs9tBYT0smu1PvoeP6Ve+/CWgQQQACBKEDCGzWYRwABBIYLxIT35tzufqCt7B7eeH6GNOQagEUEEECglwAJby8V1iGAAAL9BWLCO4sxvLGHl4S3fzuxBQEEEFgkQMK7iIIZBBBAoJDAsIQ3JqSFTjjiTrGHdwUdy+/xEQHZHQEEuifAL8rutTl3jAACkwkMeg+vPzwRE9LJrtT76Lu1en7YRC9vwGAWAQQQ6CVAwttLhXUIIIBAf4H4Ht5ZjOF1zWJSTcLbv63YggACCCwQIOHlBwEBBBAYTSAmvLMYw+vaxmETvKlhtPZjbwQQ6KAACW8HG51bRgCBiQTiGF56eCei5GAEEECgGgES3mqcuQoCCLRHICa8vXp443CDsu46XoMe3rKUOS8CCLRGgIS3NU3JjSCAQEUCKeH1w2Mx8fTlq3gPr68Tr0vCaxEKAgggMECAhHcADpsQQACBnIAfEFsuW5cfzuDVVbylwdeJY3h5aM0iFAQQQGCAAAnvABw2IYAAAjmB1Lvr1fnhDF7nHt6YjHrdKOU12vmEAgfQw1sAiV0QQACBJJB6KtIyUwQQQACB/gLxDQ35Ht5ldZiHF8RktP+Zem85qvfqpdbGazCkYSkeViCAAAJLCtDDu6QHSwgggMAggZjw3pTb0cMZnPTells/yqJ7jT9e4AAS3gJI7IIAAggkARLeJMEUAQQQGC4QE958D2/6AltMRoefceEeczV5TtGdtV+8Bj28I8CxKwIIdFOAhLeb7c5dI4DAeAJlJby3qjrvGaFKMeHlobUR4NgVAQS6KUDC2812564RQGA8gSIJ7zhDGs5Ude43QpViwksP7whw7IoAAt0UIOHtZrtz1wggMJ7AGuGw/JCGlHiO+paGdXTOfRSbhHMPm43XSNcddgzbEUAAgc4KkPB2tum5cQQQGEOgSA9v7H0tcgk//HaA4hLF6xVFSrwGCW8RMfZBAIFOC5Dwdrr5uXkEEBhRYFDC67c0uMTe14VrBv85X5v3V2yrOH3wrou2kvAuomAGAQQQGC7Ae3iHG7EHAgggkAQGJbxp2zhjeH3+i7JI1xo0JeEdpMM2BBBAICdAD28OhEUEEEBggMCgMbz+Ctu9inET3gGXXWoTCe9SJKxAAAEE+guQ8Pa3YQsCCCCQF0i9uF6ff2gtfVbYSW/ZhYS3bGHOjwACrRIg4W1Vc3IzCCBQskDs4c1/ac09vFX07voWSXhLbmhOjwAC7RIg4W1Xe3I3CCBQrsCwHt6YiJZZk3gd3tJQpjTnRgCBVgiQ8LaiGbkJBBCoSGBQwltlD2/sSU5vh6iIgMsggAACzRMg4W1em1FjBBCYncCgIQ0ewxt7XsusZbwOPbxlSnNuBBBohQAJbyuakZtAAIGKBAb18LqnNSaiZVYpXoeEt0xpzo0AAq0QIOFtRTNyEwggUJFA7OHt9ZaGmIiWWaV4HYY0lCnNuRFAoBUCJLytaEZuAgEEKhDwh3pSb6rH0N6du2aVQxriGN5Up1x1WEQAAQQQSAIkvEmCKQIIIDBYIPbu5l9J5iOd8MZEdPDZJtsae3hJeCez5GgEEOiAAAlvBxqZW0QAgakIDBq/6wvQwzsVZk6CAAIITF+AhHf6ppwRAQTaKTCsh7fKh9bmiTh90c1DLZZvJzl3hQACCExHgIR3Oo6cBQEE2i8wLOF1D68T0apKvBYPrlWlznUQQKCRAiS8jWw2Ko0AAjMQKJLwVjWG17cfr8U43hn8QHBJBBBojgAJb3PaipoigMBsBeIY3l4PrbmXNfa6ll3b+OAaPbxla3N+BBBotAAJb6Obj8ojgECFAmuGa+UT3hW1bY6iyoQ39vCS8IbGYRYBBBDIC5Dw5kVYRgABBHoLxCEN/8ztkoYUzCrhTdfPVYtFBBBAAAELkPDyc4AAAggUE4gJb76HN/WwxmEGxc46/l7xWun645+NIxFAAIEWC5DwtrhxuTUEEJiqwKCE129ocIlJ6MI15f3JkIbybDkzAgi0TICEt2UNyu0ggEBpAjHhzQ9pmHXCy5CG0pqdEyOAQBsESHjb0IrcAwIIVCEQE16GNFQhzjUQQACBKQmQ8E4JktMggEDrBQYlvKmHd1YPrTGGt/U/ftwgAghMIkDCO4kexyKAQJcEYsKbH9KQEs44rrZsm1vDBdL1wypmEUAAAQSSAAlvkmCKAAIIDBYY9B7elHBW2cMbH5BL1x98B2xFAAEEOipAwtvRhue2EUBgZIEiPbxVJryxN5mEd+Tm5AAEEOiSAAlvl1qbe0UAgUkE6tbDS8I7SWtyLAIIdEqAhLdTzc3NIoDAmAL+XbladqwTzfm586Qe1jjMILfL1BdJeKdOygkRQKCtAiS8bW1Z7gsBBKYpMGg4g6+T3tJAwjtNdc6FAAIITEmAmKjPUgAAQABJREFUhHdKkJwGAQRaLTBoOINvPPXwVjmGNybX6fqtbgRuDgEEEBhXgIR3XDmOQwCBLgkU6eG9VyB3VIjCkIYKsbkUAgg0W4CEt9ntR+0RQKAagZjw5r+y5hq4hzX2uFZRKxLeKpS5BgIItEKAhLcVzchNIIBAyQJxSEP+oxO+tMfwVp3w8uGJkhud0yOAQHsESHjb05bcCQIIlCcQE156eMtz5swIIIBAKQIkvKWwclIEEGiZQEx4e/XwekhDlQ+smZchDS37IeN2EECgPIHlyjs1Z0YAAQRaI9Ar4d1cd3eowkMZNlPEIQZaLL2Q8JZOzAUQQKAtAvTwtqUluQ8EEChToFfCe6ku+ErFxYqNFesotlBUVUh4q5LmOggg0HgBEt7GNyE3gAACFQj0Snh92TsV/624VrG64izFExVVlNijvHIVF+QaCCCAQFMFSHib2nLUGwEEqhSIryXrNYbXb2k4TfEYxf6KByrKLh4zfE92EQ9PW6HsC3J+BBBAoKkCjOFtastRbwQQqFKgXw9vqoMTXg8xOF/xUkVVnQkeP+xru/jBOfc4UxBAAAEEcgJV/VLOXZZFBBBAoFECgxLe1Lsa38Obel7LvknG8ZYtzPkRQKAVAiS8rWhGbgIBBEoWGJTwumfVJSa8C9eU/2ccx5t6esu/KldAAAEEGiZAwtuwBqO6CCAwE4G1wlXzY3hTohmTz7B7qbP08JbKy8kRQKAtAiS8bWlJ7gMBBMoUiD28G+pCv1T8r+IBilkmvDHJTj3NqhIFAQQQQCAKkPBGDeYRQACBpQWW1ar0lgY/FHau4qmKmxWnKvZSuFT9pTVfM/bwpsTb6ykIIIAAAkGAhDdgMIsAAgj0EFhN69LvyjSc4Tqte4Vim7B/7G0Nq0udjdekh7dUak6OAAJNFki/xJt8D9QdAQQQKFMgDme4MXchL1+UrYu9rbndSluM16SHtzRmTowAAk0XIOFtegtSfwQQKFsgJryphzde0z3ALrG3deGa8v+M16SHt3xvroAAAg0VIOFtaMNRbQQQqEyg1xsa/HGJuVkN/Elhl5h8LlxT/p/08JZvzBUQQKAFAnxprQWNyC0ggECpAr16eL+hK35P8X6Fv67mMuuElx7ehe3AnwgggMBSAvTwLkXCCgQQQGAJgZjwpjG8fkPDnoqfK56f7R17W7NVpU9iks0Y3tK5uQACCDRVgIS3qS1HvRFAoCqBXkMafO27FG9SfMILKgcr5iyYq+6PmPDSw1udO1dCAIGGCZDwNqzBqC4CCFQuEHt4ez20tnJWo29qul3FtYu9yvTwVozP5RBAoDkCjOFtTltRUwQQmI1ATHjTkAbXxL8/H6JIH6U4U/NXKqossYeXhLdKea6FAAKNEqCHt1HNRWURQGAGAjHhjT2881WX5yrSl9ZumUHdYsLLkIYZNACXRACBZgiQ8DajnaglAgjMTqDfGF7X6O2Ka7OqpffxZouVTBjSUAkzF0EAgaYLkPA2vQWpPwIIlC0wKOG9Uxd30nmv4nTFtooqCz28VWpzLQQQaKwACW9jm46KI4BARQJxSMPDdc38702P4b1O8WzFAYoqn42gh1fgFAQQQGCYQP4X97D92Y4AAgh0TSD28PpVZCcrdgkI/tKa38v7a8VhCo/trarEHl4eWqtKnesggAACCCCAAAItE/i77sdDFhwbK3ZUXKL4pMLJrhPccxWzKFvqoqluf5tFBbgmAggggAACCCCAQPMF/PaFlFSmXtT1tO4kxaXZtl9oOouyvi6a6vaPWVSAayKAAAIIIIAAAgg0W8DjcVNC6QfUYvFX1d6n8Pbj44YK5/1miFS/eRVel0shgAACCCCAAAIItERgXd1HSijT68firW2VbfewhhfGDRXN+zmMVD9Pq/60cUW3yWUQQAABBBBAAAEEyhLYRidOCaXfxPBGxRaKVHbQjLefprhYMYuk129qSHVMX33TKgoCCCCAQBLgLQ1JgikCCCCwtEB8Q4MTWr9r9wTFkQo/sOZwOUuxs2I/xb6KKkt8UwNfW6tSnmshgEBjBEh4G9NUVBQBBGYgEN/Be6Ou74fTHqnYXvEHxR4Kl5sU7gF+qsIPtHmfqkpMeNNDdVVdm+sggAACjRAg4W1EM1FJBBCYkUDs4f1nVofrNd1L8RXFodm6tM1DCz6tuChbX8WEj09Uocw1EECg0QIkvI1uPiqPAAIlC8SE1z28qdyjmXcoDs9W+MMTsfR6wC1un+Y8PbzT1ORcCCDQSgES3lY2KzeFAAJTEsgnvCvlzpuS4EO0Pr8tt2tpiyS8pdFyYgQQaIsACW9bWpL7QACBMgTyCe86usgZCj+05leWpYfWPqD5hypmUUh4Z6HONRFAoFECJLyNai4qiwACFQvEh9Y8TvcKhd/CsKPiRMUGCpe/KvwGh1mUmPDyloZZtADXRACB2guQ8Na+iaggAgjMUGDtcO00fOEyrZur+JHiQIWLk+FZlZjw8paGWbUC10UAgVoLkPDWunmoHAIIzFggDmmID6b5obW3KY7N6kfCO+OG4vIIIIDAIAES3kE6bEMAga4LxIT3WcJI791NLmkMr9/DO6tCD++s5LkuAgg0RoCEtzFNRUURQGAGAjHh/bCu/yHF60I9nPC6tzf2/obNlcyS8FbCzEUQQKDJAss1ufLUHQEEEChZICa8V+la+yv8cNqKig8qnPA62fUHJ2ZVSHhnJc91EUCgMQIkvI1pKiqKAAIzEIgJ7426/t8V+ymOUVyqcMI7y/G7uvwyJLxWoCCAAAIDBEh4B+CwCQEEOi0wR3e/WiYwX9OUWPrtDH412RcUKysuUcyypHq5DrylYZYtwbURQKC2AozhrW3TUDEEEJixQOzdzffifl9120vh997mt1VdbRLeqsW5HgIINE6AhLdxTUaFEUCgIoGY8Ho4Q76coxX+HTrLNzS4TiS8VqAggAACAwRIeAfgsAkBBDotMCzh9XCHZRX08Hb6x4SbRwCBJgiQ8DahlagjAgjMQiAmvL2S2jq8g9cu9PDO4qeDayKAQKMESHgb1VxUFgEEKhSICW+vIQ0p4e2VDFdYTRLeKrG5FgIINFOAhLeZ7UatEUCgfAES3vKNuQICCCBQiQAJbyXMXAQBBBooEBPeG3rUnx7eHiisQgABBOooQMJbx1ahTgggUAeBNUMlSHgDBrMIIIBA0wRIeJvWYtQXAQSqElg7XGjQGN5Zv5bsLtXT4eK3RvjdwBQEEEAAgSBAwhswmEUAAQSCQBzS0CvhTV9hm/VDa64yb2oIDccsAgggkBcg4c2LsIwAAggsFGhKD69rS8LLTy0CCCAwQICEdwAOmxBAoNMCw3p46/LQmhuJhLfTP6rcPAIIDBMg4R0mxHYEEOiqwLCENw1pmPUYXrcPCW9Xf0q5bwQQKCRAwluIiZ0QQKCDAsMS3rr28KZEvINNxi0jgAACvQVIeHu7sBYBBBAokvDOE1N6Q8IsxejhnaU+10YAgdoLkPDWvomoIAIIzEBgeV1z1ey68zWNCWWqjnt46/CGBtfnllQpTVO9wypmEUAAgW4LkPB2u/25ewQQ6C0wrHfXRznhrcP4XdclJuQkvBahIIAAAkGAhDdgMIsAAghkAvGVZL2+subd6tTDGxNexvDyY4wAAgjkBEh4cyAsIoAAAhKIPbxNS3jp4eVHGAEEEMgJkPDmQFhEAAEEJBAT3hv7iNRpSANjePs0EqsRQAABC5Dw8nOAAAIILC0QhzQMSnjr8tAaQxqWbkPWIIAAAosESHgXUTCDAAIILBIY1sPr352rKOry0Bo9vIuajhkEEEBgaQES3qVNWIMAAggMS3jTg2H08PKzggACCDRAgIS3AY1EFRFAoHKBOKSh10NrHr/rUseEl4fWFrYNfyKAAAKLBEh4F1EwgwACCCwSKNrDy5CGRWTMIIAAAvUVIOGtb9tQMwQQmJ3AsIR3jaxqdezhTcMtZqfHlRFAAIGaCZDw1qxBqA4CCNRCIA5puLFHjRjS0AOFVQgggEBdBUh469oy1AsBBGYpEHt4B43hreOQBnp4Z/mTw7URQKCWAiS8tWwWKoUAAjMWoId3xg3A5RFAAIFpCpDwTlOTcyGAQFsE1gw3wpCGgMEsAggg0EQBEt4mthp1RgCBsgViD2+vIQ1p2EBdHlqLH55YSThzygbi/AgggECTBEh4m9Ra1BUBBKoQ8Htsl88udLumd/a4qB9au1sRE80eu1W26h5daV64Gu/iDRjMIoAAAiS8/AwggAACSwoMe2DNezvhvXnJw2a+FJNvEt6ZNwcVQACBOgmQ8NapNagLAgjUQSAmvL3G77qOTnjrMpwhmd2aZjRNQy7CKmYRQACB7gqQ8Ha37blzBBDoLRAT3l7jd32UE966vJIs3UVMeOnhTSpMEUAAAQmQ8PJjgAACCCwpEBPeJvXwxiEN9PAu2aYsIYBAxwVIeDv+A8DtI4DAUgIx4aWHdykeViCAAALNEyDhbV6bUWMEEChXYNgryXz1Oo7hpYe33J8Lzo4AAg0WIOFtcONRdQQQKEWgaMLLGN5S+DkpAgggMH0BEt7pm3JGBBBotkAc0sAY3ma3JbVHAAEEFgiQ8PKDgAACCCwp0NQe3jikgbc0LNmmLCGAQMcFSHg7/gPA7SOAwFICMeHt1cPrz/b6873/XOrI2a6IryXjLQ2zbQuujgACNRMg4a1Zg1AdBBCYuUAc0tDrLQ1+YM2FMbwLHfgTAQQQqL0ACW/tm4gKIoBAxQLDenhTwlu3Ht44pIEe3op/aLgcAgjUW4CEt97tQ+0QQKB6gTXDJXsNaUjJZJ0TXsbwhkZkFgEEECDh5WcAAQQQWFIg9vAOGtJQt4SXMbxLtiNLCCCAwCIBEt5FFMwggAACCz63vkbmcLemN/cwST28dRvDy5CGHo3FKgQQQMACJLz8HCCAAAKLBTycYdls0QntvYs3LZqr6xje2MPLkIZFzcUMAgggQMLLzwACCCAQBeL43V7DGbxvSnjp4Y1yzCOAAAI1FqCHt8aNQ9UQQKBygTh+t9cDa66QE955iju9UKNCD2+NGoOqIIBAvQRIeOvVHtQGAQRmKxDfwTso4a3bA2tWYwzvbH92uDoCCNRYgIS3xo1D1RBAoHKBoj28dUx46eGt/MeFCyKAQFMESHib0lLUEwEEqhAoOoa3jglv7OFdRVjp4bsq3LgGAgggUGsBEt5aNw+VQwCBigWa3MN7l6zSuGInu7ypoeIfHi6HAAL1FSDhrW/bUDMEEKheICa8g97SULc3NCQphjUkCaYIIIBAECDhDRjMIoBA5wWa/NCaGy8Oa0gfyOh8owKAAAIIkPDyM4AAAggsFogJbxN7eGPCy5CGxe3KHAIIdFyAhLfjPwDcPgIILCEQhzQ07bVkvhGGNCzRnCwggAACCwVIePlJQAABBBYLxB7eQQkvY3gXmzGHAAII1F6AhLf2TUQFEUCgQoH4WrJBCW8dX0tmJoY0VPjDwqUQQKA5AiS8zWkraooAAuULtGlIAw+tlf/zwhUQQKAhAiS8DWkoqokAApUIDBvSsLxqsaKirkMa6OGt5MeEiyCAQNMESHib1mLUFwEEyhJwMpvebOAPONzW40KrZ+uqGtLwSl0vXbNHdZZaFR9ao4d3KR5WIIBAVwVIeLva8tw3AgjkBeL43X4JbUoiq+rh3VWV3Ddf0QHL9PAOwGETAgh0V4CEt7ttz50jgMCSAsOGM3jvlPD2S4iXPON4S3PCYT/T/L+F5WGz9PAOE2I7Agh0UoCEt5PNzk0jgEAPgSIJbxpeUFYP70qq11mK+2T1+4Km1yi2z5aHTWLCm4ZnDDuG7QgggEDrBUh4W9/E3CACCBQUiEMaBr2S7B6dLw4dKHj6QrvN015XKD6Y7T1f0z0VV2fLwyaxXqk3etgxbEcAAQRaL7Bc6++QG0QAAQSKCcQe3n5DFtzDe7Pi3mKnHGuvZ+qox4QjnfT2+8xx2G3BbOzhJeHN67CMAAKdFaCHt7NNz40jgEBOYO2w3C/BdMLbLxkOh080e4eOPmnMM9DDOyYchyGAQLsFSHjb3b7cHQIIFBeIPbz9hjS417TshLd4jZfe073PqTCGN0kwRQCBzguQ8Hb+RwAABBDIBIokvFX08Lo6rsvlivW8MEKJQxpIeEeAY1cEEGi3AAlvu9uXu0MAgeICcUhDvx7eNXS6Knp4ff2dFdcWr/6CPUl4RwRjdwQQ6IYACW832pm7RACB4QKxh7ffGF4PaSjrlWT5Gl6ZX1FgOSa8PLRWAIxdEECgGwIkvN1oZ+4SAQSGC8SEt18Pb1VDGobXtvce8aE1hjT0NmItAgh0UICEt4ONzi0jgEBPgaLv4a2qh7dnJYesjD28JLxDsNiMAALdESDh7U5bc6cIIDBYIPbw9hun6zG8dU54/eGKu7Pb9HvWV8zmmSCAAAKdFiDh7XTzc/MIIBAEYsLb1CENvp04rIFxvKGBmUUAge4KkPB2t+25cwQQWFKgDUMafEcMa1iyXVlCAAEEliHh5YcAAQQQWGYZ/+//1Bt6l+Zv64NS94fWXG0S3j6Nx2oEEOiuAAlvd9ueO0cAgcUCHpubSr/xu97uhLfOY3hdR4Y0WIGCAAIIBAES3oDBLAIIdFYgjt8dlPC6F3jQ9joA0sNbh1agDgggUCsBEt5aNQeVQQCBGQkUGb+7gurmqHvCSw/vjH6IuCwCCNRXgIS3vm1DzRBAoDqBIj28Hs7g0qQhDbyLd2Gb8ScCCHRcgIS34z8A3D4CCCwQKNLDmxLeuvfwMqSBH2oEEEAgJ0DCmwNhEQEEOikQE95+Ca0TXn/Y4c6aC5Hw1ryBqB4CCFQvQMJbvTlXRACB+gkUTXj7JcN1uiMS3jq1BnVBAIFaCJDw1qIZqAQCCMxYoGjCW/fxu2aMCW96t/CMebk8AgggMFsBEt7Z+nN1BBCoh0CRhLcJrySzZnxLAw+t1ePni1oggMCMBUh4Z9wAXB4BBGohUCThbcJHJ4wZE156eGvx40UlEEBg1gL+nCYFAQQQ6LrAoIT36cK5Q+FXlzVtSAM9vF3/yeb+EUBggQAJLz8ICCCAwDLLDEp4fyGgYxSPVHy1AVhxDC8JbwMajCoigED5AgxpKN+YKyCAQP0FBiW816n6uyqOVeykWF5R50LCW+fWoW4IIDATARLembBzUQQQqJnAoITXVb1bcZniGsWOijqXmPAyhrfOLUXdEECgMgES3sqouRACCNRYICa8cZyux+9undXbD639QHFGtlzXCQ+t1bVlqBcCCMxMgIR3ZvRcGAEEaiSwRqhL/LjE2VrvMbyvUzjhjdu0WMsSE17G8NayiagUAggggAACCCBQrYAf3r03i16fDfb43ZsVTiSfpah72UgVTPdzdd0rS/0QQACBKgTo4a1CmWsggECdBfr17qY6n6KZxytuV7iXt+4ljuGlh7furUX9EECgEgES3kqYuQgCCNRYII7f7Tdk4RzV/yrFOjW+j1S1mPCuopXLpg1MEUAAga4KkPB2teW5bwQQSAIx4Y0PrO2jHe6TdtLUvbvHh+W6zvqNEv5QhouT3ZUXzPEHAggg0GEBEt4ONz63jgACCwT6DWnw2xhOVNw/c2rKQ2uubuzlZVhD1oBMEECguwIkvN1te+4cAQQWCsSEN/bw+p27H1OcrNhWQcIrBAoCCCDQRAE+LdzEVqPOCCAwTYF+Qxp8jc8r/MDajxT+fem3NTSh0MPbhFaijgggUJkAPbyVUXMhBBCoqUDs4U0Pra2ruqaxry/T/AUKJ7t+3VcTCglvE1qJOiKAQGUCJLyVUXMhBBCoqUBMeNOQBk/fl9XX7+Z9jcL77Z2tq/skJrx8XrjurUX9EECgdAES3tKJuQACCNRcoFfCe5fq7DG7L8jq7ge//qCYny3XfeKPZKTCQ2tJgikCCHRWgDG8nW16bhwBBDIBJ7apxDG679dKv6nBia6TRg93+ImiCeW2UEkS3oDBLAIIdFOAHt5utjt3jQACiwX6Jbwet/tfim8rNlWk8b2arX2JQxpWqX1tqSACCCBQsgAJb8nAnB4BBGov0GtIQ6r0BzTzN8VHFGl8b9o2ynQD7fxGhd/24B7j3yj+R7Gfooz/0xYTXnp4hUxBAAEEEEAAAQS6LHCCbt5vX3Ds1gPCCfHZii/32DZs1Rzt8HaFhxika+Sn7kl+gmKaxT3T6TpvmeaJORcCCCDQRAF6eJvYatQZAQSmKdBvSEO6hnt2j1Y8S7F9Wllg6rcjuEf3PYr0irNeh22jlT9VvLbXxjHX0cM7JhyHIYBAOwVIeNvZrtwVAggUF4gJr5PbFRT51495n48pHqkoUnyOYxV7hJ09jOHFiocoHqV4p+I6hYt/Fx+peIUXplDiQ2uM4Z0CKKdAAAEEEEAAAQSaLPA3VT797//7ZjdyoKb/qVg2W/YbG0bpgf2k9k/n9PRQRa8Ohvto/Ylh37s0/2jFpOUQnSBd33WhIIAAAggggAACCHRY4Hrde0oO1wgO39f8UQonqp9QHKgoUtyrm87n6ZuGHLSStv88HHOh5r1ukvISHZzqMM7Y40muzbEIIIAAAggggAACNRNwr2pKDmMvrHtfL1V8SnG04umKYcVvXPizIp3vm8MOyLZvqOm14biva36dbNs4k+eGcxWtwzjX4RgEEEAAAQQQQACBmgu4JzUlp/FBr1TtB2vG79+9QfGEtHLA9EXals53o+bXH7BvftOLw7E+x98VcxXjlKfooFSPH45zAo5BAAEEEEAAAQQQaIeAe3FTYnh1n1t6vNbfonhan+1x9e+1kM7nh9JGKe5d/qMiHe/5eYpdFaOWJ+qAdJ6TRz2Y/RFAAAEEEEAAAQTaI7CFbiUlhn8Nt+WhCbGcpoU/KPyqsX5lF21I53KCvFa/HQesf2k4x281f7DiGsWmilGKH3xLdTljlAPZFwEEEEAAAQQQQKBdAg/U7aTE8Nxwa36tmD/ekMbR/k7zOyleouhXPqoN6Vxf7LfTkPWravvN4Tzba/4Fiv9RjFJ21M6pLk7UKQgggAACCCCAAAIdFfD7cFNi6F7cWPy2Bff6bpdNl9XUiXC/cok2pHP52HHL/+nAdJ6Pa97vAH6VYpQe423DOS7SPAUBBBBAAAEEEECgowJxrOvxPQw+qHVXKi7rsS2u2loLKUl1D+3yceOI8+7RTec6RfNnK+6jyA+z0Kq+xUMg0jmu6rsXGxBAAIGOCPghCQoCCCDQVQEPIUjF427z5a1a8TOF91slvzEsx49FuKfYrzobt5wcDvRX2fyFtmMV7mEuWuIbJwZ91rjo+dgPAQQQaLQACW+jm4/KI4DAhALxIbSU8LonNa2/R/PucXXC697efsXje1M5Pc2MOXVv8jXZsWtq+gnFRop3ZOuKTG4POw1K1MNuzCKAAALtFSDhbW/bcmcIIDBcICaDt2W7z9fU78TdK1ueo6l7bZ3Iemxsr3L/sNKvJpu0xHNsqZPto3CdNix4Yr/OzEMaXJzAjzIcYsFB/IEAAgi0SYCEt02tyb0ggMCoAnFIQxwG4F7VgxUfU6yt8Mcn/kfxF0WvsnlYeUGYH3fWD8ul4uvuqniiwu8ELlKc7DrpTYVhDUmCKQIIdFKAhLeTzc5NI4BAJhAT3tTD600eyvA8xYMUJyqc8A4qG4eNl4f5cWfjOb6vk7xJcYTieyOcMA5rIOEdAY5dEUCgfQIkvO1rU+4IAQSKC8REMCW8K+rwTRROGP9F4eRzrsJvYuhVPORhjWzD3Zr6M8STluvDCW7S/GMVOyj+V1H04TV6eIVFQQABBCxAwsvPAQIIdFmg1xjeOwTyGoV7eJ0E/6vC7989RbGVIl9i0uwkOY2dze83ynIcXuE6/l3hYQ2bKt6oKFLo4S2ixD4IINAJARLeTjQzN4kAAn0E8slq2s3DB96ueJfCCefHFf+u+I5iPUUs7uFNxT280yjxPPvqhAcqrlF4DK8fXPMX2IaV2MO70rCd2Y4AAggggAACCCDQToGjdFvukXU8XxGLhzBcpfiV4pBswzaaOhleLlv2xK8wS+e4OayfZPZl4Zzna/5OxbPDCf26smHlTO2Q6vWoYTuzHQEEEGizAD28bW5d7g0BBIYJxB5eD1+IvxP/quVdFe4d9fAG9+xeqDhU4XG+qcShA+4NLjrGNh3fa5rGBHvbDxTPVHxQ4bHFLsMeovM+sYc33qe3URBAAIFOCcRf7p26cW4WAQQQkEBMBJ0gukf0OUHGvavvVjjBPF7hpNf73KpIxcMP/GCZi3+nrrNgbrI/NgyH76d5X8+9tA8M64fNeixyKjFBT+uYIoAAAp0RIOHtTFNzowgg0EMgJoIp4XVyGR8M85CFIxV+Y4OTzl7lyrAy9cKGVSPPbhaOuFTzP1BsqnDSXbSQ8BaVYj8EEGi9AAlv65uYG0QAgQEC8WEuJ7wufu/tkxQv9oKKe3SdPDqpPU7Rq1wcVt4vzI87u3048G2af53iaEVM0MMuPWdjwhvvs+fOrEQAAQTaLEDC2+bW5d4QQGCYQEwg/WBYKi/UjMfqvknhsb3xTQxaXKqcF9Y8JMyPM+s6PSA78B5NH6r4osKvR/MbG4qWu8KO8T7DamYRQACBbgjEJ427ccfcJQIIILBYwO/XTSUmvFdp5R6KUxTuvf2QYlD5Tdj4yDA/zuzOOmj57EAn0h5i8VOFH1y7UVG0xB7eeJ9Fj2c/BBBAoDUC9PC2pim5EQQQGEMgJZY+NPaIetlvZHiCYivFAYpBSeNp2p7KozUzSY/qnulEmvq87t29RXGSIr69QYsDS7yfQXUfeBI2IoAAAm0QIOFtQytyDwggMK5AHKoQP/bgMa/7K5z0+kG1XRU/Uqyu6FUu0so0jndVze/Wa6eC654e9nOdllU44b5H8dVsWZOh5d6wh89BQQABBDorQMLb2abnxhFAQAL9ekH9ANv1ip8oPDTgK4pLFD9TrK3oVY4NK58X5keZ9XjdB2UHeOywH177hsJ12F3hRPwgRZESe5njcI0ix7IPAggggAACCCCAQEsEfqH7cE+ow0MR8uXfteIyxdcUfubhxYoTFfH9vVpcUDz2Np3LH6O4z8LVI/35+XAOX9PnOF/h3mUPS3CP9MsVcSiGFnuWY7Q21ee5PfdgJQIIIIAAAggggEDrBb6jO0xJYb83IPgdvN7HD425+A0Kb1X0Gibgh9fS+d6r+aLFH5TYXOGe3HT88ZrfSbGx4k+KoxSjFI//TefaY5QD2RcBBBBAAAEEEECgPQIf0a2kpPDNA27rEG27SeGxtC7uafVY3XxxT2o6n9+u4I9FFClObK9UpGPd87yrwtf8sGJ9xbGKAxVFy+XaMZ3v/kUPYj8EEEAAAQQQQACBdgm8QreTksKv5G7NyWp8zsG9ur9V7J/bLy56/3MU6ZwnaD6eI+4b5/cLx/jYx2UbnQj/VeHXkq2ieKaiyHAGfx0u1eFuzXvsLwUBBBBAAAEEEECggwJ+Z25KDP1Ghlg8Zvadik2yle5lfYHCQx/Wzdb1muyilU4y03ndizyoPEob/dqxtP8Nmt8yHOCe5HcrPL63aPF45HS+C4oexH4IIIAAAggggAAC7RNwb6mHHqTkcIvcLfo1ZH5gbK9svYc29Bq7m21eNHmX5tI5PT1a0esduu4tvjns67G6X1B4OML2ilj8oFx880Lclp9/k1ak6/9ffiPLCCCAAAIIIIAAAt0S+KFuNyWHr+9x6+tonYcpOIndTPF0xbDipNjvzE3n9fQ6xccVfsvC2xVnKOJ2z++ucPEQhzMV9/XCGOUnOiad+5VjHM8hCCCAAAIIIIAAAi0SOEj3kpJDv2WhV/Hrwc5VfE/xakWvB9a0eoniB9s+pUjnTlN/QCLNp6kT6uMUvoaHUrj4Go9ZMDfaH2tp9zsV6dxbjXY4eyOAAAIIIIAAAgi0TWBt3dDtipQgegxur+Ke3l8rfq/wA2xFyzO0o8fRpvPHqYczuOfYQxWc6H5J8RbFJMU9yOkaTqApCCCAAAIIIIAAAggsc5QMUpLontZ+xW8/+LHC436f12+nHuv9poYnKPwQ3KcV/604QNFrXK8fYpukxLdEeCwvBQEEEEAAAQQQQACBBZ/zjUMNHp8z2VnLTlpd/KDblxV3KJ6kqFPZU5VJifs8zfvNEhQEEEAAAQQQQAABBBYIxIfM/qA1aSytN75I4Z7T+OaEt2vZPb3/oqhDcUJ+tiIlvJ+rQ6WoAwIIIIAAAggggEB9BPwGBiewKWH8QK5qn9HylYrYa7qPlq9SPE0x6+K3MaS6u/d5y1lXiOsjgAACCCCAAAII1E/gDapSSho9xCGfyB6hdZ/IVXtrLR+r2FWxZm5bVYuuw02KVPd8sl5VPbgOAggggAACCCCAQM0FllX94jts/QW0R+bq7J7gfPHwh5cptlDcV1HktWXabSrFnxz2cIuU7F6k+SqvP5Wb4CQIIIAAAggggAAC1Qn4nbtOGlMCeb3mH17w8k4+Xfz2hXUVZSeec3SNYxSprvM1/1gFBQEEEEAAAQQQQACBgQJ+OO1aRUokPVxgr4FH9N/o3t/0hof+e42+xW+L+Joi1dFTD8mgIIAAAggggAACCCBQSGBH7eXPAaeE8m7N+80MZSSvOu1IxV9TO0GR6uZpfmzxSCdkZwQQQAABBBBAAIFuCtxft32JIiaWJ2t5G8Wsij9MEYdcuG5+BZnHH1MQQAABBBBAAAEEEBhZwK8hO1kRk15/1OF9Cve0VlX8BogPKTxON9blvVom2RUCBQEEEEAAAQQQQGB8AT8cdqjiTkVMNm/Q8hGKDRVlFSe6b1PE4RWuw82K/RUUBBBAAAEEEEAAAQSmJrCDznSaIia9nnci/B3Fvor0pgbNjl08TnhXxWcVfjVa/nona53fvUtBAAEEEEAAAQQQQKAUgWfrrOcp8omol29X+IGydyqerNhUMWzIgV9j5vf9vkrxVUV8Q0S8xqXa9gLFsPNpFwoCCCCAQBLgl2aSYIoAAgiMJuBe2GcoXqt4/JBD/alff5b4eoU/X3yPYkWFhytsoFhHMag4uf6w4iiFe5MpCCCAAAIIIIAAAghUKrCtrvYuxe8UsUd2kvmrdS4PaXAyTeeEECgIIIDAuAL8Eh1XjuMQQACB3gKbaPVcxaMUD1X41WbDenDda3uh4veKMxWnKs5WuCeYggACCCAwoQAJ74SAHI4AAggUEFhd+2ykWFuxssLDITzMwW9auCYLkltBUBBAAAEEEEAAAQQQQAABBBBAAAEEEEAAAQQQQAABBBBAAAEEEEAAAQQQQAABBBBAAAEEEEAAAQQQQAABBBBAAAEEEEAAAQQQQAABBBBAAAEEEEAAAQQQQAABBBBAAAEEEEAAAQQQQAABBBBAAAEEEEAAAQQQQAABBBBAAAEEEEAAAQQQQAABBBBAAAEEEEAAAQQQQAABBBBAAAEEEEAAAQQQQAABBBBAAAEEEEAAAQQQQAABBBBAAAEEEEAAAQQQQAABBBBAAAEEEEAAAQQQQAABBBBAAAEEEEAAAQQQQAABBBBAAAEEEEAAAQQQQAABBBBAAAEEEEAAAQQQQAABBBBAAAEEEEAAAQQQQAABBBBAAAEEEEAAAQQQQAABBBBAAAEEEEAAAQQQQAABBBBAAAEEEEAAAQQQQAABBBBAAAEEEEAAAQQQQAABBJovsLlu4QjFGYobFfMV1yt+rfig4gGKppXXqMKHZzGLut+rizrOG+Hi4xwzwulH2jXVZdTpSBep0c7pPkdpr3z1368V6TyePiy/Q4/ltP8k1+1x2olX1bVeE98YJ0AAAQQQ6J7AHN3yuxV3KtJfcL2md2v7JxQrKJpSnECke5lFndO1R0lkxjmmrHtLdRl1WlZ9yj5vus9R2ivWaXktXK1I5/H0c3GHPvNp/3Gv2+e0E6+ua70mvjFOgAACCCDQX2C5/psau+X/qeZfV+yb3cGVmn5ScbriFsV9FU9VPF/hfV+l2FKxj+IeBaXdAjv3ub0zs/WXavqsPvs0cXW639vHrPwzdNz62bH+PyT+nbG/4t8UNykoCCCAAAIIIDADgcN0zdSL81PNr9WnDk/S+tgDfHCf/eq2mh7eclok/czUrUeynLstftYTtatt5inekc172f9QHFTq6lnXeg2yZBsCCCCAAAJLCGyqJf/F7L/ULlesrhhU/lMb01+AZ4cd0zonP8sqXqn4k8JDIA5XpOIe4gMVP1e4t+suxcUK9yhvouhXttOGIxW/Vfg495zdoPiV4m2KNRT5kurUb5rff9y6ubf70wr3dPp+rlV8V7GLwiVd3zZFSzzG9Xq5wt7+B4d73c9QHKLw/z5Pxf9Qca+kj7XPBope5cNamc7/sl47FFyXzlH0viZpw3SNA1Q3/wzY4R+KYxU7KfJlWN18vrTPqMfm94/L99OC/6+Hz/01xdqKednyuZoOKqk+rlvRNk/ni8cO+u9v0jZwb/WbFecr0s/6tzX/EEW/Muk1beFx+PZzu9+o8H9fD1K4+Of8i4qrFK6Th5N8Q/FABQUBBBBAAIEFAu/Sn+kvy1cXMHFS+o4s3hr2T+fwX9afVaRlTw9XuKypOEkRt8V5J7L/osiXA7XiDkXcNz9/kba7brHk98kvx33HrdtcneSfivy5vexk/6CwzTZFSzrfX3SA/3JPy/npmdq2bjjpV8O+TojzxcnQ5Qqf5zZFr38oaHWhkupS5L4O1BknaUNf492KdM04dZL/cEUsaXu/unl92ice5/m0vt+x+f3j8n+G4/fMNjj5SudM/wiKx6T5tM+obe7j07Guc7///g7Utkna4Hwdf1y4Vrqmp/5Z6vUPj0mv6fv5XJ9r+vfFExVXDNjuZJuCAAIIIIDAgnG66S+uDSfwSOe4Vefw/C8VHtf5KMXWCidaP1R4m3vAPq/YS/FoxRsU7p3xtnmKhyhS8V9Y7rXxtvkKPzDn43ze5yrOUnib4yhFLE6CHJco0j5pnaepjFu3dXSC6xTp3L/S/HMUvqcXKn6vSNs8PU9RtMTjPH+CYl+Fz+2hJJco0j4/1nwqe2gmrXd98uVxWpG2OzmepKTzDLuv7XSRcdswXWNedo4PaOp78D+MPMY8bf++5mNJ6/vVzevTPvE4z6f1/Y7N75+WV9DMtdnxl2nqnkmXvRXpnEd5RZ+S9knTom3u06Vj+v33N4028DX832C/NnAyHMs0rul/NPpn572KxyqepnBPb7pf/y65RvFyhf/b8H8jsW0/pWUKAggggAACC/73oP/y8F8ak5T0F5CnHq7gv/xjeboW0j6vjRuy+S01vTnb52dhu5PhdNz7wvo06/+dmbb/Lq3MTeNfgLlNCxbHrds7dXS69kma9//ujWU1LfxekfYZJYFKx3jqRCIlT5pdUNbXn06q0n5zF6xduN/fwnq7xvJxLaRjnhw3jDGfzjPsviZpw3QNT1+Xq+N9teyEyNuuz21Lx/Wr26CfiWHH5i61aHF/zaVj/2PR2mWWmaP5K7Jt7gldO2yLs+lYT0dpc58jHtvrv79ZtMG0rvnqiKT5R+Tud8/c9seE7b/ObWMRAQQQQKCjAilhuHDC+49/4fovnHw5Riu8jxMTJwC9yue1Mp0nJWpODrbJwglkvjxKK9Ix4yQ3Pt+4dfNfpuna/ku4V3mWVqZ9+tWv13HpGE8f1GsHrTtYkfZzIpvKEZpJ6/89rdTU7qkn3QlYv3YIhwycTdcYdl+TtGG6hhPFFXvU5lKtS/vEzWldv7p5fdonHuf5tL7fsfn90/LJ4dj7pZXZ1L2i6bz5xD3tmrZ7Omqbx2N7/fc3izaYxjVvkcXyCSib+h/T6X5v1Pyyue2rhu1/zm1jEQEEEECgowL+C8N/eUyrh9fj6vK9kaZNiVb6i2rY9Lk+KBT/pfYAxb6Ktyr8vyp/qrhTkc7VL0Hx+rSPZpcq49bNybvP63vO/6WbLrJ+to/361e/tG+cpvr6wax+ZZP/3965x9pVVGFcEHkKRcBXNASQRFJFlIhU8BUlQcBUgxWJoLcCERUCgjEC+keB+BaC+CC89C9QCBGiaBAEBQwvtYgRCC3SNsjDohSrQKVo/L7LXnV12HP2uefc03tv728lX2f2zJo1M7+9mzNnzpx7VBF+Nyen3ZT3R72u8w5z2LuVCf+vR+EQacTqd16D3MPoY0llnLV7G+1qY6u1czddbduGskdq95sWh1x/T0u9i6LfQe55tK39/4suN+Q9GGWfMd+258JzjPra/Y+xkUIAAhCAwCwhcJvmGS8Or+hjztvK56uN8se2EWNpJUZemIZvr/ToJo5fvE6SHpVKf7+4X53Kay9uvRY3ar7eornso+06xra26bs2Z8f2MYeIURuf/UqLNv3Gzgtbx/q1FDH2dIHsfCnKXjdeMtw/EatrXsPcw64+avd20HYm0tW2jdrZqV2075W+oyVI+A9yz7vaTsU9GGWfMd/as9dV34KfIghAAAIQyATKc5q5bibmr9Wg920G7t1Tfymsl/mj+883Dl6EfqFw9hGJNvunCneQHpHmtzkUZQ80159T6o+Dbf540h/d/1byEYxVks0vbsPYoGPz7vhOkudVs5fXKvos37GHX+7Xc8j2A128synw2VKzO7S5Xqz07ia/IZINcQ8nOo9hj3Pk/rbUxVgu6CP/SfncVPEb9J47XO3/31Tcg6nos4KUYghAAAIQmO0EdhaAf0teND4otZ2TVfE6u0w5+1qXrCv9f1ltx+XGps2zSmsv6Luobl6jOK+5Qtfuy2f5tpdK62cHtbYLGLEGHdsNChAs3hjBivSo5FNjUzQZv4y4TmuxD0uxLyiC+Bzj6qbebx7e2+Qd7wRpMizG2DWvYe5hVx+1exvP9F9aJurFrp+niF26RHnXvKLdkSmW30AuqMh+cWZ+jfJ+s5Qt+nU60XsebWtjnop7MMo+u+bbVZ+5k4cABCAAgVlC4EzNM14grlN+TmXe+UtSa+XzhuQX7WsvuF5khc+5qV1kfVTCCzP7+Dxx7KTHwsW7yW27coc3bdyu1rd3N6Nvf+GltEHHdrwCRdxrlC/H5x3YZcmnNj65PM8irtNfSuUXd8zLZ0HD733Kl3aRCqL+j03eR0vKhVbZrt/riN01r2HuYVcf7jt88riXpfJdc4XyH051bltaxOuaV7S7WZlo03Yfws+p72X4egc0W5Q7neg9j7a1MU/FPRhln13z7arP3MlDAAIQgMAsIeCF2o+leJF4WHkfVXiPNE/yAuFKKeqdflbKFnW1F9yt5ey68Puh8odIjn+kdJcUdf64N2yxMlH+C+UPlfaVDpbOk7zwjvrHld9PKs1HIMLndOV9LCP7DTo276IuS7FvVN67e459tHS/FP06rbFR1fMst3P+NulwybHHpLzY9fw2lUrbXwVlnKtKpyGuI3bXvIa5h119uO/wyVO5OJXfqfx8yTxOkf4l/Vdqa6fideVd87Lv3OT/mPLxRs11bTamwuh3qfKbJKcoj3Qi9zza1MY8FfdglH12zberPmEnCwEIQAACs4mAF0xnSGukeLFoS59S/bFSaeFbe8G1/+7SEil829Kv2DHZAcrHTlGbvxfKj0u5LjUfz55V1Idv9htkbG6/l/SIFDHL9Duprhcbua1nEWe5SvObgSiP1PW7SDUrefsNw2RZjKFrXsPcw64+3Hf45Hn5fq5OdeHj1Mdyau1UtS5e17zs+63k/10XdJh35v1/KMZjNmFRtlwFE73n0bY25qm4B6Pss2u+XfXBnBQCEIAABGYpgZ01by86vWv4D+lZ6e/SLdIi6RVSm/X7ArOVGp8sOd4qyTu0D0lehHgHrs32VuHl0l8l+3sn7TrpE9IW0sckx3hG8kKhNO/gniOtkOzjOa2UShtkbI6xg/R1yYsNL879BbJbJe9UewevXzZyXWe5jRdJfjNyt7RG8vh9/MML+TlSLztNlRHL93HzXs4TrIu4tUVWDjfoPezqw32HT+7P+bnSj6RHJT83yyXz8CcavdpFvK55+XnxMxz+b1W+H7tUTtHmitQgytzvRO95bptCrpedinswqj675ttVvx4YLiAAAQhAAAIQmNkEvqThx4u/d5uxbgLB695uVzwgAAEIQAACEIAABKaSwGbq/M9SLODeMJWDmSF9b5l43TlDxswwIQABCEAAApNOwIsIDALTmcBxGpyPLxwq7dYM9Aalf2zyJO0EfKRmn1S1NOXJQgACEIAABCAAAQhMIwKxoxup/yrBntNofNN1KMEr0oOm60AZFwQgAAEIQAACEJjtBPzlPn+x7UnJO7tvlrBuAk/LxV9u89ndY7rd8YAABCAAAQhAAAIQgAAEIAABCEAAAhCAAAQgAAEIQAACEIAABCAAAQhAAAIQgAAEIAABCEAAAhCAAAQgAAEIQAACEIAABHoR8C+WfVvyr1L9R/IXeD4jbYwW38J3emrHBHv9IldH0xlTnXm05ddoJvdLF0t7TcGsYkxdv3y2IYZ2vDpZ1GhD9EcfEIAABCAAAQhMIoEzFSsWFpEumsT40ylUzM/pU9JregyOBe/6z4XfDJ3Yg9coquJ+TYcF72x4HkZxD4kJAQhAAAIzjMDG+sMTB6b78GnlF0srU9nGmt1KEztfOmBjneAE5rVCvgta/LdT2bukz0n+JbKzpd9Iv5c2hMWPQfhTBwwCEIAABCAAAQgMTMB/ezR20gYOMkMaxjxzurAy9tmwoxccunZQjxGj8PWbhNlos+F5mI33lTlDAAIQgMBGTiAWMG1pTD3q/GK/ifQp6R7JH28vksJeqMyYdL30uOR6p77+qOT60nLsTVXpM5J3Sc9IT0hXSq+XbC+Xvi/5nLF/IMA/sHC59DppIhZ9+ud3/Stkvv6b9FKptK4FzrBzLvvzda3PGLfrbUdIf5DMynP5ibS3NFEr49bab6+K8L0jOUXZKJ4Pd5Pjp27Hs35mxqSbpdWSn4tl0vekV0s1e5Eq/EnGLdI/JLfzc/VT6TDJz3m2GEMtzb7kIQABCEAAAhCYZgRqL+AuDwsfL2gukOLa6SLJ5sXobVKuK/O3Nn5K1ln4OPaFUlzn1AuZA6SHe9S/VnX9WsR2nydLcX1JSwD7RH1ZPRlzLmP6utZnjMP1Z0hxndOnVT7RX1aL9o7by7ZWZfjemRyjzO0n+/lwNzl+6vYFc3ThX5KL+jL1c3NIbtDkX6XUbxRK/3z9M9X7+EZYrmvLhx8pBCAAAQhAAALTkIAXR9ZyKV7Io0xF4xblT+rKee+KLZDmSa+RNpPyYnexro+U9m9SX0cM+9k/LMq9G+xdti9Lb5PeL3mnN+r/q/xK6VhpP+mDkhdYUX+e8v1atHF779D+ToqyA4sguY9cNRlzduw2q/UZY1yjRmb1Nentkhd1mf/Vup6IRdzaeCLWh5UJ30ujMJWN4vlwN9FnHp93YH/e1PnZuEg6SPKzcZL0qOR2ZrWXFOad3Xy/vWD+kDRPGpPuk6K/s5UPi/8Ty1UQ9VHmFIMABCAAAQhAYAYQ8GIiXsjL4Ua5U390vHnhMKbr8PFieMuifgtduzx87B8WZU6Pi8ImfYvSXF8uRr2gjvrbi7a9LqNNLKDeJOdnm1jLlHonM6zGZUwOEWfQOUf/0VektT6jP6cnhnOTvkqp3zS4zsdIJmIRtzaelymYP/73jmn4Hpw6iDKnk/18uJuIn8f3gVR+gp0K21XX/5Tc9lepbmFT5nK/MSiPLrxUZasaHy/g/exmq92b7EMeAhCAAAQgAIFpSqDXC3ksOJx6kVnatSoIn33Lyub6rcnnF8kn2v1LZd59y+aFddQ/oXy5ONkm1d+bG3bkI2ZeQH0jxfpmal/jMhlzzv2nLtfbuc7lMe6nVFguxOy3QgofX/dr0abf9PtF4Nxusp8PdxXxM6+rmnIv7r1L32be9Y22XgDbrpGibO54yfP/OVxFX2y0Y1HtMUT7oopLCEAAAhCAAASmO4FeL+TxAu8dPn9JqLTHVGAfL0pr5sWqvxxkv5XJKWIvSWU526veMaPe4+/X2tpsrcYPSK7zbu/ekq3GZTLmXBtzrc8Yd41Vrd1zM6n/G3G7Uh8xWdgSJtqN4vlwdxE/84ojC1HXlR7ejNtfdLSvv6Q4iA3KeJC+aAMBCEAAAhCYMgL5/OmUDWKKOvZiweclS9u+Kei1iPAiw4vE7aTwb5qNJ21xu+odc7LMu6afkq6RvGN4oeQjFTWLOQwz51rsrvIuVl3ta/XeIV5QVJrxv6UHJb9h6WWjfD7KfncoCzqut2nqo91Ej310hKcaAhCAAAQgsHERmM0LXp8RbTPv7O7UqK3eZd6N9flIm/2no/moxaXSRyTv8J4k1WyUc659RF8by2SVr1Gg3w0RbEM+Hz6f68XrI9L8Psbs3Xub272kka8xCEAAAhCAAARaCLR9pN/iNquK7mxmO0fpvMrMfYbXu7u28H/uanr9+xkNx3/T1na6FIv08YL0T8xhkDk/08R5cYoXWS92XxkXG0k6DKsagj81Ff5C3TLJC/VSf1OZ36Ba/gKa7e7nkvE3aHs0+TK5SQU+1rJWqt3/sg3XEIAABCAAAQjMAAK9zib6Y23LPm32cRWGj/9iQfmFKl+7PHwWKh8WZbXYw9ZHPzntirlQzuGT0xxjmDkvS/F3zUGVz3/6y31ni7HUWPW6hzlOme+KW/qX113th2Hlvtrin5DKzy0HpOttJe/quq3PjMcnMyc2ZS6/QtpEyuZjLD4y4vrbc0WT95cjYzz+UiUGAQhAAAIQgMAMItBrsRQv8LWFlv+6wm+l8Fus/BHSfk3q66i7Q/lYfCi7rrwWO9oNWu8+SuuKaf/rpfCLNMcZZs4Xp9je/Zwv+a8bnCL5r1XEgsv9Zotx1Fi4PHxyu658tKnFHbb9MKzcd9v4/CXDPN8f6voQaZ50pOQv2EW7Tyof5nb3SVH3c+XN38+qF8Pe3Y86xystP+enq9ILZLfFIAABCEAAAhCYAQTy4qEcbiwAei2I/DF8XgxEm5y6vvy4PuprsYetL+fi666Y9tldejr5uk1pg87ZsVdLMY6cXqby2r0IvxqrWrty3OV1V9zSv7zup/2grNxXLb45Lkn14ZfTrzhAYW63VMp+Oe83HKcVbeLyrEq7qCeFAAQgAAEIQGAaE+i1WIrFQG2hFdPaTJmjpOukx6S1kj9Ovlbyx9quL60r9rD1ZX++7ooZbU5Nvm7TZoPM2XHmSj+S/Oe1zGm55EWWz/DW7kXXuGvtFLKndcXt2ViV/bYflFWv+Fup/5MlH5lZJZnlQ5LfOOwv1cw7vZ+VbpXc7hnJ7S6X3ibVzO3OkVZIbuOzvislDAIQgAAEIAABCEAAAgMTiAXvRH5cZODOaAgBCEAAAhCAQPsPL8AFAhAYDYEtU9g1KU8WAhCAAAQgAIEREmj7WH6E3REaArOWgI8k7JNmvzTlyUIAAhCAAAQgAAEIQGDGE4ijDJEeNONnxAQgAAEIQAACEIAABCCQCPivZPhLaD67e0wqJwsBCEAAAhCAAAQgAAEIQAACEIAABCAAAQhAAAIQgAAEIAABCEAAAhCAAAQgAAEIQAACEIAABCAAAQhAAAIQgAAEIAABCEAAAhCAAAQgAAEIQAACEIAABCAAAQhAAAIQgAAEIAABCEAAAhCAAAQgAAEIQAACEIAABCAAAQhAAAIQgAAEIAABCEAAAhCAAAQgAAEIQAACEIAABCAAAQhAAAIQgAAEIAABCEAAAhCAAAQgAAEIQAACEIAABCAAAQhAAAIQgAAEIAABCEAAAhCAAAQgAAEIQAACEIAABCAAAQhAAAIQgAAEIAABCEAAAhCAAAQgAAEIQAACEIAABCAAAQhAAAIQgAAEIAABCEAAAhCAAAQgAAEIQAACEIAABCAAAQhAAAIQgAAEIAABCPpzQZEAAAENSURBVEAAAhCAAAQgAAEIQAACEIAABCAAAQhAAAIQgAAEIAABCEAAAhCAAAQgAAEIQAACEIAABCAAAQhAAAIQgAAEIAABCEAAAhCAAAQgAAEIQAACEIAABCAAAQhAAAIQgAAEIAABCEAAAhCAAAQgAAEIQAACEIAABCAAAQhAAAIQgAAEIAABCEAAAhCAAAQgAAEIQAACEIAABCAAAQhAAAIQgAAEIAABCEAAAhCAAAQgAAEIQAACEIAABCAAAQhAAAIQgAAEIAABCEAAAhCAAAQgAAEIQAACEIAABCAAAQhAAAIQgAAEIAABCEAAAhCAAAQgAAEIQAACEIAABCAAAQhAAAIQgAAEIFAS+B8zTJC41OeImgAAAABJRU5ErkJggg==;clipPath=inset(0% 33.33% 14.33% 33.33%);align=right;labelPosition=left;" vertex="1" parent="1">
          <mxGeometry x="436.19" y="-366.18" width="28.813229571984436" height="74.05" as="geometry" />
        </mxCell>
        <mxCell id="bGUCjfSoPUJQvvFktI7P-159" value="" style="group" vertex="1" connectable="0" parent="1">
          <mxGeometry x="447" y="-165" width="153.53999999999996" height="78.74" as="geometry" />
        </mxCell>
        <mxCell id="bGUCjfSoPUJQvvFktI7P-160" value="circa 15 pirottini&lt;div&gt;&lt;br&gt;&lt;/div&gt;&lt;div&gt;&lt;b&gt;Cucinare per 20 minuti a 200 gradi&lt;/b&gt;&lt;/div&gt;" style="rounded=1;whiteSpace=wrap;html=1;labelPosition=center;verticalLabelPosition=bottom;align=center;verticalAlign=top;" vertex="1" parent="bGUCjfSoPUJQvvFktI7P-159">
          <mxGeometry width="153.54" height="78.74" as="geometry" />
        </mxCell>
        <mxCell id="bGUCjfSoPUJQvvFktI7P-161" value="" style="ellipse;whiteSpace=wrap;html=1;aspect=fixed;" vertex="1" parent="bGUCjfSoPUJQvvFktI7P-159">
          <mxGeometry x="7.8700000000000045" y="6.628000000000014" width="24.46" height="24.46" as="geometry" />
        </mxCell>
        <mxCell id="bGUCjfSoPUJQvvFktI7P-162" value="" style="ellipse;whiteSpace=wrap;html=1;aspect=fixed;" vertex="1" parent="bGUCjfSoPUJQvvFktI7P-159">
          <mxGeometry x="36.23000000000002" y="6.628000000000014" width="24.46" height="24.46" as="geometry" />
        </mxCell>
        <mxCell id="bGUCjfSoPUJQvvFktI7P-163" value="" style="ellipse;whiteSpace=wrap;html=1;aspect=fixed;" vertex="1" parent="bGUCjfSoPUJQvvFktI7P-159">
          <mxGeometry x="65.23000000000002" y="6.628000000000014" width="24.46" height="24.46" as="geometry" />
        </mxCell>
        <mxCell id="bGUCjfSoPUJQvvFktI7P-164" value="" style="ellipse;whiteSpace=wrap;html=1;aspect=fixed;" vertex="1" parent="bGUCjfSoPUJQvvFktI7P-159">
          <mxGeometry x="94.23000000000002" y="6.628000000000014" width="24.46" height="24.46" as="geometry" />
        </mxCell>
        <mxCell id="bGUCjfSoPUJQvvFktI7P-165" value="" style="ellipse;whiteSpace=wrap;html=1;aspect=fixed;" vertex="1" parent="bGUCjfSoPUJQvvFktI7P-159">
          <mxGeometry x="122.618" y="6.628000000000014" width="24.46" height="24.46" as="geometry" />
        </mxCell>
        <mxCell id="bGUCjfSoPUJQvvFktI7P-166" value="" style="ellipse;whiteSpace=wrap;html=1;aspect=fixed;" vertex="1" parent="bGUCjfSoPUJQvvFktI7P-159">
          <mxGeometry x="7.857000000000028" y="47.24500000000003" width="24.46" height="24.46" as="geometry" />
        </mxCell>
        <mxCell id="bGUCjfSoPUJQvvFktI7P-167" value="" style="ellipse;whiteSpace=wrap;html=1;aspect=fixed;" vertex="1" parent="bGUCjfSoPUJQvvFktI7P-159">
          <mxGeometry x="36.21700000000004" y="47.24500000000003" width="24.46" height="24.46" as="geometry" />
        </mxCell>
        <mxCell id="bGUCjfSoPUJQvvFktI7P-168" value="" style="ellipse;whiteSpace=wrap;html=1;aspect=fixed;" vertex="1" parent="bGUCjfSoPUJQvvFktI7P-159">
          <mxGeometry x="65.21700000000004" y="47.24500000000003" width="24.46" height="24.46" as="geometry" />
        </mxCell>
        <mxCell id="bGUCjfSoPUJQvvFktI7P-169" value="" style="ellipse;whiteSpace=wrap;html=1;aspect=fixed;" vertex="1" parent="bGUCjfSoPUJQvvFktI7P-159">
          <mxGeometry x="94.21700000000004" y="47.24500000000003" width="24.46" height="24.46" as="geometry" />
        </mxCell>
        <mxCell id="bGUCjfSoPUJQvvFktI7P-170" value="" style="ellipse;whiteSpace=wrap;html=1;aspect=fixed;" vertex="1" parent="bGUCjfSoPUJQvvFktI7P-159">
          <mxGeometry x="122.60500000000002" y="47.24500000000003" width="24.46" height="24.46" as="geometry" />
        </mxCell>
        <mxCell id="bGUCjfSoPUJQvvFktI7P-172" value="" style="endArrow=classic;html=1;rounded=1;fontSize=12;startSize=8;endSize=8;curved=0;" edge="1" parent="1">
          <mxGeometry width="50" height="50" relative="1" as="geometry">
            <mxPoint x="528" y="-294" as="sourcePoint" />
            <mxPoint x="528" y="-174" as="targetPoint" />
            <Array as="points" />
          </mxGeometry>
        </mxCell>
        <mxCell id="bGUCjfSoPUJQvvFktI7P-174" value="" style="endArrow=classic;html=1;rounded=1;fontSize=12;startSize=8;endSize=8;curved=0;" edge="1" parent="1">
          <mxGeometry width="50" height="50" relative="1" as="geometry">
            <mxPoint x="204" y="-228" as="sourcePoint" />
            <mxPoint x="492" y="-174" as="targetPoint" />
            <Array as="points">
              <mxPoint x="204" y="-204" />
              <mxPoint x="492" y="-201" />
            </Array>
          </mxGeometry>
        </mxCell>
        <mxCell id="bGUCjfSoPUJQvvFktI7P-175" value="* riempire i contenitori per metá&lt;div&gt;* nel centro i pezzi di cioccolato bianco&lt;/div&gt;&lt;div&gt;* coprire con altro impasto&lt;br&gt;* guarnire la superficie con pinoli (30gr)&lt;br&gt;&lt;br&gt;opzionalmente aggiungere:&lt;br&gt;&lt;br&gt;* un cucchiaino di nutella nel centro&lt;br&gt;* gocce di cioccolato sulla superficie&lt;/div&gt;" style="text;strokeColor=none;fillColor=none;html=1;align=left;verticalAlign=middle;whiteSpace=wrap;rounded=0;fontSize=9;" vertex="1" parent="1">
          <mxGeometry x="606" y="-189" width="183" height="132" as="geometry" />
        </mxCell>
      </root>
    </mxGraphModel>
  </diagram>
</mxfile>
